<svg width="370" height="379" viewBox="0 0 370 379" fill="none" xmlns="http://www.w3.org/2000/svg">
<path d="M280.348 262.435C280.348 262.148 280.348 261.852 280.348 261.568C280.348 256.861 280.137 252.842 279.913 249.89C280.126 249.922 280.341 249.922 280.553 249.89C280.777 252.854 280.985 256.873 280.985 261.572C280.985 261.852 280.985 262.144 280.985 262.428C280.881 262.753 280.796 263.086 280.729 263.426C280.616 263.088 280.489 262.758 280.348 262.435Z" fill="#1A1A1A"/>
<path d="M274.486 297.375C274.636 297.346 274.784 297.309 274.93 297.265C274.957 297.498 275.009 297.728 275.087 297.95C273.043 303.625 270.234 308.999 266.737 313.924L265.971 313.715C269.562 308.69 272.428 303.19 274.486 297.375Z" fill="#1A1A1A"/>
<path d="M280.172 269.01C280.308 268.918 280.436 268.816 280.554 268.704C280.725 268.527 280.87 268.327 280.985 268.111C280.668 275.493 279.554 282.822 277.663 289.977C277.552 289.523 277.407 289.077 277.232 288.642C278.845 282.203 279.829 275.63 280.172 269.01Z" fill="#1A1A1A"/>
<path d="M301.232 286.935L301.362 286.853C301.231 287.211 301.18 287.592 301.212 287.971C301.231 288.139 301.268 288.305 301.323 288.465C297.832 295.131 293.613 301.4 288.741 307.16C288.131 307.542 287.649 308.092 287.355 308.742C284.333 312.121 281.031 315.248 277.485 318.089C277.225 317.957 276.968 317.828 276.696 317.7C287.458 309.205 295.389 298.245 301.232 286.935Z" fill="#1A1A1A"/>
<path d="M303.312 284.125C303.39 283.744 303.443 283.359 303.471 282.971C306.035 277.393 308.236 271.657 310.058 265.798C310.802 263.428 311.465 261.108 312.062 258.872C312.758 257.915 313.146 256.771 313.174 255.59C313.195 255.188 313.195 254.784 313.174 254.382C314.394 249.207 315.243 244.551 315.82 240.745C315.944 239.932 316.057 239.163 316.157 238.437C316.259 238.478 316.362 238.514 316.467 238.544C316.614 238.581 316.763 238.604 316.913 238.614C316.054 244.809 314.857 250.954 313.329 257.022C313.302 257.087 313.271 257.149 313.244 257.218C313.076 257.643 312.973 258.09 312.937 258.545C312.306 260.965 311.593 263.47 310.787 266.037C308.777 272.506 306.305 278.825 303.39 284.945C303.242 285.06 303.103 285.176 302.971 285.291C303.118 284.913 303.232 284.523 303.312 284.125Z" fill="#1A1A1A"/>
<path d="M316.454 238.253C315.276 237.777 314.456 236.413 314.027 234.505C313.564 232.43 313.568 229.698 314.155 226.798C314.742 223.897 315.784 221.372 317.015 219.633C318.245 217.894 319.648 216.928 321.022 217.115C322.395 217.302 323.456 218.738 323.998 220.862C324.54 222.987 324.581 225.786 323.998 228.754C323.415 231.721 322.282 234.296 320.958 236.046C319.776 237.612 318.429 238.507 317.195 238.432C317.049 238.423 316.904 238.401 316.762 238.365C316.658 238.333 316.554 238.296 316.454 238.253Z" fill="#2A6049"/>
<path d="M313.671 255.527C313.641 256.689 313.22 257.815 312.464 258.756C312.139 259.12 311.718 259.405 311.24 259.585C309.801 260.108 308.047 259.559 306.352 258.268C304.364 256.648 302.812 254.641 301.814 252.4C300.611 249.864 300.085 247.176 300.362 245.029C300.455 244.091 300.786 243.184 301.33 242.379C301.755 241.754 302.431 241.301 303.219 241.115C304.737 240.797 306.344 241.52 307.879 242.773C309.721 244.378 311.17 246.312 312.132 248.451C313.034 250.311 313.559 252.301 313.684 254.327C313.703 254.727 313.699 255.128 313.671 255.527Z" fill="#2A6049"/>
<path d="M313.034 257.224C313.162 256.926 313.311 256.64 313.459 256.319C313.555 256.131 313.656 255.928 313.764 255.763L313.928 255.497L314.085 255.207C314.297 254.815 314.538 254.483 314.767 254.079C314.879 253.88 315.011 253.727 315.131 253.511C315.252 253.296 315.388 253.12 315.532 252.916C316.171 251.968 316.861 251.053 317.598 250.175C318.483 249.086 319.457 248.068 320.509 247.132C320.778 246.897 321.047 246.678 321.311 246.466C321.576 246.255 321.869 246.047 322.15 245.859C322.68 245.497 323.24 245.177 323.822 244.9C324.767 244.419 325.816 244.167 326.882 244.164C327.271 244.158 327.658 244.231 328.017 244.378C328.376 244.526 328.7 244.745 328.967 245.021C329.457 245.603 329.739 246.325 329.769 247.077C329.819 247.98 329.729 248.884 329.501 249.76C329.375 250.28 329.219 250.792 329.035 251.295C328.939 251.565 328.831 251.835 328.715 252.106C328.598 252.376 328.462 252.677 328.314 252.967C327.663 254.307 326.855 255.568 325.907 256.727C324.796 258.083 323.467 259.256 321.973 260.2C321.572 260.423 321.207 260.631 320.834 260.819C320.462 261.002 320.077 261.16 319.683 261.293C318.977 261.554 318.24 261.728 317.49 261.81C317.317 261.833 317.153 261.853 316.988 261.861C316.824 261.868 316.655 261.861 316.499 261.861C316.198 261.853 315.898 261.828 315.601 261.786C315.092 261.722 314.6 261.568 314.149 261.332C313.792 261.171 313.477 260.935 313.226 260.64C312.975 260.346 312.794 260 312.697 259.628C312.634 259.355 312.611 259.074 312.629 258.794C312.666 258.331 312.772 257.876 312.946 257.443C312.974 257.353 313.006 257.29 313.034 257.224Z" fill="#2A6049"/>
<path d="M301.508 287.021C302.238 286.505 302.786 285.772 303.074 284.927C303.205 284.811 303.344 284.695 303.491 284.579C303.707 284.407 303.934 284.237 304.174 284.07C305.174 283.392 306.228 282.796 307.325 282.288C309.86 281.116 312.51 280.211 315.232 279.588C316.41 279.315 317.609 279.14 318.815 279.064C320.999 278.948 322.761 279.334 323.525 280.545C324.289 281.756 323.822 283.569 322.237 285.474C321.32 286.544 320.255 287.476 319.074 288.244C316.237 290.102 312.98 291.219 309.601 291.492C308.201 291.604 306.793 291.514 305.419 291.226C303.286 290.755 301.878 289.791 301.481 288.61C301.428 288.451 301.392 288.287 301.373 288.12C301.339 287.749 301.385 287.374 301.508 287.021Z" fill="#2A6049"/>
<path d="M288.419 307.142C289.132 306.668 289.903 306.29 290.714 306.017C291.863 305.625 293.042 305.327 294.24 305.128C295.618 304.883 297.01 304.72 298.407 304.641C299.805 304.543 301.207 304.527 302.606 304.594C303.818 304.642 305.024 304.788 306.213 305.031C308.356 305.499 309.962 306.338 310.38 307.707C310.798 309.075 309.866 310.711 307.826 312.137C306.658 312.929 305.382 313.548 304.038 313.978C300.801 315.024 297.354 315.244 294.011 314.616C292.619 314.362 291.272 313.909 290.01 313.27C287.808 312.11 286.682 310.591 286.914 309.199C286.945 309.033 286.992 308.869 287.053 308.712C287.344 308.066 287.819 307.519 288.419 307.142Z" fill="#2A6049"/>
<path d="M302.47 285.277C302.192 286.14 301.665 286.888 300.964 287.415L300.841 287.498C300.616 287.638 300.372 287.743 300.118 287.809C298.79 288.151 297.361 287.439 296.078 286.127C293.222 282.892 291.657 278.609 291.711 274.176C291.823 272.285 292.424 270.738 293.626 270.041C294.828 269.344 296.404 269.647 297.97 270.872C299.535 272.096 301.053 274.168 302.017 276.806C302.744 278.734 303.062 280.809 302.948 282.882C302.921 283.279 302.87 283.674 302.796 284.064C302.721 284.477 302.611 284.883 302.47 285.277Z" fill="#2A6049"/>
<path d="M280.093 249.847C279.037 249.735 277.933 249.19 276.889 248.332C275.215 246.799 273.908 244.978 273.047 242.978C272.187 240.979 271.79 238.843 271.883 236.702C272.068 234.899 272.826 233.493 274.18 232.945C275.534 232.397 277.227 232.826 278.856 234.027C280.484 235.228 282.04 237.149 283.072 239.539C284.103 241.93 284.402 244.305 284.079 246.158C283.757 248.012 282.822 249.353 281.411 249.764C280.985 249.882 280.536 249.918 280.093 249.868V249.847Z" fill="#2A6049"/>
<path d="M279.993 269.064C279.004 269.782 277.544 269.84 275.887 269.371C271.543 267.879 267.892 264.753 265.653 260.605C264.802 258.813 264.612 257.113 265.388 255.949C266.164 254.785 267.777 254.343 269.774 254.692C271.77 255.041 274.144 256.17 276.309 258.025C277.89 259.35 279.203 260.987 280.176 262.84C280.341 263.165 280.49 263.497 280.623 263.837C280.594 263.958 280.56 264.078 280.538 264.198C280.257 265.373 280.417 266.615 280.985 267.671C280.931 267.837 280.863 267.998 280.784 268.152C280.671 268.377 280.53 268.585 280.362 268.769C280.247 268.878 280.123 268.976 279.993 269.064Z" fill="#2A6049"/>
<path d="M280.593 264.095C280.617 263.975 280.653 263.855 280.684 263.736C280.767 263.394 280.873 263.058 281.003 262.731C281.67 261.124 282.705 259.685 284.029 258.523C285.926 256.827 288.137 255.854 290.026 255.656C291.915 255.459 293.482 256 294.297 257.175C295.112 258.35 295.092 259.926 294.492 261.502C293.755 263.249 292.633 264.817 291.203 266.096C289.774 267.375 288.073 268.332 286.22 268.902C284.554 269.334 282.943 269.242 281.798 268.353C281.509 268.129 281.263 267.859 281.07 267.553C280.465 266.501 280.294 265.265 280.593 264.095Z" fill="#2A6049"/>
<path d="M275.888 294.24C275.313 295.094 275.042 296.098 275.115 297.107C274.967 297.15 274.817 297.185 274.666 297.213C273.509 297.374 272.329 297.158 271.32 296.6C269.72 295.707 268.389 294.443 267.453 292.928C266.516 291.413 266.006 289.698 265.971 287.945C266.014 286.391 266.594 285.027 267.773 284.297C268.953 283.568 270.512 283.542 272.086 284.213C273.885 285.053 275.369 286.391 276.341 288.047C276.64 288.532 276.899 289.038 277.114 289.561C277.292 289.986 277.438 290.422 277.551 290.866C277.658 291.281 277.731 291.703 277.768 292.128C277.025 292.732 276.39 293.445 275.888 294.24Z" fill="#2A6049"/>
<path d="M275.898 294.084C276.455 293.24 277.16 292.484 277.985 291.847C278.992 291.057 280.124 290.409 281.343 289.926C283.877 288.934 286.411 288.723 288.388 289.134C290.364 289.545 291.733 290.552 292.126 291.917C292.518 293.281 291.923 294.745 290.774 296.045C289.413 297.453 287.727 298.572 285.838 299.322C283.948 300.072 281.9 300.435 279.839 300.384C278.01 300.265 276.431 299.669 275.616 298.462C275.472 298.252 275.359 298.026 275.278 297.79C275.192 297.565 275.134 297.333 275.104 297.098C275.012 296.042 275.29 294.987 275.898 294.084Z" fill="#2A6049"/>
<path d="M293.341 85.2752C294.296 84.1457 294.954 82.8144 295.259 81.3926C295.443 80.4062 295.758 79.4461 296.196 78.5356C296.442 77.979 296.811 77.4794 297.278 77.0705C297.393 76.9637 297.541 76.8955 297.7 76.8764C297.713 76.8753 297.726 76.8767 297.739 76.8804C297.751 76.8842 297.763 76.8903 297.773 76.8984C297.827 76.9379 297.871 76.9894 297.899 77.0485C298.061 77.4013 298.133 77.7851 298.11 78.1694C298.11 78.3269 298.11 78.499 298.084 78.6822C298.019 79.4781 297.911 80.2703 297.761 81.0557C297.642 81.6527 297.531 82.0776 297.45 82.4146C297.396 82.6184 297.366 82.8271 297.358 83.0373C297.354 83.2015 297.394 83.364 297.473 83.5098C297.555 83.663 297.682 83.7903 297.838 83.876C297.924 83.9268 298.016 83.9697 298.11 84.0042C298.203 84.0357 298.3 84.0518 298.398 84.0519C298.57 84.0497 298.738 84.0042 298.885 83.92C299.017 83.8496 299.138 83.7634 299.246 83.6636C299.498 83.4254 299.724 83.1641 299.921 82.8834C300.492 82.0715 300.988 81.2136 301.403 80.3194C302.601 77.8059 303.454 75.1553 303.943 72.4334C304.08 71.3472 304.512 70.3142 305.197 69.4372C305.627 68.9137 306.215 68.5299 306.882 68.3384C307.232 68.2454 307.593 68.1985 307.956 68.1992C308.178 68.199 308.4 68.2149 308.62 68.2468C308.647 68.4336 308.678 68.679 308.712 68.9793C308.82 69.9735 308.872 70.9724 308.869 71.9719C308.878 74.7448 308.481 77.5053 307.688 80.1729C306.691 83.5764 304.879 86.7123 302.396 89.3336C299.615 92.2346 297.408 94.3078 295.697 95.7912C295.555 95.1905 295.371 94.5861 295.164 93.9781C294.629 92.4936 293.988 91.0458 293.245 89.645C292.704 88.6084 292.167 87.6744 291.71 86.9198C292.301 86.4165 292.847 85.8664 293.341 85.2752Z" fill="white"/>
<path d="M294.493 97.0317C296.345 95.452 298.722 93.197 301.724 90.0692C304.391 87.2523 306.339 83.8854 307.414 80.2316C308.273 77.3465 308.702 74.3606 308.69 71.3616C308.693 70.284 308.636 69.207 308.52 68.135C308.483 67.7954 308.45 67.5308 308.421 67.3452C308.184 67.3108 307.944 67.2936 307.704 67.2938C307.312 67.2932 306.922 67.3437 306.545 67.4439C305.825 67.6504 305.19 68.0643 304.727 68.6287C303.991 69.5766 303.528 70.6918 303.385 71.8631C302.858 74.7979 301.936 77.6557 300.643 80.3659C300.196 81.33 299.661 82.255 299.045 83.1304C298.832 83.433 298.587 83.7148 298.316 83.9716C298.199 84.0792 298.068 84.1721 297.927 84.248C297.767 84.3388 297.586 84.3878 297.401 84.3902C297.295 84.3901 297.19 84.3727 297.09 84.3388C296.988 84.3016 296.889 84.2553 296.796 84.2006C296.627 84.1081 296.491 83.9709 296.403 83.8057C296.317 83.6486 296.274 83.4733 296.278 83.2962C296.286 83.0697 296.319 82.8446 296.378 82.6249C296.465 82.2615 296.585 81.8034 296.713 81.1597C296.875 80.3129 296.991 79.4587 297.061 78.6006C297.082 78.4031 297.09 78.2056 297.09 78.0477C297.114 77.6334 297.036 77.2195 296.862 76.8392C296.831 76.7755 296.784 76.7199 296.726 76.6773C296.715 76.6686 296.702 76.662 296.689 76.658C296.675 76.6539 296.661 76.6524 296.647 76.6536C296.475 76.6742 296.315 76.7477 296.191 76.8629C295.688 77.3037 295.29 77.8424 295.024 78.4426C294.551 79.4242 294.211 80.4594 294.013 81.523C293.683 83.056 292.973 84.4914 291.942 85.7092C291.418 86.3455 290.839 86.9386 290.211 87.4824C289.971 87.0875 289.752 86.736 289.565 86.4398C290.102 85.9508 290.597 85.4226 291.048 84.8601C291.918 83.8138 292.52 82.5888 292.808 81.2821C293.059 79.8053 293.595 78.3858 294.39 77.0959C294.665 76.6568 295.017 76.2655 295.429 75.9388C295.775 75.6506 296.213 75.4847 296.672 75.4688C296.946 75.4684 297.214 75.5453 297.442 75.69C297.781 75.9245 298.03 76.259 298.15 76.6417C298.297 77.0969 298.367 77.5715 298.357 78.0477C298.357 78.253 298.357 78.4702 298.324 78.6993C298.237 79.8067 298.071 80.9071 297.827 81.993C297.744 82.3642 297.67 82.6604 297.616 82.8816C297.616 82.9289 297.595 82.9684 297.587 83.0119L297.649 82.9526C298.075 82.4564 298.446 81.9206 298.759 81.3532C300.428 78.3148 301.584 75.044 302.184 71.6617C302.333 70.6855 302.646 69.7387 303.112 68.8578C303.605 67.9046 304.403 67.1249 305.389 66.6304C306.116 66.2857 306.918 66.1098 307.729 66.117C308.217 66.1138 308.703 66.1736 309.175 66.2947C309.28 66.3293 309.374 66.3899 309.447 66.4704C309.519 66.5509 309.568 66.6483 309.589 66.7528C309.838 68.2852 309.956 69.8345 309.941 71.3853C309.952 74.4859 309.508 77.5727 308.62 80.5554C307.49 84.3861 305.446 87.9154 302.648 90.867C300.163 93.5039 297.537 96.0163 294.779 98.3942C294.692 97.9282 294.605 97.4701 294.493 97.0317Z" fill="black"/>
<path d="M261.114 372.304C259.81 368.901 257.286 366.079 254.011 364.363C251.395 362.978 247.982 362.047 243.551 361.92L238.078 361.534L235.292 361.333L234.87 359.171C236.945 359.086 238.275 359.017 238.279 359.017C238.36 359.012 238.44 358.99 238.513 358.954C238.586 358.917 238.65 358.866 238.702 358.805C238.754 358.743 238.792 358.671 238.814 358.594C238.836 358.517 238.842 358.436 238.831 358.357V358.314C238.831 358.28 238.831 358.23 238.831 358.16C238.831 358.021 238.792 357.805 238.76 357.504C238.705 356.898 238.626 355.96 238.551 354.57C238.397 351.818 238.243 347.379 238.243 340.631C238.243 333.972 238.393 325.067 238.843 313.328C247.724 311.248 256.992 311.353 265.821 313.633L266.61 313.845C269.884 314.745 273.064 315.943 276.108 317.424C276.369 317.547 276.625 317.675 276.897 317.81C287.805 323.305 296.522 332.21 301.663 343.109C306.803 354.007 308.073 366.274 305.269 377.959H262.298C262.22 376.023 261.82 374.113 261.114 372.304Z" fill="#2A6049"/>
<path d="M158.391 352.845C158.387 352.955 158.416 353.063 158.474 353.157C158.532 353.251 158.617 353.327 158.718 353.375C159.582 353.772 160.482 354.09 161.406 354.324L159.85 359.738C150.863 340.23 130.024 326.559 105.741 326.559C104.99 326.559 104.24 326.559 103.493 326.601V287.99C112.574 284.876 122.299 284.003 131.807 285.449C141.315 286.896 150.312 290.616 158.002 296.281C158.266 310.896 158.581 325.093 158.581 337.62C158.597 343.042 158.539 348.151 158.391 352.845Z" fill="#2A6049"/>
<path d="M180.158 368.623C180.548 364.933 180.938 360.645 181.328 356.482C182.26 356.482 182.833 356.482 182.887 356.482C183.03 356.482 183.168 356.431 183.276 356.337C183.383 356.244 183.453 356.114 183.472 355.974C183.472 355.974 183.511 355.655 183.589 355.05C183.667 354.445 183.78 353.552 183.928 352.408C184.221 350.114 184.646 346.801 185.176 342.707C186.236 334.559 187.71 323.306 189.371 311.052C189.668 308.887 189.964 306.687 190.268 304.456C193.906 302.547 197.875 301.343 201.965 300.909C204.612 321.719 208.129 341.652 212.804 358.496C212.833 358.604 212.893 358.701 212.977 358.775C213.061 358.85 213.164 358.898 213.276 358.915C214.541 359.095 215.815 359.209 217.093 359.256C217.451 362.558 217.81 365.787 218.137 368.635C218.586 372.515 218.976 375.712 219.233 377.423C219.264 377.625 219.292 377.811 219.319 377.959H179.101C179.179 377.451 179.273 376.737 179.378 375.844C179.597 374.071 179.866 371.533 180.158 368.623Z" fill="#2A6049"/>
<path d="M45.5797 377.959C45.7875 375.153 46.2176 372.367 46.866 369.629H86.3991L89.0145 377.959H45.5797Z" fill="#7EA871"/>
<path d="M159.797 360.279L159.464 361.45L157.786 361.588L152.055 362.059C147.653 362.181 144.262 363.108 141.667 364.482C139.381 365.676 137.447 367.424 136.054 369.559C134.451 372.089 133.552 374.985 133.447 377.959H97.058L99.6805 369.789H102.424C102.58 369.789 102.73 369.728 102.84 369.62C102.95 369.512 103.011 369.366 103.012 369.214V326.982C103.765 326.955 104.522 326.94 105.278 326.94C129.743 326.94 150.742 340.676 159.797 360.279Z" fill="#74BA81"/>
<path d="M90.3905 377.438L87.942 369.629H98.1304L95.6858 377.438H90.3905Z" fill="black"/>
<path d="M89.0129 377.959L86.3333 369.629H87.591L90.0784 377.354H95.4578L97.9411 369.629H99.2029L96.5232 377.959H89.0129Z" fill="black"/>
<path d="M22.289 377.438L19.8405 369.629H30.0289L27.5804 377.438H22.289Z" fill="black"/>
<path d="M19.5424 369.629L22.1343 377.354H27.7353L30.3272 369.629H31.6377L28.8455 377.959H21.0241L18.2319 369.629H19.5424Z" fill="black"/>
<path d="M220.137 375.681C219.915 373.999 219.633 371.67 219.319 368.969C226.338 368.886 233.221 366.912 238.655 362.341L243.934 362.735H243.962C248.279 362.854 251.509 363.774 253.975 365.104C256.115 366.236 257.924 367.9 259.226 369.933C260.727 372.353 261.573 375.118 261.681 377.959H220.471C220.471 377.911 220.471 377.864 220.443 377.813C220.363 377.311 220.26 376.589 220.137 375.681Z" fill="black"/>
<path d="M218.246 368.548C218.264 368.691 218.333 368.823 218.441 368.919C218.549 369.015 218.689 369.068 218.834 369.069H219.035C226.245 369.069 233.348 367.084 238.889 362.329C238.979 362.254 239.045 362.154 239.077 362.042C239.109 361.929 239.107 361.81 239.07 361.699C239.033 361.588 238.963 361.49 238.87 361.419C238.776 361.348 238.663 361.306 238.546 361.299L244.016 361.691C248.445 361.816 251.857 362.764 254.471 364.17C257.744 365.91 260.267 368.774 261.57 372.226C262.276 374.059 262.675 375.994 262.754 377.955H261.57C261.463 375.137 260.623 372.394 259.133 369.993C257.839 367.985 256.044 366.342 253.923 365.223C251.49 363.915 248.268 363.003 243.981 362.874H243.953L238.711 362.482C233.316 367.017 226.485 368.975 219.512 369.057C219.824 371.732 220.104 374.043 220.325 375.715C220.447 376.616 220.55 377.332 220.629 377.814C220.629 377.865 220.648 377.912 220.656 377.959H219.473C219.445 377.794 219.418 377.622 219.386 377.418C219.094 375.707 218.7 372.496 218.246 368.548Z" fill="black"/>
<path d="M234.278 362.658L235.942 362.79C231.165 366.777 225.258 368.539 219.178 368.588C218.885 365.767 218.566 362.621 218.246 359.402C219.583 359.451 221.029 359.476 222.513 359.476C226.302 359.476 230.316 359.34 233.253 359.217L233.768 362.157C233.79 362.291 233.852 362.413 233.945 362.503C234.037 362.594 234.154 362.649 234.278 362.658Z" fill="white"/>
<path d="M239.666 361.949C239.703 362.056 239.706 362.172 239.673 362.281C239.641 362.39 239.575 362.487 239.483 362.561C233.81 367.18 226.491 369.109 219.083 369.109H218.864C218.715 369.108 218.571 369.056 218.46 368.963C218.349 368.869 218.278 368.741 218.26 368.603C217.92 365.81 217.547 362.645 217.174 359.407H217.518L218.402 359.438C218.746 362.42 219.091 365.335 219.407 367.948C225.968 367.891 232.343 366.27 237.498 362.576L235.702 362.455C235.569 362.446 235.442 362.395 235.342 362.311C235.242 362.227 235.175 362.114 235.151 361.99L234.596 359.267L235.812 359.217L236.245 361.348L239.106 361.545C239.233 361.55 239.355 361.591 239.455 361.663C239.555 361.735 239.629 361.835 239.666 361.949Z" fill="black"/>
<path d="M167.781 366.071C164.699 365.321 161.806 364.039 159.261 362.296L159.967 362.244C160.092 362.235 160.21 362.192 160.306 362.119C160.401 362.047 160.47 361.95 160.503 361.841L162.59 355.052C163.341 355.208 164.125 355.348 164.942 355.474C167.446 355.844 170.195 356.11 172.764 356.284C175.406 356.457 177.853 356.542 179.638 356.587C179.229 360.333 178.845 364.178 178.474 367.547C174.858 367.434 171.269 366.939 167.781 366.071Z" fill="white"/>
<path d="M179.61 368.588C179.618 368.51 179.61 368.43 179.586 368.355C179.563 368.28 179.525 368.211 179.474 368.152C179.425 368.094 179.365 368.047 179.297 368.013C179.23 367.98 179.157 367.961 179.082 367.958L178.565 367.935C178.899 364.455 179.262 360.483 179.61 356.614L180.71 356.637C180.343 360.735 179.977 364.956 179.61 368.588Z" fill="black"/>
<path d="M160.95 361.899C160.918 362.005 160.851 362.099 160.757 362.169C160.663 362.239 160.547 362.282 160.425 362.29L159.732 362.341C159.359 362.079 158.994 361.806 158.645 361.519C158.584 361.468 158.512 361.43 158.434 361.405C158.355 361.381 158.271 361.372 158.188 361.379L159.904 361.25L160.245 360.152L161.848 355.052C162.221 355.142 162.614 355.228 163.015 355.311L160.95 361.899Z" fill="black"/>
<path d="M142.808 365.161C145.248 363.849 148.483 362.934 152.791 362.804H152.827L158.37 362.341C161.075 364.737 164.413 366.328 167.973 367.345C171.428 368.29 174.983 368.831 178.565 368.955C178.355 371.033 178.169 372.884 177.987 374.423C177.801 376.046 177.647 377.283 177.536 377.959H135.13C135.209 376.137 135.582 374.34 136.235 372.636C137.435 369.433 139.772 366.775 142.808 365.161Z" fill="black"/>
<path d="M142.293 364.245C144.899 362.848 148.304 361.909 152.725 361.781L158.48 361.302C158.561 361.295 158.643 361.304 158.721 361.33C158.798 361.357 158.869 361.399 158.929 361.454C159.271 361.765 159.629 362.061 159.996 362.345C162.448 364.182 165.237 365.533 168.207 366.325C171.569 367.24 175.028 367.762 178.513 367.882L179.068 367.905C179.148 367.909 179.227 367.928 179.299 367.962C179.371 367.996 179.436 368.044 179.489 368.104C179.543 368.164 179.584 368.234 179.609 368.311C179.634 368.387 179.643 368.468 179.635 368.548C179.34 371.468 179.068 373.999 178.847 375.837C178.741 376.732 178.647 377.449 178.568 377.959H177.387C177.497 377.297 177.651 376.07 177.836 374.454C178.005 372.944 178.202 371.094 178.411 369.035C174.855 368.912 171.326 368.379 167.896 367.446C164.353 366.437 161.039 364.861 158.35 362.485L152.839 362.945H152.804C148.521 363.062 145.305 363.969 142.88 365.281C139.861 366.877 137.534 369.507 136.337 372.679C135.688 374.368 135.317 376.149 135.239 377.955H134.058C134.163 374.93 135.066 371.986 136.676 369.412C138.069 367.242 140.004 365.463 142.293 364.245Z" fill="black"/>
<path d="M201.691 231.604C208.466 206.728 209.947 182.738 209.947 166.511C209.947 159.872 209.698 154.537 209.462 150.975L211.577 150.998C210.907 163.813 210.481 176.604 210.481 188.479C210.481 194.689 210.598 200.64 210.858 206.204C210.862 206.293 210.887 206.38 210.933 206.458C210.978 206.535 211.042 206.602 211.119 206.651C217.031 210.581 224.071 212.682 231.281 212.667C233.548 212.665 235.81 212.469 238.04 212.082C239.293 230.393 240.232 250.067 240.232 267.969C240.232 275.574 240.063 282.874 239.678 289.585C238.301 313.59 237.916 329.668 237.916 340.155C237.916 350.764 238.317 355.653 238.478 357.246L237.675 357.281C236.76 357.323 235.459 357.38 233.922 357.434C230.848 357.544 226.822 357.655 223.02 357.655C221.118 357.655 219.276 357.625 217.638 357.56C216.189 357.499 214.9 357.403 213.889 357.273C205.291 327.44 200.511 287.789 197.87 250.908C198.403 247.805 198.913 244.931 199.395 242.351C200.266 237.677 201.049 233.958 201.691 231.604Z" fill="white"/>
<path d="M238.813 354.358C238.888 355.722 238.966 356.657 239.021 357.27C239.053 357.569 239.076 357.784 239.092 357.922C239.092 357.991 239.092 358.04 239.092 358.075V358.117C239.103 358.196 239.097 358.276 239.075 358.352C239.053 358.429 239.015 358.5 238.963 358.562C238.912 358.623 238.848 358.673 238.775 358.71C238.703 358.746 238.624 358.767 238.542 358.772C238.542 358.772 237.216 358.841 235.151 358.926L233.973 358.976C230.903 359.091 226.707 359.217 222.746 359.217C221.176 359.217 219.685 359.194 218.287 359.148L217.431 359.117H217.098C215.812 359.071 214.529 358.958 213.255 358.78C213.143 358.764 213.038 358.716 212.954 358.642C212.87 358.569 212.809 358.473 212.78 358.366C208.069 341.719 204.536 322.043 201.867 301.49C199.928 286.544 198.452 271.111 197.333 256.054C197.608 254.329 197.883 252.651 198.15 251.041C200.733 288.023 205.408 327.784 213.816 357.699C214.805 357.83 216.065 357.926 217.482 357.987C219.084 358.052 220.886 358.083 222.746 358.083C226.464 358.083 230.401 357.972 233.408 357.86C234.911 357.807 236.183 357.749 237.078 357.707L237.863 357.673C237.698 356.075 237.314 351.158 237.314 340.534C237.314 330.018 237.706 313.896 239.037 289.825C239.429 283.08 239.579 275.775 239.579 268.149C239.579 250.198 238.66 230.469 237.435 212.108C237.828 212.039 238.22 211.963 238.613 211.886C239.846 230.304 240.768 250.114 240.768 268.149C240.768 275.79 240.603 283.118 240.222 289.886C239.728 298.785 239.363 306.591 239.1 313.428C238.652 325.082 238.503 333.923 238.503 340.534C238.507 347.218 238.66 351.625 238.813 354.358Z" fill="black"/>
<path d="M208.151 151.464C208.371 155.008 208.594 160.13 208.594 166.438C208.594 182.663 207.124 206.675 200.418 231.531C199.763 233.957 198.98 237.704 198.105 242.427C197.23 247.149 196.268 252.835 195.257 259.12C193.236 271.694 191.027 286.66 188.978 301.023C185.211 327.426 181.992 351.803 181.497 355.573C180.594 355.573 178.605 355.534 176.128 355.423C172.415 355.285 168.712 354.941 165.04 354.394C163.14 354.129 161.278 353.654 159.492 352.977C159.635 348.336 159.691 343.31 159.691 338.004C159.691 316.143 158.725 289.305 158.725 263.931C158.725 252.57 158.916 241.505 159.48 231.316C159.863 224.351 160.33 217.673 160.882 211.282C164.643 211.819 168.439 212.091 172.242 212.096C179.77 212.134 187.247 210.91 194.338 208.479C194.444 208.444 194.537 208.381 194.608 208.297C194.678 208.214 194.723 208.113 194.738 208.007C194.942 206.413 195.333 202.121 195.812 195.909C196.292 189.697 196.855 181.58 197.39 172.37C197.79 165.555 198.189 158.137 198.504 150.455C201.58 150.627 204.84 150.739 208.091 150.796C208.123 151.011 208.139 151.234 208.151 151.464Z" fill="white"/>
<path d="M161.482 211.357C160.957 217.728 160.497 224.395 160.101 231.359C159.546 241.532 159.357 252.579 159.357 263.922C159.357 289.256 160.309 316.054 160.309 337.877C160.309 343.194 160.254 348.227 160.113 352.827C161.872 353.502 163.707 353.977 165.578 354.241C169.196 354.787 172.844 355.13 176.502 355.269C178.942 355.38 180.901 355.41 181.791 355.418C182.279 351.654 185.45 327.316 189.161 300.955C191.18 286.615 193.356 271.673 195.347 259.119C196.343 252.844 197.315 247.163 198.153 242.452C198.991 237.741 199.786 233.996 200.431 231.573C207.034 206.776 208.486 182.803 208.486 166.592C208.486 160.309 208.266 155.196 208.049 151.642C208.049 151.412 208.022 151.19 208.01 150.975L209.19 150.994C209.423 154.567 209.667 159.918 209.667 166.577C209.667 182.841 208.215 206.902 201.572 231.853C200.943 234.214 200.175 237.944 199.317 242.644C198.845 245.231 198.346 248.114 197.822 251.226C197.555 252.836 197.279 254.515 197.004 256.24C194.698 270.55 192.081 288.489 189.755 305.218C189.448 307.41 189.149 309.584 188.85 311.734C187.174 323.855 185.702 334.945 184.616 343.006C184.081 347.039 183.652 350.312 183.357 352.589C183.207 353.739 183.093 354.602 183.015 355.2C182.936 355.798 182.897 356.108 182.897 356.112C182.877 356.251 182.807 356.379 182.698 356.471C182.59 356.564 182.45 356.614 182.306 356.614C182.239 356.614 181.661 356.614 180.732 356.614L179.552 356.591C177.832 356.545 175.475 356.457 172.929 356.277C170.454 356.097 167.813 355.832 165.393 355.437C164.606 355.307 163.851 355.161 163.127 355C162.733 354.912 162.34 354.82 161.982 354.724C161.047 354.489 160.137 354.17 159.263 353.77C159.161 353.722 159.075 353.646 159.016 353.551C158.958 353.456 158.928 353.347 158.932 353.237C159.082 348.514 159.141 343.374 159.141 337.904C159.141 325.3 158.822 311.017 158.554 296.313C158.358 285.58 158.188 274.644 158.188 263.949C158.188 252.595 158.377 241.528 158.932 231.324C159.312 224.33 159.777 217.624 160.325 211.207L161.482 211.357Z" fill="black"/>
<path d="M251.257 110.891C251.267 111.002 251.31 111.108 251.38 111.196C251.451 111.284 251.546 111.35 251.654 111.388C251.76 111.428 251.875 111.438 251.986 111.417C252.097 111.396 252.2 111.345 252.282 111.27C268.867 96.1083 286.099 87.5681 289.133 86.1231L289.363 86.4824C289.685 86.9832 290.126 87.6981 290.618 88.5582C291.783 90.5637 292.761 92.6642 293.541 94.8353C294.028 96.1495 294.315 97.5247 294.391 98.9181C284.808 112.332 276.031 121.454 268.128 127.207C260.225 132.96 253.164 135.357 247.059 135.357C246.746 135.357 246.432 135.357 246.118 135.338C245.971 124.986 245.677 114.779 245.173 105.673C245.165 105.523 245.095 105.381 244.979 105.28C244.863 105.179 244.71 105.127 244.553 105.134L243.449 78.6113C247.151 86.4251 250.304 96.9799 251.257 110.891Z" fill="white"/>
<path d="M233.882 61.8895L233.762 61.7431L233.649 61.6005C232.984 60.7637 232.318 60.0131 231.652 59.3489C233.416 61.0833 235.032 63.0006 236.478 65.0755C235.08 63.1992 233.995 62.0096 233.882 61.8895Z" fill="black"/>
<path d="M246.164 135.211C246.477 135.211 246.789 135.23 247.102 135.23C253.184 135.23 260.192 132.833 268.095 127.023C275.998 121.214 284.716 112.073 294.265 98.5909C294.186 97.197 293.901 95.8214 293.418 94.5066C292.633 92.3292 291.652 90.2231 290.485 88.2131C289.995 87.3486 289.556 86.6301 289.235 86.1267L289.005 85.7656C285.982 87.2179 268.823 95.8015 252.286 111.04C252.204 111.115 252.102 111.167 251.991 111.188C251.88 111.209 251.766 111.199 251.661 111.159C251.552 111.121 251.458 111.054 251.387 110.965C251.317 110.877 251.275 110.771 251.265 110.659C250.315 96.6813 247.173 86.0691 243.485 78.2156L243.449 77.2973C243.508 77.2946 243.567 77.2842 243.623 77.2666C243.697 77.2412 243.765 77.202 243.823 77.1511C243.881 77.1003 243.928 77.0388 243.961 76.9703C243.995 76.9018 244.014 76.8275 244.018 76.7517C244.021 76.676 244.01 76.6003 243.983 76.5289C247.873 84.4285 251.257 95.1521 252.369 109.388C270.462 92.9697 288.926 84.5168 288.97 84.4823C289.099 84.4233 289.246 84.4114 289.383 84.4488C289.52 84.4862 289.639 84.5704 289.718 84.6859C289.718 84.6859 289.975 85.0701 290.375 85.7041C290.553 85.9923 290.77 86.3304 290.992 86.7184C291.463 87.5099 292.017 88.4897 292.575 89.5771C293.341 91.0465 294.002 92.5651 294.554 94.1224C294.767 94.7602 294.949 95.3942 295.104 96.0243C295.21 96.47 295.294 96.9157 295.357 97.3537C295.425 97.8209 295.461 98.292 295.464 98.7638C295.464 98.8802 295.428 98.9939 295.361 99.0904C285.717 112.723 276.868 122.028 268.819 127.945C260.77 133.863 253.521 136.398 247.11 136.398C246.801 136.398 246.492 136.398 246.188 136.379C246.188 135.98 246.168 135.595 246.164 135.211Z" fill="black"/>
<path d="M211.843 118.518C211.136 119.147 210.533 119.879 210.056 120.688C208.757 122.764 206.785 124.357 204.453 125.214C204.191 125.313 203.936 125.393 203.694 125.466C203.517 125.371 203.33 125.298 203.135 125.248C202.557 125.136 201.968 125.087 201.379 125.103C200.765 125.103 200.054 125.133 199.264 125.175C199.362 120.161 199.412 115.18 199.412 110.319C199.412 105.873 199.369 101.534 199.272 97.3333C198.744 75.1398 193.586 58.0335 192.507 54.6802C194.533 54.2257 196.417 53.882 198.13 53.6223C198.13 54.1035 198.153 54.5809 198.173 55.043C198.177 55.1701 198.223 55.2923 198.306 55.3906L206.838 65.374C206.899 65.4471 206.978 65.5039 207.067 65.5393C207.157 65.5747 207.254 65.5874 207.35 65.5764L207.878 65.5191C208.032 65.4983 208.172 65.4203 208.269 65.3014L215.616 56.0627C215.684 55.9738 215.726 55.868 215.737 55.7572L215.905 53.7483C216.93 53.9736 218.04 54.2601 219.217 54.6344L219.319 54.6687C218.869 58.4688 215.733 85.3676 213.231 117.827C213.045 117.856 212.863 117.909 212.691 117.984C212.383 118.121 212.097 118.301 211.843 118.518Z" fill="#2A6049"/>
<path d="M198.406 149.527C198.476 147.643 198.545 145.748 198.61 143.841C201.439 142.79 204.207 141.568 206.9 140.181C206.996 140.128 207.077 140.049 207.133 139.952C207.189 139.855 207.219 139.744 207.219 139.63C207.219 139.63 207.219 139.043 207.175 138.119L211.812 136.919C211.556 141.237 211.32 145.583 211.112 149.934C206.826 149.901 202.453 149.774 198.406 149.527Z" fill="#2A6049"/>
<path d="M219.944 53.2922C219.832 53.3854 219.758 53.5238 219.738 53.6771C219.738 53.6771 219.738 53.8388 219.689 54.1428L219.598 54.1082C218.549 53.7233 217.553 53.4423 216.638 53.2152L216.725 52.0604C217.966 52.3604 219.19 52.7382 220.391 53.1921H220.349C220.279 53.1786 220.207 53.1804 220.138 53.1976C220.068 53.2148 220.002 53.2469 219.944 53.2922Z" fill="black"/>
<path d="M207.921 150.947C204.682 150.908 201.447 150.832 198.406 150.715L198.453 149.934C202.537 150.09 206.966 150.171 211.275 150.194C211.252 150.455 211.232 150.715 211.212 150.975L209.123 150.96L207.921 150.947Z" fill="black"/>
<path d="M198.406 53.1483C196.559 53.3925 194.535 53.7156 192.356 54.1428C192.221 53.7838 192.146 53.5827 192.146 53.5792C192.099 53.4633 192.007 53.3645 191.885 53.2992C191.764 53.2339 191.62 53.206 191.477 53.2201H191.435C193.959 52.7103 196.281 52.3333 198.385 52.0604C198.389 52.4302 198.397 52.7893 198.406 53.1483Z" fill="black"/>
<path d="M205.118 38.0555C205.602 37.797 206.007 37.4237 206.294 36.9721C206.557 36.5473 206.748 36.0852 206.858 35.6033C207.089 34.6626 207.133 33.6755 207.283 32.8774C207.344 32.4282 207.497 31.9946 207.734 31.6012C207.846 31.442 207.996 31.31 208.172 31.2157C208.445 31.0774 208.75 31.0033 209.06 30.9997H209.21C209.434 30.9843 209.659 31.0283 209.858 31.127C209.952 31.1871 210.018 31.2799 210.041 31.3853C210.074 31.5113 210.089 31.641 210.086 31.7709C210.059 32.2696 209.979 32.7644 209.846 33.2476C209.699 33.7981 209.611 34.3613 209.583 34.9286C209.579 35.1918 209.627 35.4534 209.725 35.6997C209.844 35.9803 210.058 36.2151 210.333 36.3667C210.527 36.4699 210.741 36.5367 210.961 36.5634C211.072 36.5786 211.183 36.5863 211.294 36.5865C211.575 36.5859 211.853 36.5239 212.105 36.4053C212.344 36.2843 212.551 36.1128 212.709 35.9041C213.004 35.4783 213.203 34.9992 213.293 34.4968C213.528 33.448 213.601 32.1603 213.861 30.9188C213.99 30.2382 214.207 29.5753 214.506 28.9447C215.122 29.0109 215.742 29.0457 216.363 29.0488C218.805 29.0769 221.211 28.4903 223.338 27.3485C224.729 26.5851 225.98 25.6125 227.044 24.4684C227.219 26.6776 227.36 29.2339 227.36 31.8133C227.381 34.2022 227.225 36.5895 226.894 38.9577C226.562 41.1631 226.01 43.0909 225.211 44.4326C224.794 45.2171 224.135 45.8616 223.322 46.2794C222.889 46.477 222.414 46.5773 221.935 46.5725H216.168C216.016 46.5729 215.87 46.6273 215.758 46.7251C215.647 46.8228 215.577 46.9568 215.564 47.1007L214.822 55.583L207.494 64.5549L199.011 54.916C198.966 53.6243 198.942 52.2517 198.942 50.8175C198.942 47.0506 199.104 42.875 199.457 38.8112C200.003 38.8887 200.555 38.9287 201.107 38.9307C202.5 38.96 203.878 38.6592 205.118 38.0555Z" fill="white"/>
<path d="M216.057 53.2519L215.89 55.2594C215.879 55.3702 215.838 55.4758 215.77 55.5647L208.472 64.7969C208.376 64.9158 208.237 64.9937 208.084 65.0145L207.56 65.0717C207.464 65.0827 207.368 65.07 207.279 65.0346C207.19 64.9993 207.112 64.9425 207.051 64.8695L198.581 54.9045C198.499 54.8063 198.452 54.6841 198.449 54.5572C198.449 54.0954 198.417 53.6183 198.406 53.1374C198.406 52.7558 198.406 52.3741 198.406 51.9925C198.406 51.4314 198.406 50.8475 198.406 50.2788C198.406 46.4623 198.565 42.2641 198.915 38.1613C199.298 38.2599 199.687 38.3376 200.08 38.3941C199.742 42.4168 199.586 46.5501 199.586 50.2788C199.586 51.6986 199.61 53.0573 199.652 54.3358L207.777 63.8772L214.795 54.9961L215.506 46.5997C215.518 46.4573 215.585 46.3246 215.692 46.2279C215.799 46.1311 215.939 46.0772 216.084 46.0768H221.553C222.012 46.0816 222.467 45.9823 222.881 45.7868C223.66 45.3732 224.291 44.7352 224.691 43.9586C225.467 42.6305 225.984 40.7222 226.302 38.5392C226.62 36.195 226.769 33.8318 226.749 31.4671C226.749 28.9139 226.613 26.3835 226.446 24.1966C226.699 23.918 226.943 23.6394 227.165 23.357C227.285 23.2081 227.398 23.0593 227.51 22.9066C227.724 25.3607 227.899 28.391 227.899 31.4671C227.899 35.234 227.623 39.0658 226.733 42.0237C226.382 43.3708 225.738 44.6272 224.846 45.7066C224.438 46.1692 223.94 46.5469 223.382 46.8172C222.809 47.0871 222.18 47.2255 221.545 47.2218H216.558L216.147 52.0879L216.057 53.2519Z" fill="black"/>
<path d="M222.279 26.0741C220.367 27.1116 218.205 27.6426 216.012 27.6134C215.308 27.6124 214.605 27.5674 213.907 27.4787C213.788 27.4632 213.668 27.4828 213.561 27.535C213.454 27.5873 213.366 27.6696 213.309 27.7712C212.799 28.7213 212.459 29.7479 212.304 30.8075C212.125 31.8234 212.037 32.8047 211.906 33.5744C211.852 33.9848 211.737 34.3854 211.563 34.7635C211.51 34.8725 211.434 34.9696 211.34 35.0483C211.245 35.1115 211.132 35.1427 211.017 35.1368H210.857C210.792 35.1291 210.729 35.1109 210.67 35.0829L210.606 35.029C210.546 34.9096 210.519 34.7767 210.53 34.6442C210.559 34.1607 210.638 33.6811 210.766 33.2126C210.911 32.6491 210.998 32.0728 211.025 31.4925C211.029 31.2313 210.989 30.9713 210.905 30.7228C210.815 30.4507 210.648 30.2081 210.423 30.0224C210.262 29.8901 210.077 29.7882 209.877 29.7223C209.584 29.6279 209.276 29.5823 208.968 29.5876H208.764C208.39 29.601 208.021 29.6739 207.672 29.8031C207.363 29.9227 207.082 30.1021 206.847 30.3303C206.425 30.7686 206.137 31.3105 206.014 31.8965C205.92 32.2772 205.848 32.6626 205.798 33.051C205.731 33.5744 205.679 34.1016 205.591 34.5903C205.52 35.1645 205.321 35.7171 205.009 36.2104C204.84 36.4469 204.618 36.643 204.359 36.7838C203.321 37.2751 202.174 37.5142 201.018 37.4804C199.854 37.4836 198.698 37.2801 197.61 36.88C196.52 36.4883 195.557 35.8243 194.819 34.9559C194.326 34.3541 193.965 33.6614 193.759 32.9202C194.397 29.8416 195.206 28.1329 195.852 27.2401C196.498 26.3473 196.972 26.2357 197 26.2242C197.159 26.2242 197.311 26.1634 197.423 26.0551C197.535 25.9469 197.598 25.8001 197.598 25.647C197.598 25.4939 197.535 25.347 197.423 25.2388C197.311 25.1305 197.159 25.0697 197 25.0697H196.908C196.829 25.0505 196.705 25.0274 196.545 24.9851C196.117 24.8637 195.702 24.7026 195.306 24.504C193.99 23.8431 192.941 22.7754 192.328 21.4716C191.7 20.1014 191.396 18.6132 191.439 17.1154C191.441 16.4956 191.478 15.8764 191.55 15.2605C191.641 14.2411 191.93 13.2475 192.403 12.332C192.765 11.6509 193.285 11.0596 193.922 10.6041C195.153 9.81882 196.611 9.432 198.084 9.49967C199.756 9.53183 201.412 9.82421 202.988 10.3655C203.081 10.3974 203.18 10.4066 203.278 10.3923C203.376 10.378 203.468 10.3406 203.547 10.2834C203.626 10.2263 203.689 10.1512 203.73 10.0648C203.772 9.97837 203.791 9.88339 203.785 9.78829V9.76905C203.787 9.73957 203.787 9.71002 203.785 9.68054C203.785 9.60358 203.785 9.48813 203.785 9.3419C203.792 8.2902 203.926 7.24287 204.184 6.22096C204.474 4.85438 205.15 3.59187 206.137 2.57281C206.903 1.84921 207.874 1.36164 208.928 1.17205C209.361 1.08649 209.801 1.04266 210.243 1.0412C211.166 1.03989 212.077 1.24678 212.902 1.64538C213.693 2.0308 214.398 2.56304 214.975 3.21162C216.086 4.4187 216.724 5.96221 216.781 7.57555C216.795 8.19362 216.652 8.80552 216.363 9.35729C216.295 9.48003 216.276 9.62223 216.308 9.75775C216.34 9.89327 216.422 10.013 216.538 10.0949C216.655 10.1768 216.798 10.2155 216.941 10.2037C217.085 10.1919 217.219 10.1305 217.319 10.0307C217.946 9.38661 218.694 8.86412 219.524 8.49143C220.207 8.18955 220.949 8.03336 221.701 8.03349C223.258 8.08871 224.751 8.65164 225.934 9.63051C227.196 10.6192 228.201 11.8791 228.869 13.3094C229.264 14.1345 229.481 15.0289 229.506 15.9378C229.519 16.4892 229.394 17.0354 229.144 17.531L229.1 17.631V17.6734C229.1 17.7119 229.068 17.7734 229.04 17.8504C228.984 18.0082 228.896 18.2352 228.777 18.5238C228.447 19.3009 228.061 20.0545 227.621 20.7789C226.348 22.9631 224.507 24.7885 222.279 26.0741Z" fill="black"/>
<path d="M226.882 24.8512C225.828 26.0179 224.588 27.0097 223.211 27.7881C221.104 28.9524 218.721 29.5505 216.302 29.5219C215.687 29.5187 215.073 29.4833 214.462 29.4158C214.166 30.0587 213.952 30.7347 213.824 31.4287C213.566 32.6947 213.494 34.0078 213.261 35.0772C213.172 35.5895 212.975 36.0781 212.683 36.5122C212.526 36.7251 212.321 36.8999 212.084 37.0233C211.834 37.1443 211.56 37.2075 211.281 37.2081C211.171 37.2079 211.061 37.2 210.952 37.1845C210.733 37.1572 210.521 37.0892 210.329 36.984C210.056 36.8293 209.844 36.5899 209.726 36.3038C209.63 36.0526 209.582 35.7859 209.586 35.5175C209.614 34.939 209.702 34.3647 209.847 33.8033C209.978 33.3106 210.058 32.8061 210.084 32.2976C210.088 32.1652 210.073 32.0329 210.04 31.9044C210.017 31.7969 209.952 31.7023 209.859 31.641C209.661 31.5404 209.439 31.4955 209.216 31.5113H209.068C208.761 31.5149 208.459 31.5904 208.188 31.7314C208.014 31.8276 207.866 31.9622 207.754 32.1246C207.518 32.5227 207.364 32.9621 207.3 33.4181C207.152 34.2397 207.108 35.2384 206.879 36.1976C206.77 36.689 206.581 37.1602 206.32 37.5933C206.036 38.0539 205.635 38.4345 205.155 38.6981C203.93 39.3017 202.571 39.5988 201.199 39.563C200.652 39.561 200.105 39.5202 199.564 39.4412C199.158 39.383 198.756 39.3029 198.359 39.2013C197.562 38.9993 196.796 38.6939 196.082 38.2932C195.28 37.8481 194.569 37.2616 193.985 36.5633C193.358 35.7848 192.905 34.886 192.655 33.9252C192.637 33.8396 192.637 33.7513 192.655 33.6657C193.394 29.9701 194.366 28.0201 195.226 26.9546C195.35 26.8042 195.484 26.6623 195.628 26.53C193.747 25.8039 192.225 24.3956 191.378 22.5985C190.669 21.0413 190.323 19.3491 190.366 17.6447C190.367 16.9696 190.406 16.2949 190.482 15.6239C190.583 14.4284 190.914 13.2623 191.458 12.1878C192.115 10.9337 193.189 9.93647 194.503 9.36099C195.683 8.86722 196.956 8.62337 198.239 8.64545C199.782 8.66762 201.314 8.90322 202.79 9.34526C202.817 7.76416 203.12 6.19925 203.685 4.71785C204.089 3.671 204.713 2.71873 205.517 1.92253C206.445 1.02194 207.625 0.409293 208.907 0.161199C209.422 0.0547268 209.947 0.000708194 210.474 6.2376e-06C211.589 -0.00144866 212.689 0.251626 213.687 0.739135C215.083 1.43909 216.25 2.5101 217.053 3.82932C217.828 5.04025 218.253 6.43439 218.282 7.86308C218.282 8.02034 218.282 8.17367 218.258 8.327C218.604 8.09934 218.97 7.90075 219.351 7.73334C220.195 7.35802 221.111 7.16365 222.038 7.16326C223.259 7.17945 224.457 7.48859 225.528 8.06358C227.144 8.94112 228.512 10.1975 229.509 11.7199C230.489 13.1121 231.047 14.7481 231.116 16.4378C231.125 17.1594 230.966 17.8736 230.65 18.5254C230.036 20.3223 229.14 22.0148 227.995 23.542C227.878 23.6993 227.762 23.8526 227.637 24.006C227.384 24.2772 227.143 24.5642 226.882 24.8512ZM229.147 19.0719C229.268 18.777 229.356 18.5451 229.412 18.3839C229.441 18.3052 229.461 18.2423 229.473 18.203V18.1598L229.517 18.0575C229.769 17.5512 229.895 16.9932 229.882 16.4299C229.857 15.5013 229.639 14.5875 229.24 13.7447C228.567 12.2833 227.555 10.9962 226.283 9.9861C225.091 8.98605 223.587 8.41094 222.018 8.35452C221.261 8.35438 220.513 8.51396 219.825 8.82237C218.988 9.20313 218.234 9.73693 217.603 10.395C217.502 10.4969 217.367 10.5596 217.222 10.5717C217.078 10.5837 216.933 10.5443 216.816 10.4606C216.699 10.3769 216.616 10.2545 216.584 10.1161C216.551 9.97765 216.571 9.83237 216.639 9.70697C216.94 9.1376 217.09 8.5038 217.077 7.86308C217.018 6.20688 216.367 4.62352 215.237 3.38899C214.655 2.72637 213.946 2.18261 213.149 1.78885C212.316 1.38435 211.399 1.17568 210.47 1.17947C210.024 1.18096 209.58 1.22573 209.144 1.31314C208.083 1.50684 207.104 2.00496 206.332 2.74422C205.335 3.78067 204.65 5.0663 204.352 6.45952C204.093 7.50355 203.958 8.57353 203.95 9.64799C203.95 9.79739 203.95 9.91534 203.95 9.99397C203.952 10.0241 203.952 10.0543 203.95 10.0844V10.1041C203.956 10.2012 203.937 10.2982 203.895 10.3865C203.853 10.4748 203.79 10.5515 203.71 10.6099C203.631 10.6683 203.538 10.7065 203.44 10.7212C203.341 10.7358 203.241 10.7264 203.147 10.6938C201.569 10.1508 199.911 9.85874 198.239 9.82884C196.754 9.7597 195.285 10.1549 194.045 10.9572C193.402 11.4221 192.877 12.0262 192.511 12.7225C192.037 13.6622 191.749 14.6815 191.663 15.7261C191.59 16.3553 191.553 16.9879 191.551 17.6211C191.507 19.1468 191.81 20.663 192.438 22.0598C193.051 23.3713 194.089 24.448 195.391 25.1225C195.79 25.3254 196.208 25.4899 196.64 25.614C196.801 25.6572 196.925 25.6808 197.005 25.7005H197.098C197.258 25.7005 197.411 25.7626 197.524 25.8732C197.637 25.9838 197.7 26.1338 197.7 26.2902C197.7 26.4466 197.637 26.5966 197.524 26.7072C197.411 26.8178 197.258 26.8799 197.098 26.8799C197.07 26.8799 196.604 26.9861 195.941 27.9178C195.278 28.8496 194.475 30.5598 193.832 33.7208C194.04 34.478 194.404 35.1858 194.901 35.8006C195.644 36.6878 196.614 37.3661 197.712 37.7663C198.809 38.1751 199.973 38.383 201.147 38.3797C202.311 38.4143 203.467 38.17 204.513 37.668C204.774 37.5242 204.998 37.3238 205.167 37.0822C205.482 36.5783 205.682 36.0137 205.754 35.4271C205.842 34.9317 205.895 34.3931 205.963 33.8545C206.013 33.4576 206.085 33.0639 206.18 32.675C206.304 32.0763 206.595 31.5226 207.019 31.0749C207.256 30.8417 207.539 30.6584 207.851 30.5362C208.203 30.4042 208.575 30.3298 208.951 30.3161H209.156C209.467 30.3107 209.777 30.3572 210.072 30.4537C210.273 30.5211 210.46 30.6251 210.622 30.7603C210.849 30.9501 211.017 31.1978 211.108 31.4759C211.192 31.7297 211.233 31.9954 211.229 32.2622C211.202 32.8551 211.115 33.4438 210.968 34.0196C210.839 34.4982 210.76 34.9881 210.731 35.4821C210.72 35.6175 210.746 35.7533 210.807 35.8753L210.871 35.9303C210.931 35.9589 210.994 35.9775 211.06 35.9853H211.221C211.336 35.9914 211.451 35.9596 211.546 35.8949C211.641 35.8145 211.718 35.7154 211.771 35.604C211.946 35.2177 212.063 34.8084 212.116 34.3891C212.253 33.6028 212.341 32.6003 212.518 31.5624C212.674 30.4799 213.016 29.4311 213.53 28.4604C213.588 28.3566 213.676 28.2725 213.784 28.2191C213.892 28.1657 214.013 28.1457 214.133 28.1616C214.836 28.2522 215.544 28.2982 216.254 28.2992C218.463 28.3291 220.642 27.7865 222.568 26.7266C224.804 25.4175 226.653 23.5612 227.934 21.3404C228.393 20.6131 228.798 19.855 229.147 19.0719Z" fill="black"/>
<path d="M187.05 125.463C185.122 125.483 183.195 125.366 181.287 125.113C179.762 124.937 178.286 124.499 176.934 123.822C176.264 123.471 175.705 122.964 175.313 122.349C174.697 121.262 174.286 120.086 174.097 118.87C173.846 117.425 173.727 115.962 173.74 114.498C173.74 108.767 175.195 102.625 175.361 101.899V101.827C175.398 101.682 175.371 101.529 175.287 101.402C175.202 101.275 175.068 101.184 174.911 101.149H174.867L182.433 57.4839L182.64 57.4124C183.326 57.1613 184.044 56.9391 184.792 56.7458L182.993 71.8909C182.984 71.9694 182.992 72.0488 183.018 72.1241C183.044 72.1993 183.086 72.2687 183.143 72.3277L189.806 79.3392L186.454 90.5794C186.428 90.6641 186.424 90.7532 186.443 90.8396C186.461 90.9259 186.501 91.007 186.559 91.0764L186.632 91.163L186.839 91.4153C187.021 91.6412 187.289 91.9689 187.617 92.3868C188.274 93.219 189.186 94.4089 190.199 95.8285C192.225 98.6715 194.681 102.433 196.339 106.093C197.449 108.53 198.199 110.921 198.264 112.92C198.268 113.045 198.318 113.165 198.406 113.259C198.406 117.093 198.333 120.99 198.256 124.906L195.22 125.113C192.655 125.286 189.798 125.463 187.05 125.463Z" fill="white"/>
<path d="M193.273 98.5504C191.487 95.8462 189.553 93.2272 187.479 90.7034L190.91 79.2935C190.937 79.2019 190.94 79.1055 190.917 79.0129C190.893 78.9203 190.846 78.8345 190.778 78.7632L183.928 71.6143L185.79 56.0767C187.542 55.6768 189.32 55.3787 191.113 55.1841C191.15 55.2909 191.191 55.4168 191.241 55.5656C191.423 56.1111 191.688 56.9198 192.007 57.9689C192.644 60.0632 193.497 63.1188 194.374 66.945C196.68 77.0345 197.98 87.2969 198.261 97.6044C198.348 101.064 198.393 104.643 198.406 108.286C198.13 107.508 197.808 106.723 197.441 105.932C196.243 103.384 194.851 100.917 193.273 98.5504Z" fill="white"/>
<path d="M194.956 195.729C194.516 201.499 194.162 205.65 193.94 207.439C187.119 209.74 179.94 210.892 172.717 210.843C165.061 210.85 157.448 209.72 150.145 207.493C151.288 203.242 159.274 173.294 164.513 145.604C165.431 145.999 166.372 146.342 167.331 146.631C170.56 147.566 173.916 148.022 177.286 147.985C184.736 147.985 192.218 146.096 197.87 144.207C197.108 164.584 195.865 183.727 194.956 195.729ZM174.873 174.59C172.372 174.102 169.883 173.228 168.125 171.782C168.066 171.731 167.997 171.693 167.922 171.668C167.847 171.643 167.768 171.633 167.689 171.638C167.61 171.643 167.533 171.663 167.462 171.697C167.391 171.731 167.328 171.778 167.276 171.836C167.224 171.893 167.184 171.96 167.158 172.033C167.133 172.105 167.122 172.182 167.128 172.259C167.133 172.335 167.153 172.41 167.188 172.478C167.223 172.547 167.272 172.609 167.331 172.659C169.316 174.302 171.987 175.206 174.603 175.737C176.906 176.163 179.247 176.372 181.592 176.36C183.093 176.36 184.065 176.283 184.077 176.279C184.155 176.272 184.231 176.251 184.301 176.216C184.371 176.181 184.432 176.133 184.483 176.075C184.533 176.016 184.571 175.949 184.595 175.877C184.619 175.804 184.627 175.728 184.621 175.652C184.614 175.576 184.592 175.502 184.556 175.435C184.519 175.367 184.47 175.307 184.41 175.259C184.35 175.21 184.28 175.173 184.206 175.15C184.131 175.127 184.052 175.118 183.974 175.125H183.958H183.835C183.724 175.125 183.561 175.144 183.355 175.152C182.958 175.171 182.342 175.19 181.612 175.19C179.351 175.202 177.094 175.001 174.873 174.59Z" fill="white"/>
<path d="M182.319 55.7047C181.03 56.306 179.776 57.0015 178.565 57.7871C179.759 56.9646 181.016 56.2676 182.319 55.7047Z" fill="black"/>
<path d="M185.113 54.8909L185.007 56.2073C184.189 56.5305 183.408 56.8835 182.663 57.2665L182.76 57.2127C182.926 57.1333 183.061 56.968 183.137 56.7531C183.213 56.5382 183.223 56.2913 183.164 56.0667C183.106 55.8422 182.984 55.6583 182.825 55.5556C182.667 55.4529 182.484 55.4398 182.319 55.5192C183.334 55.0086 184.406 54.5498 185.536 54.1429C185.422 54.2026 185.321 54.304 185.247 54.436C185.172 54.568 185.126 54.7254 185.113 54.8909Z" fill="black"/>
<path d="M192.298 54.0052C192.298 54.0052 192.369 54.2146 192.495 54.6029C193.587 57.9455 198.822 74.9971 199.336 97.1196C199.435 101.307 199.478 105.621 199.478 110.063C199.478 114.91 199.427 119.874 199.328 124.873L198.142 124.945C198.217 120.986 198.268 117.046 198.288 113.17C198.344 113.239 198.417 113.293 198.499 113.33C198.582 113.366 198.672 113.383 198.763 113.379C198.92 113.373 199.068 113.308 199.175 113.198C199.282 113.087 199.34 112.94 199.336 112.789C199.231 111.1 198.879 109.434 198.288 107.84C198.288 104.193 198.233 100.607 198.15 97.1805C197.882 86.894 196.639 76.6525 194.437 66.5836C193.599 62.7766 192.784 59.731 192.175 57.6257C191.871 56.5788 191.618 55.7717 191.444 55.2273C191.396 55.0788 191.357 54.9532 191.321 54.8466C189.608 55.0407 187.91 55.3383 186.236 55.7374L186.284 55.3567C186.294 55.2641 186.281 55.1703 186.246 55.0837C186.21 54.9971 186.153 54.9203 186.079 54.8601C186.005 54.7998 185.917 54.7581 185.822 54.7385C185.728 54.7188 185.629 54.722 185.536 54.7476C187.541 54.2299 189.583 53.8545 191.645 53.6245H191.685C191.816 53.6132 191.948 53.6445 192.059 53.7135C192.17 53.7824 192.254 53.8851 192.298 54.0052Z" fill="black"/>
<path d="M164.284 145.499C159.026 173.193 151.022 203.13 149.876 207.38C157.199 209.608 164.833 210.737 172.51 210.73C179.753 210.779 186.951 209.628 193.792 207.326C193.999 205.538 194.369 201.407 194.811 195.618C195.734 183.617 196.968 164.462 197.732 144.102L197.832 144.071L198.942 143.687C198.878 145.482 198.809 147.256 198.735 149.01L198.687 150.164C198.361 157.857 197.975 165.292 197.577 172.12C197.044 181.351 196.478 189.483 196.005 195.702C195.531 201.922 195.137 206.226 194.934 207.823C194.92 207.929 194.875 208.03 194.804 208.114C194.734 208.197 194.641 208.26 194.536 208.296C187.462 210.721 180.004 211.936 172.499 211.884C168.71 211.88 164.927 211.607 161.179 211.069L159.985 210.892C156.227 210.338 152.527 209.469 148.925 208.296C148.787 208.245 148.673 208.146 148.604 208.019C148.536 207.892 148.518 207.746 148.554 207.607C148.554 207.607 148.63 207.334 148.769 206.811C149.82 202.911 154.552 185.125 159.022 164.942C160.471 158.403 161.888 151.626 163.145 144.979C163.539 145.16 163.914 145.333 164.284 145.499Z" fill="black"/>
<path d="M230.271 131.361C230.862 130.795 231.329 130.121 231.646 129.378C231.963 128.636 232.124 127.84 232.117 127.037C232.056 125.434 231.593 123.869 230.768 122.475C230.284 121.608 229.718 120.786 229.077 120.018C229.046 119.984 229.026 119.953 229.022 119.949C228.76 119.615 228.413 119.351 228.015 119.183C227.629 119.024 227.213 118.945 226.793 118.953C226.081 118.972 225.378 119.112 224.716 119.367C223.962 119.64 223.231 119.968 222.528 120.348C221.056 121.115 219.58 122.08 218.334 122.828C217.679 123.245 216.991 123.611 216.277 123.924C215.959 124.047 215.704 124.131 215.513 124.185H215.473C215.517 124.051 215.577 123.886 215.644 123.702C215.838 123.204 215.988 122.691 216.094 122.169C216.131 121.956 216.15 121.74 216.15 121.525C216.144 120.938 216.04 120.357 215.839 119.804C215.654 119.234 215.31 118.725 214.845 118.332C214.738 118.25 214.624 118.18 214.502 118.121C214.502 118.067 214.502 118.01 214.502 117.952C214.593 117.072 214.801 116.208 215.123 115.38C215.519 114.33 215.986 113.305 216.52 112.313C217.769 110.02 219.163 107.803 220.694 105.674C223.758 101.342 226.949 97.605 227.649 96.7885L227.792 96.6275C227.851 96.5606 227.893 96.4816 227.915 96.3965C227.937 96.3114 227.939 96.2226 227.92 96.1369L225.086 83.234L230.578 79.8109C230.668 79.7545 230.741 79.6755 230.789 79.5824C230.836 79.4893 230.857 79.3854 230.848 79.2819L229.205 59.3489C230.606 60.4527 231.907 61.6683 233.096 62.9828L233.136 63.0173V63.0365L233.2 63.094L233.438 63.3202C233.645 63.5233 233.948 63.8185 234.318 64.198C235.062 64.9646 236.084 66.0495 237.191 67.3758C239.407 70.0322 241.965 73.6278 243.326 77.3423C243.37 77.4579 243.45 77.5572 243.556 77.6261C243.662 77.6949 243.787 77.7298 243.915 77.7256L243.951 78.6418L245.089 105.233C244.931 105.241 244.783 105.309 244.677 105.422C244.572 105.535 244.516 105.683 244.524 105.835C245.32 120.402 245.594 137.778 245.594 154.092C245.594 179.61 244.958 202.499 244.798 207.819C244.798 208.164 244.798 208.433 244.775 208.628C244.599 208.701 244.377 208.805 244.046 208.923C243.073 209.303 242.079 209.635 241.07 209.916C237.71 210.868 234.227 211.356 230.725 211.365C223.911 211.383 217.253 209.404 211.633 205.692C211.391 200.214 211.275 194.361 211.275 188.254C211.275 172.155 212.047 154.338 213.153 137.076C215.895 136.421 219.337 135.597 223.586 134.573C226.786 133.795 228.93 132.687 230.271 131.361ZM223.698 176.237C224.392 176.425 225.104 176.547 225.823 176.601C226.618 176.674 227.442 176.701 228.286 176.701C230.578 176.678 232.867 176.529 235.141 176.256C235.22 176.246 235.295 176.222 235.364 176.184C235.432 176.146 235.492 176.095 235.541 176.035C235.589 175.975 235.624 175.906 235.645 175.832C235.666 175.759 235.671 175.682 235.661 175.607C235.65 175.531 235.625 175.458 235.586 175.392C235.546 175.326 235.494 175.268 235.431 175.222C235.368 175.175 235.297 175.141 235.221 175.121C235.144 175.102 235.065 175.096 234.986 175.106H234.835L234.405 175.156C234.031 175.198 233.498 175.252 232.865 175.306C231.596 175.417 229.913 175.524 228.282 175.524C227.486 175.524 226.662 175.497 225.93 175.432C225.29 175.382 224.655 175.275 224.036 175.11C223.96 175.084 223.879 175.073 223.798 175.078C223.717 175.083 223.638 175.104 223.566 175.139C223.494 175.174 223.43 175.223 223.378 175.283C223.326 175.343 223.287 175.412 223.264 175.487C223.241 175.561 223.234 175.64 223.243 175.717C223.252 175.795 223.278 175.87 223.318 175.937C223.358 176.005 223.412 176.064 223.477 176.111C223.541 176.158 223.615 176.192 223.694 176.21L223.698 176.237Z" fill="white"/>
<path d="M229.507 79.2299L223.861 82.6666C223.758 82.7301 223.678 82.8213 223.631 82.9282C223.584 83.0351 223.572 83.1529 223.597 83.2662L226.512 96.2495C225.493 97.395 220.577 103.05 216.928 108.725C216.035 110.097 215.222 111.515 214.493 112.971C216.928 83.8733 219.749 60.2017 220.334 55.4247C220.334 55.3368 220.334 55.2605 220.362 55.1841L220.841 55.3177C221.881 55.6251 222.893 56.0081 223.869 56.4633C225.235 57.1045 226.541 57.8517 227.774 58.6972L229.507 79.2299Z" fill="white"/>
<path d="M236.984 211.823C234.816 212.209 232.618 212.404 230.415 212.406C223.409 212.421 216.568 210.325 210.823 206.404C210.748 206.355 210.686 206.288 210.642 206.211C210.598 206.133 210.573 206.047 210.569 205.958C210.316 200.406 210.203 194.469 210.203 188.272C210.203 176.451 210.616 163.661 211.268 150.875C211.268 150.494 211.307 150.112 211.33 149.731C211.537 145.693 211.771 141.658 212.024 137.65L213.195 137.361C212.145 154.52 211.365 172.264 211.365 188.272C211.365 194.347 211.478 200.17 211.716 205.619C217.218 209.307 223.736 211.275 230.407 211.263C233.841 211.254 237.255 210.768 240.549 209.821C241.538 209.541 242.512 209.211 243.466 208.833C243.774 208.715 244.008 208.612 244.18 208.54C244.18 208.345 244.18 208.078 244.204 207.735C244.36 202.442 244.984 179.673 244.984 154.288C244.984 138.058 244.73 120.761 243.934 106.282C243.927 106.131 243.981 105.983 244.085 105.871C244.189 105.759 244.334 105.691 244.488 105.683C244.642 105.676 244.792 105.729 244.906 105.829C245.02 105.93 245.089 106.071 245.097 106.221C245.592 115.304 245.877 125.486 246.025 135.812C246.025 136.194 246.025 136.575 246.025 136.956C246.099 142.756 246.13 148.587 246.13 154.288C246.13 183.319 245.315 208.921 245.315 208.925C245.312 209.028 245.28 209.129 245.223 209.216C245.166 209.304 245.086 209.374 244.991 209.421C242.785 210.403 240.472 211.135 238.095 211.602C237.768 211.678 237.382 211.754 236.984 211.823Z" fill="black"/>
<path d="M243.573 77.8071C243.517 77.8248 243.46 77.8351 243.401 77.8379C243.276 77.842 243.153 77.8071 243.05 77.738C242.946 77.6689 242.867 77.5693 242.825 77.4533C241.488 73.7309 238.987 70.1238 236.817 67.455C235.734 66.1245 234.732 65.0285 234.004 64.2671C233.641 63.8825 233.345 63.5903 233.143 63.3865L232.909 63.1596L232.847 63.1019V63.0827L232.808 63.048C231.644 61.7293 230.369 60.5098 228.997 59.4025L228.904 58.2489C228.898 58.1731 228.876 58.0993 228.841 58.0316C228.806 57.964 228.758 57.9038 228.699 57.8545C228.641 57.8052 228.573 57.7678 228.5 57.7444C228.426 57.721 228.349 57.7121 228.272 57.7182C228.196 57.7242 228.121 57.7452 228.052 57.7798C227.984 57.8143 227.923 57.8619 227.873 57.9198C227.823 57.9776 227.785 58.0446 227.761 58.1169C227.738 58.1892 227.729 58.2654 227.735 58.3412V58.4488C226.551 57.5974 225.297 56.8449 223.987 56.1992C223.05 55.7408 222.078 55.3551 221.08 55.0456L220.62 54.911C220.62 54.9879 220.62 55.0648 220.593 55.1532C220.032 59.964 217.316 83.8022 214.987 113.105C214.675 113.763 214.398 114.405 214.168 115.028C213.782 116.016 213.53 117.05 213.42 118.104C213.42 118.131 213.42 118.154 213.42 118.177C215.914 85.4904 219.039 58.4104 219.487 54.5841C219.522 54.2803 219.541 54.1188 219.541 54.1188C219.563 53.9656 219.646 53.8273 219.771 53.7342C219.836 53.6884 219.909 53.6556 219.986 53.6378C220.064 53.62 220.144 53.6175 220.223 53.6304H220.27C221.742 53.9681 223.166 54.4848 224.509 55.1686C226.894 56.3514 229.1 57.8581 231.062 59.6448C231.841 60.3408 232.621 61.1099 233.4 61.9521L233.532 62.0982L233.673 62.2482C233.805 62.3789 235.075 63.5903 236.723 65.4976C237.051 65.8822 237.393 66.286 237.748 66.7205C239.961 69.4354 242.525 73.1156 243.939 77.0303C243.971 77.1046 243.987 77.1848 243.985 77.2655C243.984 77.3463 243.965 77.4259 243.931 77.4991C243.896 77.5723 243.847 77.6376 243.785 77.6906C243.723 77.7437 243.651 77.7834 243.573 77.8071Z" fill="black"/>
<path d="M211.452 121.053C211.81 120.484 212.23 119.953 212.706 119.467C212.97 119.186 213.288 118.954 213.644 118.786C213.772 118.731 213.909 118.701 214.05 118.698C214.218 118.699 214.381 118.758 214.508 118.862C214.697 119.017 214.85 119.206 214.959 119.418C215.229 119.962 215.367 120.555 215.365 121.156C215.365 121.305 215.351 121.453 215.324 121.6C215.256 121.951 215.159 122.297 215.036 122.634C214.918 122.963 214.796 123.266 214.707 123.553C214.639 123.742 214.602 123.939 214.598 124.139C214.593 124.308 214.638 124.475 214.727 124.621C214.839 124.793 215.014 124.92 215.219 124.977C215.332 125.009 215.449 125.024 215.568 125.023C215.805 125.017 216.04 124.98 216.266 124.912C216.57 124.829 216.87 124.731 217.163 124.617C217.737 124.38 218.293 124.105 218.827 123.794C219.435 123.445 220.105 123.028 220.803 122.618C222.166 121.757 223.593 120.99 225.073 120.321C225.812 119.976 226.616 119.773 227.439 119.724C227.697 119.718 227.954 119.762 228.194 119.854C228.412 119.944 228.601 120.087 228.742 120.268L228.819 120.36L228.937 120.497C229.03 120.608 229.152 120.762 229.294 120.945C229.654 121.415 229.986 121.903 230.288 122.408C230.994 123.595 231.656 125.138 231.652 126.65C231.66 127.304 231.528 127.953 231.263 128.558C230.999 129.162 230.608 129.71 230.114 130.169C228.969 131.283 227.017 132.321 223.876 133.063C215.726 134.978 210.482 136.211 207.434 136.919C207.434 136.777 207.434 136.636 207.406 136.49C207.281 134.456 207.01 132.432 206.594 130.433C206.345 129.171 205.913 127.949 205.307 126.8C205.17 126.561 205.014 126.331 204.841 126.114L204.934 126.084C207.645 125.147 209.942 123.374 211.452 121.053Z" fill="white"/>
<path d="M206.853 136.841C209.879 136.158 215.119 134.976 223.243 133.122C226.374 132.406 228.32 131.405 229.461 130.331C229.954 129.888 230.344 129.36 230.607 128.776C230.871 128.193 231.002 127.568 230.995 126.937C230.995 125.478 230.339 123.982 229.635 122.845C229.334 122.358 229.003 121.887 228.644 121.434C228.502 121.257 228.381 121.109 228.288 121.002L228.171 120.869L228.094 120.781C227.953 120.607 227.765 120.469 227.548 120.382C227.309 120.293 227.053 120.251 226.795 120.256C225.975 120.304 225.173 120.5 224.436 120.832C222.961 121.477 221.539 122.218 220.18 123.048C219.484 123.454 218.817 123.846 218.21 124.182C217.678 124.482 217.123 124.747 216.551 124.976C216.259 125.085 215.96 125.18 215.657 125.26C215.431 125.325 215.197 125.361 214.961 125.367C214.843 125.368 214.726 125.354 214.613 125.323C214.409 125.268 214.234 125.145 214.123 124.98C214.034 124.838 213.989 124.677 213.994 124.514C213.999 124.322 214.035 124.131 214.103 123.949C214.192 123.672 214.313 123.381 214.431 123.063C214.554 122.738 214.65 122.404 214.718 122.066C214.745 121.924 214.759 121.781 214.759 121.637C214.761 121.058 214.623 120.486 214.354 119.961C214.246 119.756 214.093 119.574 213.905 119.425C213.777 119.316 213.61 119.255 213.436 119.252C213.296 119.255 213.158 119.284 213.031 119.337C212.676 119.499 212.359 119.722 212.096 119.994C211.622 120.462 211.203 120.975 210.846 121.523C209.344 123.766 207.056 125.48 204.353 126.387L204.259 126.416C204.052 126.158 203.806 125.928 203.527 125.733C203.434 125.67 203.333 125.615 203.232 125.559C203.483 125.489 203.746 125.412 204.017 125.316C206.422 124.485 208.455 122.946 209.794 120.943C210.288 120.161 210.912 119.454 211.643 118.846C211.908 118.635 212.205 118.461 212.525 118.329C212.703 118.256 212.891 118.205 213.084 118.177C213.09 118.304 213.144 118.426 213.237 118.521C213.331 118.615 213.457 118.678 213.595 118.697C213.733 118.716 213.874 118.691 213.994 118.626C214.114 118.561 214.205 118.459 214.253 118.34H214.277C214.4 118.396 214.517 118.464 214.625 118.543C215.098 118.922 215.448 119.412 215.636 119.961C215.84 120.494 215.947 121.054 215.952 121.619C215.952 121.827 215.933 122.034 215.895 122.239C215.788 122.742 215.635 123.236 215.438 123.717C215.369 123.894 215.309 124.053 215.264 124.182H215.305C215.499 124.13 215.758 124.049 216.082 123.931C216.808 123.629 217.507 123.276 218.173 122.875C219.44 122.154 220.941 121.235 222.438 120.485C223.152 120.119 223.896 119.803 224.663 119.54C225.336 119.295 226.051 119.16 226.775 119.141C227.201 119.134 227.625 119.21 228.017 119.363C228.422 119.525 228.774 119.779 229.04 120.101C229.04 120.101 229.065 120.134 229.097 120.168C229.748 120.907 230.324 121.699 230.817 122.535C231.656 123.877 232.126 125.385 232.188 126.929C232.194 127.703 232.032 128.47 231.709 129.185C231.387 129.9 230.912 130.549 230.311 131.095C228.947 132.373 226.787 133.44 223.514 134.19C219.193 135.176 215.693 135.97 212.906 136.601L211.692 136.882L206.918 137.96C206.901 137.635 206.881 137.258 206.853 136.841Z" fill="black"/>
<path d="M175.31 101.182C175.161 101.158 175.008 101.188 174.883 101.268C174.757 101.348 174.668 101.47 174.634 101.61C174.634 101.632 172.987 108.284 172.987 114.613C172.97 116.152 173.093 117.689 173.353 119.207C173.565 120.562 174.02 121.871 174.697 123.079C175.191 123.866 175.89 124.518 176.726 124.972C177.653 125.476 178.651 125.85 179.69 126.082C182.171 126.6 184.708 126.835 187.248 126.783C189.997 126.783 192.817 126.609 195.351 126.431C197.885 126.253 200.096 126.082 201.592 126.082C202.095 126.069 202.597 126.105 203.092 126.192C203.426 126.293 203.718 126.493 203.923 126.764C204.257 127.18 204.526 127.641 204.719 128.131C205.243 129.487 205.61 130.893 205.813 132.324C206.17 134.56 206.383 136.814 206.449 139.074L206.115 139.229C205.677 139.43 205.033 139.718 204.214 140.063C202.575 140.756 200.236 141.68 197.451 142.604C191.85 144.449 184.415 146.29 177.112 146.29C172.167 146.29 167.295 145.449 163.074 143.229C158.853 141.01 155.261 137.419 152.839 131.813C151.228 128.075 150.15 123.438 149.788 117.726C149.668 115.795 149.609 113.919 149.609 112.098C149.609 90.6327 157.74 77.0196 165.978 68.6827C173.508 61.0694 181.154 57.8839 182.761 57.2665L175.31 101.182Z" fill="white"/>
<path d="M183.73 56.0646C183.756 56.1355 183.768 56.2109 183.764 56.2862C183.76 56.3615 183.741 56.4353 183.707 56.5035C183.673 56.5716 183.626 56.6327 183.567 56.6833C183.509 56.7338 183.44 56.7728 183.366 56.7981L183.278 56.8324L183.074 56.905C181.476 57.5277 173.78 60.7253 166.215 68.4192C157.939 76.8237 149.775 90.5575 149.771 112.207C149.771 114.046 149.831 115.938 149.951 117.884C150.315 123.645 151.397 128.321 153.016 132.091C155.449 137.745 159.058 141.363 163.298 143.605C167.538 145.848 172.433 146.692 177.4 146.692C184.737 146.692 192.186 144.835 197.832 142.975C200.629 142.043 202.995 141.111 204.625 140.412C205.449 140.064 206.096 139.774 206.535 139.571L206.871 139.414C206.816 137.134 206.615 134.859 206.268 132.603C206.064 131.159 205.696 129.741 205.169 128.374C204.975 127.879 204.705 127.415 204.37 126.995C204.163 126.722 203.87 126.52 203.534 126.418C203.038 126.331 202.533 126.294 202.028 126.307C200.525 126.307 198.292 126.483 195.758 126.659C193.224 126.834 190.379 127.014 187.618 127.014C185.067 127.067 182.518 126.829 180.025 126.307C178.982 126.073 177.979 125.696 177.048 125.188C176.208 124.73 175.506 124.072 175.01 123.278C174.32 122.065 173.852 120.749 173.628 119.385C173.367 117.855 173.244 116.305 173.26 114.755C173.26 108.371 174.91 101.663 174.914 101.64C174.949 101.499 175.038 101.376 175.165 101.295C175.291 101.215 175.444 101.184 175.594 101.208H175.638C175.792 101.244 175.925 101.336 176.008 101.465C176.091 101.594 176.117 101.749 176.081 101.896V101.969C175.905 102.706 174.483 108.937 174.483 114.751C174.47 116.236 174.587 117.72 174.835 119.186C175.021 120.42 175.427 121.613 176.033 122.716C176.42 123.339 176.971 123.854 177.632 124.21C178.965 124.897 180.42 125.342 181.924 125.52C183.805 125.777 185.705 125.896 187.606 125.876C190.315 125.876 193.133 125.7 195.662 125.524L198.655 125.314L199.854 125.241C200.653 125.199 201.389 125.169 202.016 125.169C202.618 125.153 203.22 125.202 203.81 125.314C204.009 125.364 204.201 125.437 204.382 125.532C204.481 125.589 204.581 125.646 204.673 125.711C204.948 125.913 205.192 126.151 205.397 126.418C205.567 126.635 205.721 126.863 205.856 127.102C206.452 128.248 206.878 129.469 207.123 130.727C207.533 132.722 207.8 134.741 207.922 136.771C207.922 136.916 207.942 137.057 207.95 137.199C207.978 137.63 207.998 138.02 208.014 138.364C208.054 139.223 208.058 139.762 208.058 139.77C208.058 139.875 208.028 139.979 207.971 140.069C207.914 140.159 207.832 140.233 207.734 140.282C204.995 141.571 202.18 142.708 199.303 143.685L198.188 144.068L198.088 144.098C192.397 145.974 184.865 147.846 177.364 147.85C173.972 147.886 170.593 147.433 167.342 146.505C166.376 146.218 165.429 145.877 164.505 145.485C164.129 145.321 163.753 145.149 163.386 144.969C159.933 143.294 156.979 140.812 154.798 137.753C151.485 133.168 149.272 126.75 148.72 117.964C148.598 115.993 148.536 114.082 148.536 112.233C148.536 101.098 150.674 91.9862 153.895 84.5941C157.741 75.6232 163.993 67.7803 172.021 61.856C174.081 60.3385 176.256 58.9684 178.527 57.7569C179.879 57.0263 181.28 56.3794 182.719 55.8201L182.947 55.7398H182.967C183.113 55.6884 183.275 55.6935 183.417 55.7542C183.56 55.8148 183.672 55.9261 183.73 56.0646Z" fill="black"/>
<path d="M89.066 171.289C88.7428 171.616 88.3587 171.876 87.9357 172.053C87.5127 172.23 87.0592 172.321 86.6014 172.32C85.677 172.32 84.7905 171.949 84.1368 171.289C83.4832 170.628 83.1159 169.732 83.1159 168.798V143.687H90.0869V168.798C90.0877 169.261 89.998 169.719 89.8227 170.146C89.6475 170.574 89.3903 170.962 89.066 171.289Z" fill="white"/>
<path d="M83.1159 136.398H90.0869V139.522H83.1159V136.398Z" fill="white"/>
<path d="M86.6015 173.361C85.2504 173.361 83.9547 172.87 82.9994 171.997C82.044 171.123 81.5073 169.938 81.5073 168.702V143.687H82.7651V168.702C82.7651 169.633 83.1693 170.525 83.8888 171.183C84.6082 171.841 85.584 172.211 86.6015 172.211C87.6189 172.211 88.5947 171.841 89.3142 171.183C90.0336 170.525 90.4379 169.633 90.4379 168.702V143.687H91.6957V168.702C91.6957 169.938 91.1589 171.123 90.2036 171.997C89.2483 172.87 87.9525 173.361 86.6015 173.361Z" fill="black"/>
<path d="M90.087 136.398H91.6957V139.522H90.087V136.398Z" fill="black"/>
<path d="M81.5073 136.398H83.116V139.522H81.5073V136.398Z" fill="black"/>
<path d="M80.4348 129.11H92.2319V135.357H80.4348V129.11Z" fill="#2A6049"/>
<path d="M89.6216 136.398H78.9154C78.7495 136.398 78.5904 136.338 78.4731 136.229C78.3557 136.121 78.2898 135.974 78.2898 135.821V128.125C78.2909 127.972 78.3568 127.826 78.4734 127.717C78.5906 127.609 78.7496 127.548 78.9154 127.548H92.6787C92.8458 127.548 93.0063 127.609 93.125 127.717C93.239 127.827 93.3031 127.973 93.3043 128.125V135.821C93.3031 135.973 93.239 136.119 93.125 136.229C93.0063 136.338 92.8458 136.398 92.6787 136.398H89.6049H89.6216ZM92.0615 128.702H79.5494V135.244H92.0615V128.702Z" fill="black"/>
<path d="M63.3225 171.289C63 171.616 62.6164 171.876 62.1937 172.053C61.7711 172.23 61.3179 172.321 60.8604 172.32C60.4025 172.321 59.9489 172.23 59.5258 172.053C59.1027 171.876 58.7182 171.617 58.3946 171.289C58.071 170.962 57.8145 170.574 57.6398 170.146C57.4652 169.719 57.3758 169.261 57.3768 168.798V143.687H64.3478V168.798C64.3481 169.261 64.2577 169.719 64.0817 170.147C63.9058 170.574 63.6477 170.962 63.3225 171.289Z" fill="white"/>
<path d="M57.3768 136.398H64.3478V139.522H57.3768V136.398Z" fill="white"/>
<path d="M60.5942 173.361C59.8896 173.361 59.192 173.241 58.5411 173.007C57.8902 172.772 57.2989 172.429 56.8009 171.997C56.3029 171.564 55.908 171.05 55.6388 170.485C55.3696 169.92 55.2313 169.314 55.2319 168.702V143.687H56.557V168.702C56.5559 169.163 56.6595 169.62 56.8619 170.045C57.0643 170.471 57.3616 170.858 57.7366 171.184C58.1117 171.51 58.5572 171.769 59.0475 171.945C59.5379 172.121 60.0635 172.211 60.5942 172.211C61.6653 172.21 62.6922 171.84 63.4492 171.182C64.2062 170.524 64.6314 169.632 64.6314 168.702V143.687H65.9565V168.702C65.9565 169.937 65.3918 171.122 64.3862 171.995C63.3807 172.869 62.0168 173.36 60.5942 173.361Z" fill="black"/>
<path d="M64.3478 136.398H65.9565V139.522H64.3478V136.398Z" fill="black"/>
<path d="M55.2319 136.398H57.3768V139.522H55.2319V136.398Z" fill="black"/>
<path d="M54.1594 129.11H67.0289V135.357H54.1594V129.11Z" fill="#2A6049"/>
<path d="M64.161 136.398H54.2041C54.05 136.398 53.9022 136.338 53.7933 136.229C53.6844 136.121 53.6232 135.974 53.6232 135.821V128.125C53.6232 127.972 53.6844 127.825 53.7933 127.717C53.9022 127.609 54.05 127.548 54.2041 127.548H66.9843C67.1383 127.548 67.2861 127.609 67.395 127.717C67.504 127.825 67.5652 127.972 67.5652 128.125V135.821C67.5652 135.974 67.504 136.121 67.395 136.229C67.2861 136.338 67.1383 136.398 66.9843 136.398H64.1261H64.161ZM66.4382 128.702H54.8198V135.244H66.4382V128.702Z" fill="black"/>
<path d="M31.6376 136.398H38.6086V139.522H31.6376V136.398Z" fill="white"/>
<path d="M37.5872 171.289C37.2638 171.616 36.8795 171.876 36.4563 172.053C36.0331 172.23 35.5793 172.321 35.1212 172.32C34.197 172.319 33.3109 171.948 32.6577 171.287C32.0045 170.627 31.6376 169.732 31.6376 168.798V143.687H38.6086V168.798C38.6088 169.261 38.5187 169.719 38.3434 170.146C38.1682 170.573 37.9112 170.962 37.5872 171.289Z" fill="white"/>
<path d="M35.119 173.361C33.7683 173.359 32.4737 172.868 31.5193 171.994C30.565 171.121 30.029 169.937 30.029 168.702V143.687H31.2879V168.702C31.2879 169.632 31.6918 170.524 32.4109 171.182C33.1301 171.84 34.1056 172.21 35.1232 172.211C35.6274 172.211 36.1267 172.121 36.5925 171.945C37.0584 171.769 37.4816 171.51 37.8379 171.184C38.1942 170.858 38.4766 170.471 38.6689 170.045C38.8612 169.62 38.9596 169.163 38.9585 168.702V143.687H40.2174V168.702C40.218 169.314 40.0864 169.92 39.8304 170.486C39.5744 171.051 39.1989 171.565 38.7253 171.998C38.2518 172.431 37.6895 172.774 37.0707 173.008C36.4519 173.242 35.7887 173.362 35.119 173.361Z" fill="black"/>
<path d="M30.029 136.398H31.6377V139.522H30.029V136.398Z" fill="black"/>
<path d="M38.6087 136.398H40.2174V139.522H38.6087V136.398Z" fill="black"/>
<path d="M29.4927 129.11H41.2898V135.357H29.4927V129.11Z" fill="#2A6049"/>
<path d="M39.3322 136.398H29.0227C28.8632 136.397 28.7104 136.337 28.597 136.229C28.484 136.121 28.4204 135.974 28.4203 135.821V128.125C28.4203 127.972 28.4838 127.825 28.5967 127.717C28.7097 127.609 28.8629 127.548 29.0227 127.548H42.2961C42.4559 127.548 42.6091 127.609 42.7221 127.717C42.8351 127.825 42.8986 127.972 42.8986 128.125V135.821C42.8986 135.974 42.8351 136.121 42.7221 136.229C42.6091 136.338 42.4559 136.398 42.2961 136.398H39.3322ZM41.6937 128.702H29.6251V135.244H41.6937V128.702Z" fill="black"/>
<path d="M24.1715 178.047H97.5532H103.493V180.129H18.2319V178.047H24.1715Z" fill="black"/>
<path d="M17.9638 178.588H18.2319V180.129H17.6957V178.047C17.6957 178.19 17.7239 178.328 17.7742 178.429C17.8245 178.531 17.8927 178.588 17.9638 178.588Z" fill="black"/>
<path d="M24.5515 177.894C24.6072 177.846 24.6514 177.789 24.6814 177.725C24.7114 177.662 24.7267 177.594 24.7263 177.526V177.005H96.4621V177.526C96.4616 177.595 96.4767 177.662 96.5064 177.726C96.5362 177.789 96.5801 177.847 96.6355 177.895C96.6909 177.944 96.7568 177.982 96.8294 178.008C96.9019 178.034 96.9796 178.047 97.058 178.047H24.1304C24.2884 178.047 24.4398 177.992 24.5515 177.894Z" fill="black"/>
<path d="M103.493 180.129V178.588H103.761C103.832 178.587 103.9 178.53 103.95 178.429C103.975 178.379 103.995 178.32 104.009 178.254C104.022 178.188 104.029 178.118 104.029 178.047V180.129H103.493Z" fill="black"/>
<path d="M98.1528 143.131C98.1528 142.98 98.0896 142.835 97.9772 142.728C97.8647 142.621 97.7122 142.561 97.5532 142.561H24.1715C24.0125 142.561 23.86 142.621 23.7476 142.728C23.6351 142.835 23.572 142.98 23.572 143.131V177.005H18.2319V140.563H103.493V177.005H98.1528V143.131Z" fill="white"/>
<path d="M103.438 178.047H96.9982C96.9205 178.047 96.8435 178.033 96.7716 178.005C96.6997 177.976 96.6344 177.934 96.5795 177.882C96.5245 177.829 96.4811 177.766 96.4516 177.697C96.4221 177.628 96.4072 177.554 96.4077 177.48V143.778H25.3168V177.48C25.3172 177.554 25.3021 177.628 25.2723 177.697C25.2426 177.766 25.1988 177.828 25.1436 177.88C25.033 177.987 24.8829 178.047 24.7263 178.047H18.2861C18.1295 178.047 17.9793 177.987 17.8685 177.881C17.7578 177.774 17.6956 177.63 17.6956 177.48V140.089C17.6966 139.939 17.7587 139.795 17.8688 139.688C17.9794 139.582 18.1295 139.522 18.2861 139.522H103.438C103.595 139.522 103.745 139.582 103.856 139.688C103.967 139.794 104.029 139.939 104.029 140.089V177.48C104.029 177.554 104.014 177.628 103.984 177.697C103.955 177.766 103.911 177.828 103.856 177.88C103.745 177.986 103.595 178.046 103.438 178.047ZM102.848 140.656H18.8766V176.913H24.1358V143.211C24.1358 143.06 24.1981 142.916 24.3088 142.81C24.4195 142.704 24.5697 142.644 24.7263 142.644H96.9982C97.1548 142.644 97.305 142.704 97.4157 142.81C97.5265 142.916 97.5887 143.06 97.5887 143.211V176.913H102.848V140.656Z" fill="black"/>
<path d="M101.884 368.588H15.5507V188.459H101.884V368.588ZM59.2297 203.741C53.4157 203.745 47.7335 205.427 42.9012 208.576C38.069 211.725 34.3037 216.198 32.0816 221.43C29.8594 226.663 29.2799 232.419 30.4166 237.973C31.5532 243.526 34.3549 248.626 38.4674 252.628C42.5799 256.631 47.8185 259.356 53.5211 260.46C59.2236 261.563 65.134 260.995 70.5051 258.827C75.8761 256.659 80.4666 252.989 83.6963 248.281C86.9259 243.572 88.6497 238.037 88.6497 232.375C88.6487 228.613 87.8869 224.889 86.4078 221.414C84.9287 217.939 82.7613 214.782 80.0293 212.123C77.2974 209.464 74.0544 207.355 70.4856 205.917C66.9167 204.479 63.092 203.739 59.2297 203.741Z" fill="white"/>
<path d="M15.6693 188.459V368.462H102.302V188.459H103.493V369.052C103.492 369.204 103.429 369.351 103.318 369.46C103.207 369.568 103.055 369.629 102.897 369.629H15.0738C14.9147 369.629 14.7621 369.568 14.649 369.46C14.5406 369.35 14.4795 369.204 14.4783 369.052V188.459H15.6693Z" fill="black"/>
<path d="M0.536156 181.691H117.971V187.418H0.536156V181.691Z" fill="white"/>
<path d="M0.173592 180.286C0.28495 180.186 0.435028 180.13 0.591751 180.129H118.452C118.61 180.129 118.762 180.185 118.874 180.286C118.982 180.387 119.042 180.522 119.043 180.663V187.925C119.042 188.066 118.982 188.201 118.874 188.302C118.762 188.403 118.61 188.459 118.452 188.459H0.591751C0.435028 188.458 0.28495 188.402 0.173592 188.302C0.0625839 188.202 0.00012207 188.067 -1.52588e-05 187.925V180.663C0.000976562 180.521 0.0633087 180.386 0.173592 180.286ZM117.864 181.196H1.19931V187.392H117.864V181.196Z" fill="black"/>
<path d="M59.234 260.823C53.4547 260.819 47.8064 259.152 43.003 256.032C38.1996 252.912 34.4569 248.479 32.248 243.294C30.039 238.11 29.4631 232.405 30.5929 226.903C31.7228 221.4 34.5077 216.347 38.5957 212.38C42.6836 208.414 47.891 205.714 53.5595 204.621C59.2279 203.527 65.103 204.09 70.442 206.238C75.7809 208.387 80.344 212.023 83.5544 216.689C86.7648 221.354 88.4783 226.839 88.4783 232.45C88.4772 236.177 87.72 239.868 86.2497 243.311C84.7794 246.754 82.625 249.882 79.9094 252.517C77.1937 255.152 73.9701 257.241 70.4226 258.666C66.8751 260.092 63.0732 260.824 59.234 260.823ZM59.234 205.222C52.7432 205.224 46.4538 207.411 41.4373 211.41C36.4209 215.409 32.9879 220.973 31.7231 227.154C30.4583 233.334 31.44 239.75 34.501 245.307C37.5619 250.864 42.5128 255.218 48.51 257.629C54.5072 260.039 61.1797 260.356 67.3907 258.526C73.6018 256.696 78.967 252.831 82.5723 247.591C86.1776 242.351 87.8 236.059 87.163 229.788C86.526 223.517 83.6691 217.654 79.0789 213.199C76.4752 210.666 73.3817 208.657 69.9761 207.288C66.5705 205.919 62.9199 205.217 59.234 205.222Z" fill="black"/>
<path d="M99.2029 79.6524C93.2798 79.6524 88.4782 75.1073 88.4782 69.5007C88.4782 63.894 93.2798 59.3489 99.2029 59.3489C105.126 59.3489 109.927 63.894 109.927 69.5007C109.927 75.1073 105.126 79.6524 99.2029 79.6524Z" fill="white"/>
<path d="M113.634 70.3294C111.815 70.3289 110.014 70.6762 108.334 71.3515C106.654 72.0268 105.127 73.0169 103.841 74.2651C102.555 75.5134 101.535 76.9954 100.839 78.6265C100.143 80.2576 99.7845 82.0058 99.7845 83.7714C99.7845 83.9216 99.723 84.0657 99.6136 84.172C99.5041 84.2782 99.3557 84.3379 99.2009 84.3379C99.1242 84.3387 99.0482 84.3244 98.9773 84.2958C98.9064 84.2672 98.8422 84.225 98.7886 84.1717C98.6791 84.0656 98.6175 83.9216 98.6174 83.7714C98.6174 80.2063 97.1587 76.7873 94.5622 74.2665C91.9656 71.7456 88.444 70.3294 84.772 70.3294C84.6161 70.3294 84.4665 70.2697 84.3557 70.1632C84.2494 70.0554 84.1896 69.9121 84.1884 69.7629C84.1879 69.6883 84.2026 69.6144 84.2318 69.5455C84.2609 69.4765 84.3039 69.4139 84.3582 69.3612C84.4125 69.3085 84.477 69.2667 84.5481 69.2384C84.6191 69.2102 84.6952 69.1958 84.772 69.1963C88.4441 69.1943 91.9651 67.777 94.5613 65.2557C97.1575 62.7345 98.6164 59.3157 98.6174 55.7506C98.6184 55.6006 98.6799 55.4569 98.7886 55.3503C98.8979 55.244 99.0462 55.1842 99.2009 55.1841C99.3557 55.1842 99.504 55.244 99.6133 55.3503C99.7221 55.4569 99.7835 55.6006 99.7845 55.7506C99.7855 59.3163 101.245 62.7357 103.842 65.2571C106.439 67.7784 109.961 69.1953 113.634 69.1963C113.788 69.1973 113.936 69.2569 114.046 69.3625C114.156 69.4687 114.217 69.6127 114.217 69.7629C114.217 69.9131 114.156 70.0572 114.046 70.1635C113.937 70.2697 113.789 70.3294 113.634 70.3294ZM99.1932 59.7541C98.4932 62.1363 97.1803 64.3063 95.3782 66.0599C93.576 67.8135 91.3438 69.093 88.8917 69.778C91.3441 70.4623 93.5767 71.7416 95.379 73.4953C97.1812 75.249 98.4939 77.4194 99.1932 79.8018C99.8925 77.42 101.205 75.2501 103.006 73.4965C104.808 71.7428 107.039 70.4632 109.491 69.778C107.038 69.0908 104.805 67.8086 103.004 66.0523C101.202 64.296 99.8909 62.1233 99.1932 59.739V59.7541Z" fill="black"/>
<path d="M339.167 308.198C339.84 310.61 341.104 312.808 342.84 314.584C344.575 316.36 346.725 317.656 349.087 318.35C346.726 319.044 344.576 320.34 342.841 322.116C341.105 323.892 339.841 326.089 339.167 328.501C338.492 326.089 337.228 323.892 335.493 322.116C333.757 320.34 331.608 319.044 329.246 318.35C331.608 317.656 333.758 316.36 335.493 314.584C337.229 312.808 338.493 310.61 339.167 308.198Z" fill="white"/>
<path d="M338.974 304.202C339.088 304.094 339.243 304.033 339.405 304.033C339.565 304.034 339.718 304.095 339.832 304.202C339.945 304.31 340.009 304.457 340.009 304.61C340.009 306.409 340.38 308.191 341.103 309.853C341.825 311.515 342.884 313.025 344.219 314.296C345.554 315.567 347.139 316.574 348.883 317.26C350.627 317.946 352.495 318.296 354.381 318.292C354.541 318.292 354.695 318.353 354.808 318.461C354.921 318.569 354.985 318.716 354.986 318.868C354.986 319.021 354.922 319.168 354.809 319.276C354.695 319.384 354.542 319.445 354.381 319.445C352.498 319.445 350.633 319.799 348.893 320.487C347.153 321.175 345.572 322.183 344.24 323.454C342.908 324.725 341.852 326.233 341.132 327.894C340.411 329.554 340.041 331.334 340.041 333.131C340.041 333.284 339.978 333.43 339.864 333.538C339.751 333.647 339.597 333.707 339.437 333.707C339.275 333.707 339.12 333.647 339.006 333.538C338.896 333.428 338.834 333.283 338.832 333.131C338.831 329.501 337.32 326.021 334.63 323.455C331.94 320.888 328.292 319.446 324.489 319.445C324.328 319.444 324.175 319.383 324.061 319.276C323.948 319.168 323.884 319.021 323.884 318.868C323.884 318.715 323.948 318.569 324.061 318.46C324.175 318.352 324.328 318.292 324.489 318.292C326.372 318.292 328.237 317.939 329.977 317.251C331.718 316.564 333.299 315.556 334.631 314.286C335.963 313.015 337.02 311.507 337.741 309.846C338.461 308.186 338.832 306.407 338.832 304.61C338.824 304.462 338.874 304.316 338.974 304.202ZM339.413 329.071C340.138 326.647 341.497 324.439 343.363 322.654C345.228 320.869 347.539 319.566 350.078 318.868C347.539 318.171 345.228 316.868 343.362 315.083C341.496 313.298 340.137 311.09 339.413 308.665C338.688 311.09 337.329 313.298 335.464 315.083C333.598 316.868 331.286 318.171 328.747 318.868C331.286 319.566 333.597 320.869 335.463 322.654C337.328 324.439 338.688 326.647 339.413 329.071Z" fill="black"/>
<path d="M122.793 259.261C121.097 259.26 119.438 258.756 118.028 257.811C116.617 256.867 115.518 255.525 114.869 253.956C114.221 252.386 114.051 250.659 114.383 248.993C114.714 247.327 115.532 245.797 116.732 244.596C117.932 243.395 119.461 242.577 121.125 242.246C122.789 241.915 124.514 242.085 126.081 242.735C127.649 243.386 128.989 244.487 129.931 245.899C130.874 247.312 131.377 248.972 131.377 250.671C131.376 252.95 130.471 255.134 128.861 256.745C127.252 258.356 125.069 259.261 122.793 259.261ZM122.793 244.957C121.667 244.957 120.567 245.292 119.631 245.918C118.695 246.544 117.965 247.434 117.535 248.476C117.104 249.517 116.991 250.663 117.211 251.769C117.431 252.874 117.974 253.889 118.77 254.686C119.567 255.483 120.581 256.025 121.685 256.245C122.79 256.464 123.934 256.351 124.974 255.919C126.014 255.487 126.903 254.756 127.527 253.819C128.152 252.881 128.486 251.779 128.485 250.652C128.479 249.144 127.876 247.701 126.81 246.637C125.743 245.574 124.299 244.977 122.793 244.977V244.957Z" fill="#EC744A"/>
<path d="M185.353 54.1578C185.509 54.1744 185.653 54.2513 185.751 54.3714C185.85 54.4916 185.896 54.6453 185.879 54.7987L185.832 55.1872L184.053 71.0083L190.596 78.2876C190.661 78.3602 190.706 78.4476 190.729 78.5418C190.751 78.6361 190.748 78.7343 190.722 78.8275L187.445 90.4457C189.426 93.0155 191.273 95.6823 192.98 98.4359C194.491 100.849 195.825 103.365 196.973 105.964C197.318 106.769 197.625 107.568 197.894 108.36C198.485 109.987 198.837 111.687 198.942 113.41C198.946 113.564 198.888 113.714 198.781 113.827C198.674 113.94 198.526 114.006 198.369 114.012C198.212 114.015 198.06 113.958 197.946 113.853C197.831 113.748 197.763 113.603 197.756 113.449C197.692 111.386 196.965 108.92 195.878 106.407C194.261 102.631 191.873 98.7505 189.888 95.8178C188.9 94.3534 188.01 93.1259 187.37 92.2675C187.049 91.8363 186.788 91.4906 186.611 91.2653L186.409 91.0051L186.338 90.9157C186.281 90.8442 186.242 90.7605 186.224 90.6714C186.206 90.5823 186.21 90.4904 186.235 90.403L189.505 78.8081L183.005 71.5754C182.95 71.5145 182.908 71.4429 182.883 71.3653C182.858 71.2877 182.85 71.2058 182.859 71.1248L184.614 55.5018L184.709 54.6472C184.72 54.5366 184.764 54.4316 184.834 54.3442C184.904 54.2569 184.998 54.1909 185.104 54.1539C185.187 54.138 185.271 54.1393 185.353 54.1578Z" fill="black"/>
<path d="M231.114 79.4313C231.123 79.535 231.102 79.639 231.054 79.7323C231.006 79.8255 230.932 79.9046 230.841 79.9611L225.3 83.3897L228.159 96.3129C228.179 96.3988 228.177 96.4877 228.155 96.573C228.133 96.6582 228.09 96.7374 228.031 96.8043L227.886 96.9656C227.179 97.7834 223.959 101.527 220.868 105.865C219.323 107.997 217.917 110.218 216.656 112.515C216.118 113.509 215.647 114.534 215.247 115.586C214.922 116.416 214.712 117.282 214.621 118.163C214.616 118.217 214.602 118.27 214.581 118.32C214.534 118.445 214.443 118.55 214.324 118.617C214.205 118.685 214.065 118.711 213.928 118.691C213.791 118.671 213.666 118.607 213.573 118.508C213.48 118.41 213.426 118.283 213.42 118.151C213.42 118.128 213.42 118.105 213.42 118.078C213.533 117.026 213.793 115.993 214.191 115.007C214.428 114.385 214.713 113.744 215.034 113.087C215.755 111.623 216.56 110.198 217.443 108.818C221.057 103.112 225.915 97.4302 226.922 96.2745L224.04 83.2208C224.015 83.1068 224.027 82.9884 224.073 82.8809C224.12 82.7734 224.199 82.6818 224.301 82.618L229.885 79.1626L228.167 58.5184V58.4109C228.161 58.3353 228.17 58.2592 228.194 58.187C228.219 58.1148 228.258 58.048 228.309 57.9902C228.361 57.9324 228.424 57.8849 228.494 57.8504C228.565 57.8159 228.642 57.795 228.721 57.7889C228.8 57.7829 228.88 57.7918 228.955 57.8152C229.031 57.8385 229.101 57.8759 229.161 57.9251C229.221 57.9743 229.271 58.0343 229.307 58.1019C229.343 58.1695 229.365 58.2432 229.372 58.3188L229.468 59.4706L231.114 79.4313Z" fill="black"/>
<path d="M183.135 174.875H183.256H183.291C183.367 174.869 183.445 174.877 183.518 174.897C183.591 174.917 183.66 174.95 183.719 174.993C183.777 175.036 183.826 175.089 183.861 175.148C183.897 175.208 183.919 175.273 183.925 175.34C183.932 175.406 183.923 175.474 183.9 175.538C183.877 175.602 183.84 175.661 183.79 175.712C183.741 175.764 183.68 175.806 183.612 175.837C183.543 175.868 183.469 175.887 183.392 175.893C183.392 175.893 182.427 175.964 180.955 175.964C178.655 175.975 176.359 175.791 174.1 175.414C171.535 174.96 168.919 174.163 166.969 172.701C166.911 172.656 166.863 172.602 166.829 172.541C166.795 172.481 166.774 172.415 166.769 172.347C166.764 172.28 166.775 172.212 166.799 172.148C166.824 172.084 166.863 172.025 166.915 171.975C166.966 171.924 167.028 171.882 167.097 171.852C167.167 171.823 167.242 171.805 167.32 171.801C167.397 171.796 167.475 171.805 167.548 171.827C167.622 171.848 167.689 171.883 167.748 171.927C169.453 173.203 171.893 173.962 174.365 174.403C176.546 174.767 178.762 174.944 180.982 174.933C181.699 174.933 182.287 174.916 182.691 174.899C182.851 174.892 183.026 174.882 183.135 174.875Z" fill="black"/>
<path d="M224.365 174.932C224.953 175.092 225.555 175.197 226.163 175.246C226.858 175.31 227.622 175.336 228.396 175.336C229.945 175.336 231.542 175.231 232.747 175.122C233.348 175.07 233.854 175.018 234.209 174.976L234.617 174.928H234.761C234.911 174.908 235.063 174.949 235.183 175.041C235.303 175.132 235.381 175.267 235.401 175.416C235.421 175.565 235.38 175.716 235.287 175.835C235.195 175.954 235.058 176.031 234.908 176.051C232.747 176.317 230.573 176.462 228.396 176.485C227.595 176.485 226.798 176.459 226.058 176.388C225.375 176.335 224.7 176.216 224.041 176.032C223.966 176.014 223.896 175.981 223.834 175.935C223.773 175.889 223.722 175.832 223.684 175.766C223.645 175.699 223.621 175.626 223.612 175.551C223.604 175.475 223.61 175.398 223.633 175.325C223.655 175.253 223.691 175.185 223.741 175.126C223.79 175.068 223.851 175.02 223.919 174.986C223.988 174.951 224.063 174.931 224.139 174.926C224.216 174.922 224.293 174.932 224.365 174.958V174.932Z" fill="black"/>
</svg>
