<svg width="448" height="416" viewBox="0 0 448 416" fill="none" xmlns="http://www.w3.org/2000/svg">
<path d="M149.529 57.5684C149.032 58.3029 148.424 58.9834 147.721 59.5937C147.583 59.2159 147.449 58.8645 147.316 58.4979C148.088 58.2475 148.83 57.9362 149.529 57.5684Z" fill="#EFF0F1"/>
<path d="M3.03284 48.6696C3.03284 51.4757 4.39047 54.1669 6.80716 56.1511C9.22384 58.1353 12.5016 59.2501 15.9193 59.2501H130.517L136.896 62.7302H12.2006C10.599 62.7317 9.01279 62.474 7.53262 61.9718C6.05244 61.4697 4.70737 60.7329 3.57425 59.8036C2.44113 58.8743 1.54219 57.7707 0.928879 56.556C0.315567 55.3412 -0.00012207 54.0392 -0.00012207 52.7242V28.6991C7.62939e-05 27.3837 0.316925 26.0812 0.93219 24.8666C1.54747 23.652 2.44905 22.5492 3.5851 21.6216C3.22784 22.6024 3.04643 23.6208 3.0466 24.6446L3.03284 48.6696Z" fill="#EFF0F1"/>
<path d="M398.261 347.136C398.261 347.113 398.298 347.086 398.316 347.068C403.604 343.376 408.901 339.998 414.13 336.918C414.28 336.969 414.433 337.011 414.59 337.046C414.836 337.096 415.087 337.125 415.34 337.133C410.098 340.205 404.755 343.58 399.434 347.272C398.731 347.415 398.052 347.631 397.414 347.914C397.719 347.672 398.002 347.412 398.261 347.136Z" fill="#1A1A1A"/>
<path d="M395.978 348.723C396.07 348.692 396.162 348.654 396.254 348.617C395.731 349.017 395.384 349.549 395.269 350.128C395.269 350.166 395.269 350.208 395.269 350.245C392.757 352.074 390.259 353.977 387.777 355.955C387.436 355.879 387.086 355.804 386.741 355.736C389.782 353.287 392.861 350.949 395.978 348.723Z" fill="#1A1A1A"/>
<path d="M421.783 332.568C428.176 329.077 434.329 326.043 440.022 323.443C440.425 323.545 440.843 323.602 441.265 323.613C441.366 323.613 441.467 323.613 441.569 323.613C435.438 326.383 428.742 329.659 421.779 333.487C421.59 333.509 421.401 333.536 421.217 333.566C421.415 333.245 421.609 332.916 421.783 332.568Z" fill="#1A1A1A"/>
<path d="M397.418 347.914C396.994 348.104 396.602 348.34 396.254 348.617C396.162 348.655 396.07 348.692 395.978 348.723C395.62 348.846 395.238 348.915 394.85 348.927C393.953 348.925 393.092 348.635 392.453 348.118C392.053 347.816 391.701 347.474 391.403 347.101C391.061 346.658 390.769 346.19 390.529 345.703C390.26 345.138 390.045 344.557 389.885 343.965C389.716 343.289 389.608 342.603 389.562 341.913C389.459 340.339 389.642 338.761 390.105 337.231C390.533 335.771 391.191 334.362 392.061 333.041C392.748 331.991 393.599 331.019 394.593 330.15C396.355 328.639 398.224 327.883 399.853 328.291C401.482 328.699 402.518 330.211 402.84 332.349C403.001 333.516 403.001 334.693 402.84 335.86C402.673 337.119 402.404 338.367 402.035 339.597C401.691 340.755 401.277 341.897 400.792 343.02C400.539 343.549 400.332 344.071 400.037 344.555C399.793 345.03 399.515 345.493 399.204 345.941C398.947 346.337 398.653 346.716 398.325 347.075C398.325 347.075 398.288 347.12 398.27 347.143C398.01 347.417 397.725 347.675 397.418 347.914Z" fill="#B9D9BB"/>
<path d="M396.254 348.617C396.602 348.34 396.994 348.104 397.418 347.914C398.056 347.631 398.735 347.415 399.439 347.271L399.816 347.196C401.309 346.947 402.838 346.881 404.354 346.999C407.973 347.28 411.442 348.321 414.429 350.022C415.679 350.733 416.793 351.594 417.733 352.577C419.371 354.341 419.79 356.061 418.902 357.232C418.014 358.403 416.03 358.876 413.632 358.853C410.815 358.75 408.037 358.268 405.408 357.428C402.739 356.679 400.238 355.576 398.003 354.164C396.203 352.947 395.076 351.594 395.242 350.249C395.242 350.211 395.242 350.17 395.242 350.132C395.363 349.548 395.719 349.014 396.254 348.617Z" fill="#B9D9BB"/>
<path d="M414.111 336.918C412.703 336.468 411.644 335.384 411.014 333.963C410.321 332.13 410.171 330.188 410.576 328.299C410.982 326.409 411.932 324.626 413.347 323.099C414.659 321.814 416.293 321.059 417.977 321.21C419.662 321.361 421.075 322.389 421.949 323.995C422.895 325.911 423.14 328.012 422.653 330.041C422.467 330.904 422.17 331.749 421.765 332.561C421.59 332.909 421.397 333.237 421.194 333.551C420.626 333.643 420.07 333.779 419.533 333.955C417.609 334.602 416.357 335.728 416.118 337.088C415.856 337.121 415.591 337.134 415.326 337.126C415.073 337.117 414.822 337.088 414.576 337.039C414.418 337.006 414.263 336.966 414.111 336.918Z" fill="#B9D9BB"/>
<path d="M419.551 333.963C420.088 333.786 420.645 333.651 421.212 333.558C421.396 333.528 421.585 333.502 421.774 333.479C423.442 333.291 425.14 333.377 426.767 333.732C429.168 334.198 431.327 335.276 432.934 336.812C434.246 338.157 434.67 339.654 434.053 340.946C433.436 342.238 431.931 343.103 430.072 343.534C427.97 343.942 425.778 343.922 423.687 343.477C421.597 343.032 419.67 342.175 418.074 340.98C416.693 339.846 415.901 338.509 416.127 337.129C416.125 337.118 416.125 337.107 416.127 337.095C416.375 335.75 417.627 334.616 419.551 333.963Z" fill="#B9D9BB"/>
<path d="M363.108 328.155C363.198 328.132 363.286 328.104 363.371 328.072C364.563 327.634 365.239 326.398 365.304 324.648C369.34 318.285 373.625 312.005 378.19 305.861C379.053 305.608 379.789 305.129 380.284 304.496C376.036 310.131 372.028 315.889 368.226 321.724L368.097 321.814C367.454 322.289 366.907 322.845 366.477 323.462C366.151 323.955 365.972 324.506 365.957 325.068C365.957 325.128 365.957 325.181 365.957 325.242C365.699 325.646 365.442 326.046 365.189 326.451C362.128 331.322 359.206 336.306 357.365 341.513L356.582 341.003C358.193 336.559 360.563 332.3 363.108 328.155Z" fill="#1A1A1A"/>
<path d="M400.387 279.629C404.551 275.346 408.905 271.203 413.449 267.201C413.554 267.201 413.66 267.223 413.766 267.231C414.103 267.245 414.441 267.22 414.769 267.159C409.802 271.477 405.069 275.976 400.571 280.657C400.442 280.702 400.304 280.74 400.18 280.789C400.268 280.415 400.337 280.029 400.387 279.629Z" fill="#1A1A1A"/>
<path d="M433.234 251.836C433.434 252.03 433.658 252.208 433.901 252.365C428.768 255.867 423.859 259.559 419.174 263.441C419.456 262.908 419.694 262.36 419.887 261.801C424.155 258.332 428.604 255.01 433.234 251.836Z" fill="#1A1A1A"/>
<path d="M381.738 301.742C381.821 301.466 381.899 301.175 381.964 300.876C386.038 295.634 390.334 290.52 394.85 285.535C395 285.577 395.154 285.61 395.311 285.633C395.324 285.76 395.347 285.886 395.38 286.011C395.38 286.056 395.421 286.102 395.435 286.147C391.333 290.666 387.418 295.307 383.69 300.068H383.662C382.909 300.531 382.258 301.097 381.738 301.742Z" fill="#1A1A1A"/>
<path d="M363.371 328.072C363.286 328.104 363.198 328.132 363.108 328.155C361.585 328.555 359.597 327.777 357.489 326.265C355.257 324.667 352.854 322.29 350.585 319.464C348.317 316.637 346.604 313.901 345.693 311.585C344.782 309.269 344.727 307.383 345.979 306.435C347.23 305.486 349.582 305.724 352.357 307.032C353.927 307.793 355.375 308.71 356.67 309.764C359.789 312.294 362.23 315.332 363.836 318.682C364.514 320.072 364.978 321.527 365.216 323.012C365.295 323.551 365.326 324.094 365.308 324.637C365.239 326.398 364.563 327.633 363.371 328.072Z" fill="#B9D9BB"/>
<path d="M366.473 323.462C366.902 322.845 367.449 322.289 368.093 321.814L368.221 321.724C368.844 321.274 369.518 320.874 370.233 320.529C370.426 320.435 370.605 320.352 370.799 320.265L371.31 320.031C371.655 319.88 372.018 319.728 372.396 319.589C374.012 318.993 375.713 318.565 377.458 318.315C381.172 317.775 384.666 318.069 387.123 318.859C389.581 319.649 391.067 320.915 391.086 322.302C391.104 323.688 389.733 324.947 387.648 325.967C385.139 327.102 382.409 327.869 379.58 328.234C378.079 328.457 376.558 328.583 375.033 328.612C374.669 328.612 374.32 328.612 373.974 328.612H373.459L373.036 328.574C372.567 328.526 372.104 328.441 371.655 328.321C371.298 328.215 370.95 328.089 370.615 327.943C370.244 327.831 369.864 327.742 369.478 327.675C368.69 327.59 367.927 327.392 367.223 327.089C366.843 326.892 366.527 326.622 366.304 326.302C366.08 325.982 365.955 325.622 365.939 325.253C365.939 325.192 365.939 325.139 365.939 325.079C365.956 324.513 366.139 323.958 366.473 323.462Z" fill="#B9D9BB"/>
<path d="M378.186 305.86C377.963 305.918 377.733 305.954 377.5 305.966C375.806 306.049 374.2 304.938 372.865 303.185C369.938 298.85 368.701 293.881 369.322 288.951C369.708 286.91 370.652 285.372 372.253 284.9C373.855 284.428 375.806 285.164 377.606 286.846C379.405 288.528 381.002 291.165 381.78 294.275C382.342 296.448 382.404 298.688 381.964 300.88C381.9 301.179 381.821 301.47 381.739 301.745C381.642 301.863 381.545 301.98 381.467 302.097C381.091 302.636 380.853 303.233 380.768 303.85V303.877C380.628 304.09 380.475 304.297 380.307 304.496C379.805 305.133 379.058 305.613 378.186 305.86Z" fill="#B9D9BB"/>
<path d="M381.467 302.097C381.545 301.98 381.642 301.863 381.739 301.746C382.261 301.1 382.915 300.534 383.671 300.072H383.699C384.732 299.449 385.896 298.988 387.132 298.711C388.382 298.433 389.683 298.346 390.971 298.454C392.081 298.549 393.154 298.832 394.123 299.286C395.881 300.132 396.77 301.451 396.682 302.83C396.595 304.209 395.688 305.437 394.551 306.397C393.398 307.369 391.949 308.07 390.355 308.426C388.76 308.782 387.079 308.781 385.485 308.423C383.857 308.124 382.419 307.346 381.444 306.235C380.888 305.537 380.649 304.701 380.767 303.873C380.849 303.248 381.088 302.643 381.467 302.097Z" fill="#B9D9BB"/>
<path d="M397.709 281.994C396.038 283.075 395.173 284.39 395.32 285.637C395.164 285.614 395.01 285.581 394.86 285.538C394.291 285.376 393.769 285.118 393.327 284.783C392.931 284.486 392.568 284.161 392.241 283.812C392.071 283.626 391.901 283.434 391.735 283.218C391.569 283.003 391.39 282.788 391.229 282.557C390.507 281.524 389.892 280.443 389.388 279.326C388.201 276.704 387.372 273.982 386.916 271.21C386.716 270.032 386.635 268.843 386.672 267.654C386.672 267.384 386.695 267.124 386.741 266.872C386.764 266.626 386.801 266.384 386.847 266.154C386.935 265.719 387.069 265.292 387.248 264.876C387.514 264.166 388.084 263.559 388.854 263.168C389.261 263 389.708 262.905 390.164 262.891C390.62 262.878 391.074 262.945 391.496 263.089C392.049 263.249 392.573 263.471 393.051 263.75C393.314 263.898 393.585 264.064 393.857 264.249C394.128 264.434 394.381 264.627 394.648 264.858C395.833 265.869 396.836 267.014 397.626 268.258C399.508 271.204 400.506 274.477 400.535 277.803C400.529 278.418 400.483 279.033 400.396 279.644C400.346 280.044 400.277 280.43 400.189 280.804C399.305 281.113 398.471 281.513 397.709 281.994Z" fill="#B9D9BB"/>
<path d="M395.32 285.637C395.173 284.39 396.038 283.075 397.709 281.994C398.467 281.508 399.298 281.103 400.18 280.789C400.304 280.74 400.442 280.702 400.571 280.656C402.143 280.135 403.805 279.821 405.496 279.727C408.717 279.545 411.759 280.105 413.872 281.238C414.373 281.49 414.836 281.789 415.253 282.13C415.619 282.423 415.929 282.759 416.173 283.128C416.612 283.753 416.736 284.495 416.518 285.195C416.28 285.868 415.835 286.48 415.225 286.971C414.915 287.235 414.577 287.478 414.217 287.696C413.835 287.928 413.433 288.137 413.016 288.323C408.705 290.038 403.744 290.29 399.209 289.023C397.313 288.403 395.904 287.439 395.458 286.151C395.458 286.105 395.417 286.06 395.403 286.015C395.365 285.89 395.338 285.764 395.32 285.637Z" fill="#B9D9BB"/>
<path d="M413.766 267.231C413.66 267.231 413.554 267.231 413.448 267.2C410.227 266.796 407.953 262.704 408.308 257.848C408.676 252.834 411.713 248.904 415.096 249.07C418.479 249.236 420.918 253.435 420.554 258.453C420.474 259.586 420.246 260.708 419.873 261.801C419.68 262.36 419.442 262.908 419.16 263.441L418.98 263.762C418.693 264.067 418.465 264.408 418.304 264.771C417.319 266.048 416.095 266.906 414.774 267.159C414.444 267.221 414.104 267.245 413.766 267.231Z" fill="#B9D9BB"/>
<path d="M420.651 262.504C421.707 261.955 422.877 261.571 424.103 261.37C426.988 260.896 429.983 261.201 432.64 262.239C433.767 262.676 434.786 263.279 435.645 264.019C437.178 265.372 437.643 266.906 437.026 268.175C436.409 269.445 434.863 270.31 433.073 270.802C431.096 271.289 429.018 271.436 426.97 271.233C424.921 271.031 422.945 270.482 421.167 269.623C419.574 268.791 418.341 267.677 418.101 266.294C418.015 265.784 418.083 265.265 418.299 264.782C418.46 264.419 418.688 264.079 418.976 263.773C419.441 263.274 420.007 262.844 420.651 262.504Z" fill="#B9D9BB"/>
<path d="M433.234 251.836C432.688 251.295 432.332 250.642 432.203 249.947C432.053 249.143 432.14 248.322 432.456 247.551C432.818 246.671 433.409 245.866 434.186 245.192C434.964 244.517 435.911 243.989 436.962 243.644C437.881 243.341 438.875 243.224 439.861 243.304C440.704 243.368 441.51 243.618 442.195 244.026C442.88 244.434 443.419 244.986 443.755 245.624C444.351 246.813 444.563 248.108 444.371 249.384C444.215 250.518 443.86 251.455 443.092 252.112C442.323 252.77 441.251 253.117 439.87 253.31C438.33 253.537 436.744 253.433 435.268 253.008C434.786 252.854 434.335 252.64 433.933 252.373C433.678 252.214 433.444 252.034 433.234 251.836Z" fill="#B9D9BB"/>
<path d="M436.532 325.826C435.986 325.284 435.63 324.631 435.501 323.936C435.351 323.133 435.438 322.311 435.754 321.541C436.116 320.661 436.707 319.855 437.485 319.181C438.262 318.506 439.209 317.978 440.26 317.633C441.179 317.33 442.173 317.213 443.159 317.293C444.002 317.358 444.808 317.607 445.493 318.015C446.178 318.423 446.717 318.975 447.053 319.613C447.649 320.802 447.861 322.097 447.669 323.373C447.513 324.507 447.158 325.444 446.39 326.101C445.621 326.759 444.549 327.107 443.168 327.299C441.628 327.527 440.042 327.423 438.566 326.997C438.084 326.843 437.634 326.629 437.231 326.362C436.976 326.204 436.742 326.024 436.532 325.826Z" fill="#B9D9BB"/>
<path d="M256.837 110.671C256.749 110.648 256.657 110.639 256.566 110.646C256.474 110.652 256.386 110.674 256.304 110.709C256.223 110.744 256.152 110.792 256.094 110.851C256.036 110.909 255.993 110.976 255.967 111.049L249.887 126.387C249.804 126.349 249.717 126.307 249.629 126.273L249.565 126.247C249.606 124.357 249.634 122.294 249.634 120.201C249.634 117.284 249.579 114.314 249.413 111.755C249.229 108.865 249.137 101.878 249.059 93.848C248.981 85.8183 248.912 76.7229 248.755 69.5736C248.723 68.1376 248.691 66.7811 248.649 65.5266C249.462 66.1161 250.375 66.605 251.36 66.9776C253.311 67.6852 255.427 68.0334 257.559 67.9978C264.269 67.9978 268.941 66.6564 272.103 65.0656C271.905 67.5822 271.665 70.6014 271.403 73.9266C270.648 83.3734 269.673 95.2273 268.789 104.984C268.556 107.569 268.369 109.972 268.227 112.194C268.145 112.677 268.062 113.169 267.974 113.671L256.837 110.671Z" fill="#2A6049"/>
<path d="M285.486 400.196L280.069 400.797C277.493 401.126 274.97 401.692 272.549 402.486C265.894 398.534 254.775 395.941 242.174 395.941C238.494 395.936 234.82 396.165 231.183 396.625C231.211 395.579 231.229 394.589 231.243 393.685C232.319 393.316 233.241 392.7 233.899 391.909C241.48 388.606 249.811 386.623 258.369 386.086C256.499 373.149 260.859 360.124 270.519 349.788C272.107 358.018 273.598 365.44 274.924 371.78C276.967 381.537 278.605 388.735 279.669 392.438C279.949 393.428 280.184 394.165 280.382 394.66C280.461 394.875 280.568 395.083 280.7 395.28C281.016 395.682 281.444 396.017 281.947 396.259C282.491 396.523 283.078 396.721 283.691 396.848C284.311 396.979 284.942 397.073 285.578 397.128L285.946 400.151L285.486 400.196Z" fill="#2A6049"/>
<path d="M305.437 413.852C305.621 412.424 305.69 410.497 305.69 408.392C305.69 406.125 305.607 403.631 305.506 401.368C305.391 398.855 305.244 396.614 305.147 395.231C306.583 394.955 307.448 394.762 307.448 394.762C307.597 394.729 307.728 394.656 307.821 394.555C307.914 394.454 307.962 394.33 307.959 394.203C307.959 394.203 307.959 393.889 307.936 393.289C307.913 392.688 307.899 391.8 307.867 390.644C307.812 388.35 307.729 385.009 307.632 380.842C307.434 372.502 307.172 360.837 306.914 347.54C306.813 342.317 306.707 336.838 306.611 331.216C315.306 329.764 324.282 329.888 332.913 331.578C341.544 333.268 349.622 336.485 356.582 341.002L357.356 341.513C362.728 345.121 367.313 349.454 370.914 354.326C371.425 354.326 371.931 354.326 372.442 354.326C377.251 354.326 382.041 354.805 386.709 355.755C387.054 355.823 387.404 355.898 387.745 355.974C402.901 359.313 415.822 367.458 423.667 378.616C431.512 389.775 433.638 403.035 429.58 415.481H305.087C305.257 414.947 305.374 414.402 305.437 413.852Z" fill="#2A6049"/>
<path d="M230.286 411.963C230.608 409.447 230.824 406.102 230.971 402.732C231.063 400.642 231.128 398.541 231.169 396.625C234.806 396.165 238.48 395.936 242.16 395.941C254.756 395.941 265.875 398.534 272.535 402.486C268.115 403.911 264.223 406.255 261.241 409.288C259.405 411.137 257.986 413.239 257.048 415.496H229.558C229.609 415.36 229.66 415.217 229.706 415.062C229.979 414.04 230.173 413.005 230.286 411.963Z" fill="#2A6049"/>
<path d="M258.503 415.481C258.632 415.179 258.816 414.79 259.064 414.347C259.916 412.79 261.008 411.33 262.313 410.002C265.535 406.73 270.993 403.151 280.262 401.938L285.491 401.356C285.935 401.508 286.398 401.619 286.871 401.689H286.894C290.531 402.126 294.2 402.365 297.875 402.403C299.259 402.403 300.649 402.353 302.045 402.252C302.745 402.203 303.449 402.135 304.158 402.055C304.245 404.137 304.314 406.359 304.314 408.411C304.353 410.368 304.244 412.326 303.987 414.272C303.937 414.625 303.848 414.975 303.72 415.315C303.695 415.378 303.664 415.44 303.628 415.5H258.526L258.503 415.481Z" fill="black"/>
<path d="M272.53 402.486C274.952 401.692 277.474 401.126 280.05 400.797L285.467 400.196C285.319 400.213 285.181 400.27 285.075 400.357C284.969 400.445 284.9 400.558 284.88 400.681C284.86 400.803 284.888 400.927 284.962 401.035C285.036 401.142 285.15 401.227 285.288 401.277L285.472 401.337L280.244 401.919C270.975 403.132 265.516 406.711 262.295 409.983C260.989 411.311 259.897 412.771 259.045 414.328C258.797 414.789 258.613 415.179 258.484 415.462H257.025C257.963 413.205 259.382 411.102 261.218 409.254C264.21 406.231 268.109 403.899 272.53 402.486Z" fill="black"/>
<path d="M297.871 402.384C299.254 402.384 300.644 402.334 302.04 402.233C300.644 402.336 299.254 402.387 297.871 402.384Z" fill="black"/>
<path d="M303.982 414.253C304.239 412.307 304.348 410.35 304.309 408.392C304.309 406.34 304.24 404.119 304.153 402.037C304.41 402.006 304.664 401.984 304.921 401.95C305.088 401.928 305.24 401.856 305.347 401.749C305.455 401.642 305.511 401.506 305.506 401.368C305.607 403.635 305.69 406.114 305.69 408.392C305.69 410.497 305.621 412.424 305.437 413.853C305.374 414.402 305.257 414.947 305.087 415.481H303.623C303.659 415.421 303.69 415.359 303.716 415.296C303.843 414.956 303.932 414.607 303.982 414.253Z" fill="black"/>
<path d="M304.116 400.899C302.052 401.136 299.969 401.253 297.885 401.25C294.373 401.217 290.867 400.992 287.391 400.578L286.982 397.222C287.387 397.222 287.801 397.245 288.229 397.245C292.215 397.245 297.01 396.621 300.825 396.002C301.912 395.824 302.915 395.65 303.799 395.488C303.799 395.673 303.822 395.866 303.835 396.074C303.909 397.343 304.01 399.028 304.116 400.899Z" fill="#EFF0F1"/>
<path d="M304.922 401.95C304.664 401.984 304.411 402.006 304.153 402.037C303.444 402.116 302.74 402.184 302.04 402.233C300.644 402.334 299.255 402.384 297.871 402.384C294.195 402.346 290.527 402.108 286.89 401.67H286.867C286.393 401.601 285.93 401.489 285.486 401.337L285.302 401.277C285.164 401.228 285.05 401.143 284.976 401.035C284.903 400.928 284.874 400.803 284.894 400.681C284.914 400.559 284.983 400.445 285.089 400.358C285.195 400.27 285.333 400.214 285.481 400.196L285.942 400.147L285.573 397.124C286.034 397.166 286.494 397.2 286.954 397.219L287.364 400.574C290.839 400.989 294.345 401.213 297.857 401.247C299.942 401.25 302.024 401.132 304.088 400.895C303.996 399.006 303.895 397.328 303.808 396.07C303.808 395.862 303.785 395.669 303.771 395.484L305.152 395.227C305.248 396.61 305.396 398.851 305.511 401.364C305.517 401.504 305.461 401.641 305.352 401.749C305.243 401.857 305.09 401.928 304.922 401.95Z" fill="black"/>
<path d="M229.609 402.256C229.149 402.358 228.652 402.441 228.164 402.505C227.792 402.558 227.419 402.596 227.041 402.626C226.42 402.675 225.799 402.709 225.168 402.709C220.736 402.709 216.097 401.545 211.937 400.234L213.451 392.144C214.293 392.389 215.48 392.722 216.866 393.051C219.627 393.712 223.208 394.377 226.471 394.381C227.611 394.392 228.749 394.288 229.858 394.071C229.803 396.452 229.729 399.357 229.609 402.256Z" fill="#EFF0F1"/>
<path d="M230.972 402.732C230.975 402.642 230.953 402.553 230.906 402.472C230.86 402.391 230.791 402.32 230.705 402.265C230.619 402.209 230.518 402.172 230.411 402.154C230.304 402.137 230.193 402.141 230.088 402.165C229.932 402.203 229.77 402.229 229.628 402.264C229.747 399.358 229.821 396.452 229.858 394.071C230.252 393.991 230.639 393.89 231.018 393.769L231.248 393.686C231.248 394.589 231.216 395.575 231.188 396.626C231.128 398.541 231.064 400.642 230.972 402.732Z" fill="black"/>
<path d="M213.451 392.144L211.955 400.242C216.097 401.553 220.755 402.717 225.187 402.717C220.584 402.717 215.729 401.455 211.44 400.072C211.271 400.017 211.083 400.017 210.915 400.072L210.579 400.109L212.13 391.717C212.222 391.77 212.696 391.925 213.451 392.144Z" fill="black"/>
<path d="M182.974 415.481C183.107 415.179 183.287 414.79 183.535 414.348C184.389 412.791 185.481 411.331 186.785 410.002C190.006 406.73 195.465 403.151 204.734 401.938L210.436 401.304L211.14 401.228C215.439 402.592 220.345 403.873 225.163 403.873C226.641 403.878 228.114 403.743 229.554 403.473C229.374 407.278 229.094 410.97 228.693 413.297C228.601 413.936 228.447 414.568 228.233 415.187C228.195 415.288 228.146 415.387 228.086 415.481H182.983H182.974Z" fill="black"/>
<path d="M211.421 400.079C215.71 401.455 220.552 402.724 225.168 402.724C225.798 402.724 226.42 402.69 227.041 402.641C227.418 402.611 227.791 402.573 228.164 402.52C228.652 402.456 229.13 402.373 229.609 402.271C229.77 402.237 229.931 402.21 230.069 402.173C230.174 402.148 230.285 402.144 230.392 402.162C230.499 402.179 230.6 402.217 230.686 402.272C230.772 402.327 230.841 402.398 230.888 402.48C230.934 402.561 230.956 402.65 230.953 402.739C230.806 406.11 230.589 409.454 230.267 411.971C230.154 413.008 229.96 414.038 229.687 415.054C229.641 415.209 229.591 415.353 229.54 415.489H228.058C228.118 415.394 228.167 415.296 228.205 415.194C228.42 414.575 228.574 413.943 228.666 413.305C229.075 410.962 229.347 407.259 229.526 403.48C228.086 403.751 226.613 403.885 225.136 403.881C220.303 403.881 215.411 402.603 211.112 401.235L210.408 401.311L204.706 401.946C195.432 403.159 189.979 406.737 186.757 410.01C185.463 411.337 184.381 412.795 183.535 414.348C183.287 414.809 183.107 415.198 182.974 415.481H181.515C182.453 413.224 183.872 411.121 185.708 409.273C188.604 406.33 192.359 404.037 196.624 402.607C199.159 401.747 201.811 401.139 204.522 400.797L210.542 400.128L210.878 400.09C211.05 400.028 211.245 400.024 211.421 400.079Z" fill="black"/>
<path d="M252.998 240.704H252.948C252.766 240.721 252.6 240.797 252.486 240.915C252.372 241.032 252.319 241.182 252.34 241.332C252.506 242.516 252.673 243.701 252.842 244.887C251.59 256.424 250.131 269.642 248.575 283.317C244.553 318.682 239.863 357.108 236.273 377.324C235.252 383.094 234.313 387.39 233.512 389.654C233.369 390.097 233.184 390.53 232.96 390.95C232.427 391.772 231.539 392.402 230.47 392.715C229.178 393.097 227.811 393.278 226.438 393.247C223.594 393.247 220.354 392.688 217.731 392.083C215.476 391.566 213.676 391.022 212.949 390.791V390.772C212.903 390.553 212.834 390.217 212.742 389.767C212.562 388.864 212.282 387.5 211.955 385.641C211.274 381.926 210.289 376.243 209.078 368.391C206.658 352.679 203.344 328.276 199.763 293.497C199.417 290.156 199.11 286.812 198.843 283.464C200.287 284.227 201.784 284.921 203.325 285.543C212.19 289.132 225.26 291.785 243.043 291.966C243.216 291.968 243.383 291.917 243.512 291.822C243.64 291.728 243.721 291.597 243.738 291.456C247.448 260.323 248.686 224.082 248.686 189.578C248.686 180.169 248.594 170.889 248.433 161.876L249.408 162.137L252.998 240.704Z" fill="black"/>
<path d="M198.857 283.464C199.124 286.807 199.43 290.151 199.777 293.496C203.358 328.261 206.681 352.679 209.092 368.391C210.303 376.243 211.287 381.926 211.969 385.64C212.309 387.5 212.576 388.864 212.756 389.767C212.848 390.216 212.917 390.553 212.963 390.772V390.791C213.69 391.021 215.489 391.547 217.744 392.083C220.368 392.688 223.608 393.247 226.452 393.247C227.825 393.278 229.192 393.097 230.484 392.714C231.552 392.401 232.44 391.772 232.973 390.95C233.198 390.53 233.383 390.096 233.526 389.653C234.313 387.386 235.252 383.094 236.287 377.323C239.877 357.107 244.571 318.682 248.589 283.317C250.145 269.641 251.604 256.423 252.855 244.887C253.113 246.712 253.38 248.541 253.642 250.37C251.921 266.15 249.878 284.507 247.742 302.667C245.262 323.775 242.657 344.611 240.291 360.86C239.113 368.973 237.99 375.929 236.973 381.193C236.462 383.838 235.979 386.037 235.528 387.76C235.301 388.622 235.081 389.361 234.87 389.978C234.703 390.485 234.489 390.98 234.23 391.46C234.134 391.615 234.026 391.765 233.908 391.909C233.25 392.7 232.328 393.316 231.252 393.685L231.022 393.768C230.644 393.89 230.256 393.991 229.862 394.071C228.753 394.288 227.615 394.392 226.475 394.381C223.212 394.381 219.645 393.712 216.87 393.051C215.489 392.722 214.297 392.389 213.455 392.144C212.719 391.924 212.245 391.766 212.134 391.736H212.111C212.003 391.7 211.908 391.643 211.834 391.569C211.761 391.495 211.712 391.406 211.692 391.312C211.692 391.29 205.581 363.187 198.419 293.606C198.048 289.958 197.718 286.305 197.43 282.648C197.872 282.927 198.35 283.196 198.857 283.464Z" fill="black"/>
<path d="M298.358 293.009C300.6 292.881 302.726 292.714 304.691 292.503C305.174 338.1 306.449 388.543 306.587 393.772L305.243 394.044C304.074 394.275 302.427 394.581 300.544 394.887C296.775 395.499 292.03 396.108 288.215 396.108C287.116 396.118 286.019 396.052 284.933 395.911C284.135 395.817 283.363 395.606 282.655 395.288C282.337 395.139 282.066 394.93 281.864 394.679C281.793 394.557 281.733 394.431 281.684 394.301C281.597 394.082 281.491 393.78 281.371 393.41C281.137 392.654 280.847 391.637 280.515 390.353C279.848 387.783 279.001 384.182 278.021 379.719C276.056 370.79 273.538 358.411 270.772 343.878C267.896 328.729 264.748 311.234 261.683 292.865C266.777 293.081 275.029 293.36 283.557 293.36C288.574 293.368 293.701 293.274 298.358 293.009Z" fill="black"/>
<path d="M253.712 241.203C253.691 241.061 253.606 240.932 253.474 240.839C253.342 240.747 253.172 240.698 252.998 240.704L249.422 162.107L258.093 164.431C257.117 170.96 256.326 177.679 255.861 184.458C254.669 201.795 254.273 219.532 254.273 235.471C254.273 238.898 254.273 242.242 254.324 245.484C254.112 244.061 253.908 242.634 253.712 241.203Z" fill="black"/>
<path d="M307.65 380.849C307.747 385.006 307.83 388.358 307.885 390.651C307.917 391.785 307.94 392.688 307.954 393.296C307.968 393.905 307.977 394.207 307.977 394.211C307.98 394.337 307.932 394.461 307.839 394.563C307.747 394.664 307.615 394.737 307.466 394.77C307.466 394.77 306.583 394.963 305.165 395.239L303.784 395.496C302.901 395.658 301.897 395.832 300.811 396.009C296.996 396.629 292.2 397.253 288.215 397.253C287.787 397.253 287.373 397.253 286.968 397.23C286.48 397.23 286.02 397.177 285.587 397.136C284.95 397.08 284.32 396.987 283.7 396.856C283.087 396.729 282.5 396.53 281.956 396.266C281.452 396.025 281.025 395.69 280.708 395.288C280.577 395.091 280.47 394.883 280.391 394.668C280.193 394.173 279.958 393.436 279.678 392.446C278.633 388.743 276.976 381.545 274.933 371.788C273.607 365.447 272.116 358.026 270.528 349.796C267.348 333.339 263.772 313.633 260.297 292.82L261.701 292.881C264.766 311.245 267.914 328.741 270.791 343.893C273.552 358.426 276.074 370.805 278.039 379.735C279.019 384.197 279.88 387.798 280.534 390.368C280.865 391.653 281.155 392.68 281.39 393.425C281.509 393.803 281.615 394.097 281.703 394.317C281.752 394.446 281.812 394.572 281.882 394.694C282.084 394.945 282.355 395.154 282.674 395.303C283.381 395.621 284.153 395.833 284.952 395.926C286.037 396.067 287.135 396.133 288.233 396.123C292.049 396.123 296.794 395.514 300.563 394.902C302.445 394.596 304.093 394.29 305.262 394.06L306.606 393.788C306.468 388.554 305.193 338.112 304.71 292.518C305.17 292.465 305.63 292.412 306.09 292.355C306.228 305.305 306.431 318.644 306.652 331.238C306.748 336.861 306.854 342.34 306.955 347.563C307.195 360.845 307.452 372.51 307.65 380.849Z" fill="black"/>
<path d="M252.842 244.887C252.673 243.701 252.506 242.515 252.34 241.331C252.32 241.182 252.372 241.032 252.486 240.914C252.6 240.797 252.766 240.721 252.948 240.704H252.998C253.172 240.698 253.342 240.746 253.474 240.839C253.606 240.931 253.691 241.061 253.712 241.203C253.908 242.631 254.111 244.062 254.319 245.496C254.356 249.195 254.411 252.754 254.48 256.148C254.195 254.221 253.911 252.295 253.629 250.37C253.367 248.541 253.1 246.712 252.842 244.887Z" fill="black"/>
<path d="M300.043 122.211L285.016 118.198L280.345 88.8639L289.679 64.3287C292.642 65.6513 295.758 67.1288 298.552 68.6138L298.731 68.7083L300.48 114.053C300.378 114.053 300.276 114.074 300.186 114.113C300.026 114.183 299.906 114.301 299.85 114.442C299.795 114.583 299.81 114.737 299.891 114.869C301.005 116.63 301.99 119.169 302.814 122C303.637 124.83 304.319 127.962 304.857 130.936C305.161 132.61 305.418 134.231 305.639 135.728C304.89 135.418 304.107 135.165 303.301 134.972C301.606 134.594 299.879 134.323 298.133 134.163C297.484 134.095 296.808 134.035 296.122 133.978L300.503 122.925C300.532 122.854 300.542 122.778 300.534 122.703C300.526 122.628 300.5 122.555 300.457 122.488C300.414 122.422 300.355 122.363 300.284 122.315C300.213 122.268 300.131 122.232 300.043 122.211Z" fill="white"/>
<path d="M280.897 170.526C280.985 170.549 281.076 170.557 281.168 170.55C281.259 170.543 281.348 170.522 281.429 170.486C281.509 170.451 281.581 170.403 281.639 170.345C281.697 170.287 281.741 170.22 281.767 170.148L284.754 162.617C292.589 164.617 300.716 165.746 308.916 165.976C308.953 166.713 308.994 167.465 309.036 168.243C309.436 175.684 309.988 184.915 310.6 194.933C311.829 214.96 313.302 238.138 314.282 256.412C314.94 268.595 315.378 278.605 315.378 284.031C315.378 285.062 315.378 285.92 315.327 286.604C315.316 287.084 315.268 287.562 315.184 288.036C315.073 288.417 314.8 288.753 314.416 288.985C313.795 289.386 313.101 289.703 312.359 289.926C309.99 290.616 307.533 291.085 305.036 291.324C299.03 292.012 291.179 292.235 283.567 292.235C271.462 292.235 259.943 291.671 257.214 291.528C257.214 291.358 257.191 291.15 257.177 290.908C257.131 290.152 257.071 289.083 256.997 287.677C256.846 284.862 256.648 280.781 256.45 275.703C256.054 265.545 255.658 251.409 255.658 235.482C255.658 219.555 256.054 201.851 257.241 184.53C257.702 177.849 258.479 171.229 259.437 164.79L280.897 170.526ZM287.911 181.862C287.943 181.99 287.985 182.145 288.045 182.323C288.155 182.682 288.321 183.143 288.546 183.695C289.124 185.118 289.793 186.515 290.548 187.881C292.334 191.146 295.035 195.137 298.74 198.462C298.868 198.554 299.032 198.604 299.201 198.603C299.371 198.602 299.534 198.55 299.66 198.457C299.785 198.363 299.865 198.235 299.883 198.097C299.901 197.958 299.856 197.819 299.757 197.706C294.792 193.24 291.607 187.417 290.152 184.054C289.803 183.277 289.51 182.485 289.273 181.681C289.257 181.621 289.246 181.56 289.241 181.499C289.241 181.349 289.168 181.205 289.039 181.098C288.91 180.992 288.734 180.932 288.551 180.932C288.368 180.932 288.192 180.992 288.063 181.098C287.933 181.205 287.86 181.349 287.86 181.499C287.865 181.616 287.882 181.732 287.911 181.847V181.862Z" fill="white"/>
<path d="M277.74 58.4566C277.813 58.4453 277.888 58.4453 277.961 58.4566C278.074 58.4722 278.184 58.4949 278.293 58.5247C278.73 58.6418 279.438 58.8836 280.41 59.2426C281.643 59.6961 283.281 60.3384 285.141 61.1055L277.74 58.4566Z" fill="black"/>
<path d="M298.966 67.4953C298.796 67.4381 298.606 67.4387 298.437 67.4968C298.268 67.5549 298.134 67.6658 298.064 67.8051C297.994 67.9444 297.995 68.1007 298.066 68.2396C298.137 68.3785 298.272 68.4886 298.441 68.5457C298.538 68.576 298.63 68.6138 298.727 68.6478V68.7082L298.547 68.6138C295.754 67.1287 292.638 65.6513 289.674 64.3287L290.024 63.3991C290.047 63.3367 290.056 63.2715 290.051 63.2064C292.021 64.0793 294.069 65.0278 296.034 66.0064C297.047 66.5052 298.041 67.0078 299.003 67.5179L298.943 67.4953H298.966Z" fill="black"/>
<path d="M268.218 112.167C268.184 112.686 268.152 113.19 268.121 113.679L267.965 113.637C268.062 113.142 268.144 112.651 268.218 112.167Z" fill="black"/>
<path d="M304.691 292.503C302.726 292.714 300.6 292.881 298.358 293.009C293.701 293.274 288.574 293.387 283.557 293.387C275.015 293.387 266.777 293.107 261.682 292.892L260.279 292.832C257.909 292.722 256.5 292.643 256.496 292.643C256.328 292.633 256.17 292.573 256.052 292.474C255.934 292.375 255.864 292.244 255.856 292.106C255.856 292.106 254.912 277.456 254.475 256.167C254.406 252.766 254.351 249.214 254.314 245.514C254.282 242.272 254.264 238.928 254.264 235.501C254.264 219.558 254.659 201.821 255.851 184.488C256.312 177.686 257.108 170.983 258.083 164.461L259.423 164.82C258.465 171.244 257.688 177.879 257.227 184.56C256.04 201.87 255.644 219.585 255.644 235.512C255.644 251.439 256.04 265.576 256.436 275.733C256.634 280.811 256.832 284.892 256.984 287.708C257.057 289.113 257.117 290.202 257.163 290.938C257.163 291.184 257.191 291.388 257.2 291.558C259.929 291.702 271.467 292.265 283.553 292.265C291.165 292.265 299.016 292.042 305.022 291.354C307.522 291.119 309.982 290.652 312.354 289.963C313.096 289.741 313.79 289.424 314.411 289.023C314.796 288.791 315.068 288.455 315.18 288.074C315.263 287.6 315.311 287.121 315.322 286.642C315.355 285.966 315.373 285.1 315.373 284.069C315.373 278.642 314.913 268.633 314.278 256.45C313.297 238.176 311.825 215.001 310.596 194.97C309.984 184.953 309.431 175.722 309.031 168.281C308.99 167.507 308.948 166.77 308.911 166.014C309.372 166.014 309.832 166.04 310.292 166.044C310.453 169.113 310.642 172.528 310.858 176.224C311.838 193.266 313.311 216.131 314.54 236.782C315.769 257.433 316.749 275.861 316.754 284.065C316.754 285.104 316.754 285.981 316.703 286.684C316.689 287.216 316.634 287.748 316.537 288.274C316.37 288.914 315.933 289.484 315.304 289.884C314.19 290.64 312.51 291.207 310.389 291.664C308.962 291.958 307.518 292.192 306.063 292.367C305.621 292.397 305.16 292.45 304.691 292.503Z" fill="black"/>
<path d="M251.94 65.9233C250.657 65.4387 249.516 64.7338 248.594 63.8563C248.515 61.6987 248.423 59.934 248.304 58.7135C248.281 58.4452 248.253 58.2034 248.226 57.988C249.353 57.6101 250.149 57.3721 250.292 57.3305H250.315C250.437 57.2961 250.545 57.2343 250.626 57.1521C250.707 57.07 250.759 56.9708 250.775 56.8657L252.018 48.6924C252.225 48.6206 252.506 48.5223 252.828 48.4014C253.616 48.1142 254.384 47.7913 255.129 47.434C255.598 47.216 256.033 46.9507 256.422 46.6443C256.641 46.4745 256.801 46.259 256.882 46.0208C256.906 45.9405 256.908 45.8568 256.888 45.7758C256.869 45.6947 256.827 45.6182 256.768 45.5516C256.708 45.485 256.631 45.4299 256.543 45.3902C256.455 45.3505 256.357 45.3271 256.257 45.3217L251.838 45.095H251.737H251.544C251.293 45.0767 251.044 45.0464 250.798 45.0043C249.923 44.8594 249.077 44.6139 248.285 44.275C246.311 43.4362 243.909 41.7811 242.233 38.3462C241.35 36.642 240.853 33.9516 240.853 30.8492C240.877 27.1307 241.513 23.4318 242.744 19.8532C242.919 19.6076 243.14 19.309 243.439 18.9425C244.895 17.1727 246.488 15.4814 248.207 13.879C248.207 14.2569 248.175 14.6688 248.175 15.058C248.175 21.2475 250.936 25.8802 254.227 28.2646C255.198 29.0027 256.364 29.5471 257.633 29.8554C258.037 29.9489 258.455 29.9997 258.875 30.0066C259.157 30.009 259.436 29.9732 259.704 29.9008C259.954 29.826 260.183 29.7088 260.376 29.5569C260.709 29.2665 260.937 28.9053 261.034 28.514C261.111 28.2565 261.168 27.9952 261.204 27.7318C261.264 27.3539 261.31 26.9761 261.379 26.5982C261.461 26.0741 261.615 25.5594 261.839 25.064C262.183 24.3255 262.771 23.6803 263.537 23.2011C263.845 23.0066 264.181 22.8429 264.536 22.7137C264.748 22.6263 264.98 22.5774 265.217 22.5701C265.342 22.5684 265.465 22.5917 265.576 22.6381C265.709 22.6955 265.825 22.7754 265.917 22.8724C266.252 23.2354 266.491 23.6527 266.616 24.0967C267.026 25.2719 267.238 27.1197 267.233 29.5758C267.233 31.3972 267.123 33.551 266.911 35.9996C266.869 36.472 266.851 36.9179 266.851 37.3373C266.851 39.0604 267.178 40.3603 267.772 41.3239C268.158 41.9795 268.756 42.5352 269.502 42.9298C268.95 46.124 268.643 49.3435 268.582 52.5693C268.573 54.0091 268.676 55.448 268.89 56.8771C268.907 56.9822 268.953 57.0829 269.023 57.1718C269.072 57.2316 269.127 57.2873 269.189 57.3381C269.299 57.4264 269.42 57.5061 269.548 57.5761C269.862 57.7439 270.188 57.8966 270.524 58.0333C271.117 58.279 271.845 58.5472 272.595 58.8155C272.535 59.6128 272.447 60.7427 272.337 62.1484C272.3 62.6094 272.263 63.1044 272.222 63.6221C269.304 65.2809 264.702 66.8302 257.568 66.834C255.634 66.8708 253.713 66.56 251.94 65.9233Z" fill="white"/>
<path d="M250.978 48.7454C251.072 48.8027 251.183 48.8394 251.3 48.852C251.417 48.8646 251.536 48.8526 251.645 48.8171L252.022 48.6849L250.78 56.8583C250.764 56.9633 250.712 57.0625 250.631 57.1446C250.549 57.2268 250.442 57.2886 250.32 57.323H250.297C250.154 57.3646 249.376 57.5951 248.23 57.9805C248.198 57.7311 248.161 57.512 248.124 57.3306C248.09 57.1769 248.038 57.0262 247.968 56.8809C247.969 56.8709 247.969 56.8607 247.968 56.8507C248.617 56.6315 249.137 56.4728 249.468 56.3708L250.711 48.2314C250.698 48.3287 250.716 48.4271 250.762 48.5171C250.809 48.6071 250.883 48.6857 250.978 48.7454Z" fill="black"/>
<path d="M241.525 21.0095C241.67 21.013 241.814 20.9782 241.934 20.9102C242.054 20.8423 242.144 20.7447 242.192 20.6317L242.224 20.5712C242.252 20.5145 242.307 20.4163 242.394 20.2765C242.482 20.1366 242.569 20.0082 242.694 19.8306C241.474 23.4041 240.847 27.0965 240.83 30.8077C240.83 33.9101 241.34 36.6005 242.21 38.3047C243.886 41.7396 246.288 43.3947 248.262 44.2335C249.054 44.5724 249.9 44.8179 250.775 44.9628C251.021 45.0049 251.27 45.0351 251.521 45.0535H251.714H251.682C251.502 45.0451 251.325 45.0943 251.189 45.1909C251.052 45.2875 250.967 45.4238 250.95 45.5712L250.895 46.1191C249.756 45.9687 248.655 45.6688 247.632 45.2311C245.391 44.2902 242.717 42.3895 240.935 38.7242C239.937 36.7857 239.44 33.997 239.435 30.7888C239.452 27.3948 239.968 24.0148 240.972 20.7223C241.028 20.8044 241.107 20.8737 241.204 20.9239C241.3 20.9741 241.411 21.0035 241.525 21.0095Z" fill="black"/>
<path d="M251.36 66.9512C250.375 66.5786 249.461 66.0898 248.649 65.5002C248.649 64.9334 248.617 64.3666 248.594 63.8565C249.516 64.734 250.657 65.4388 251.939 65.9234C253.709 66.5603 255.627 66.8724 257.559 66.8379C264.692 66.8379 269.295 65.2848 272.213 63.626C272.176 64.0756 272.144 64.548 272.102 65.0392C268.94 66.6301 264.278 67.9753 257.559 67.9715C255.427 68.0071 253.311 67.6588 251.36 66.9512Z" fill="black"/>
<path d="M272.595 58.7172C272.595 58.7474 272.595 58.7852 272.595 58.8192C271.845 58.5509 271.117 58.2826 270.524 58.037C270.188 57.9003 269.862 57.7476 269.548 57.5798C269.42 57.5098 269.299 57.4301 269.189 57.3417C269.127 57.291 269.072 57.2353 269.023 57.1755C268.953 57.0865 268.907 56.9859 268.89 56.8807C268.676 55.4516 268.573 54.0128 268.582 52.573C268.643 49.3472 268.95 46.1277 269.502 42.9335L269.681 43.0166L269.599 43.3076V43.3983C269.599 43.5607 269.571 43.8366 269.557 44.2145C269.543 44.5923 269.53 45.0722 269.516 45.6164C269.488 46.6971 269.461 48.0347 269.438 49.3346C269.387 51.9344 269.346 54.3943 269.346 54.3943C269.345 54.5249 269.398 54.6518 269.497 54.7541C269.595 54.8565 269.734 54.9282 269.889 54.9574L270.059 54.9914C270.1 55.5317 270.16 56.0645 270.238 56.5935L270.28 56.62C270.49 56.7365 270.708 56.8425 270.933 56.9374C271.394 57.1414 272.024 57.3795 272.687 57.6176C272.664 57.7989 272.636 58.1693 272.595 58.7172Z" fill="black"/>
<path d="M270.731 53.1927C270.731 52.437 270.758 51.4205 270.781 50.3133C270.823 48.1028 270.874 45.5597 270.92 44.2485C270.92 43.9122 270.943 43.659 270.956 43.523L271.154 42.8428C271.193 42.7101 271.172 42.5705 271.096 42.4492C271.02 42.3278 270.894 42.2329 270.74 42.1815C269.969 41.9238 269.347 41.4346 269 40.8136C268.54 40.0579 268.227 38.9469 268.227 37.341C268.227 36.9505 268.246 36.5311 268.282 36.0827C268.499 33.6001 268.609 31.4235 268.609 29.5644C268.628 28.1666 268.536 26.7693 268.333 25.3813C268.226 24.4319 267.914 23.5056 267.413 22.6456C267.148 22.2062 266.721 21.8466 266.193 21.6177C265.893 21.4977 265.564 21.4357 265.231 21.4364C264.801 21.4445 264.377 21.5268 263.988 21.6782C263.537 21.8506 263.112 22.0662 262.723 22.3206C261.634 23.0072 260.83 23.9535 260.422 25.0299C260.14 25.855 259.953 26.7002 259.865 27.5541C259.83 27.9053 259.732 28.2504 259.575 28.5781C259.533 28.662 259.463 28.7342 259.372 28.786C259.234 28.8534 259.073 28.8838 258.912 28.8729C258.61 28.866 258.31 28.8279 258.019 28.7595C256.944 28.4977 255.958 28.0346 255.138 27.4067C254.04 26.5915 253.108 25.6373 252.377 24.5803C250.715 22.2337 249.533 18.9878 249.537 15.0503C249.539 14.1276 249.6 13.2055 249.721 12.2881C249.737 12.1688 249.706 12.0484 249.633 11.9444C249.56 11.8405 249.449 11.7582 249.315 11.7094C249.182 11.6607 249.033 11.648 248.89 11.6732C248.747 11.6984 248.617 11.7603 248.52 11.8498C244.76 15.2884 242.827 17.4914 241.851 18.7761C241.703 17.9403 241.627 17.0967 241.626 16.252C241.58 13.9014 242.256 11.5792 243.591 9.49939C245.133 7.20571 247.77 5.0594 252.335 3.64616C255.442 2.65399 258.741 2.12672 262.074 2.08933C264.522 2.06514 266.951 2.45086 269.212 3.22294C271.549 4.05006 273.603 5.33446 275.195 6.96387C278.67 10.4516 280.98 16.1348 280.98 24.7956C280.961 27.9547 280.703 31.1097 280.207 34.2424C280.185 34.3905 280.235 34.5397 280.345 34.6581C282.724 37.1078 284.758 39.7697 286.411 42.5934C287.658 44.8606 288.183 46.7198 288.183 48.2388C288.213 49.2749 287.915 50.2998 287.318 51.2127C286.751 52.0267 285.944 52.7104 284.97 53.2003C282.987 54.2432 280.198 54.7118 277.275 54.7118C276.161 54.7096 275.047 54.6452 273.943 54.519L270.722 53.9447C270.722 53.7482 270.726 53.4799 270.731 53.1927Z" fill="black"/>
<path d="M269.327 54.3944C269.327 54.3944 269.368 51.9345 269.419 49.3347C269.442 48.0348 269.47 46.6896 269.497 45.6165C269.497 45.0723 269.525 44.5962 269.539 44.2146C269.552 43.8329 269.566 43.5608 269.58 43.3984V43.3077L269.663 43.0167L269.483 42.9336C268.738 42.5389 268.139 41.9833 267.753 41.3276C267.155 40.3603 266.833 39.0604 266.833 37.3411C266.833 36.9216 266.833 36.4757 266.892 36.0034C267.104 33.5397 267.215 31.3858 267.215 29.5796C267.215 27.1348 267.007 25.2756 266.598 24.1004C266.478 23.6563 266.246 23.2379 265.917 22.8724C265.823 22.7795 265.707 22.7035 265.576 22.6494C265.465 22.603 265.342 22.5797 265.217 22.5814C264.98 22.5887 264.748 22.6377 264.536 22.725C264.188 22.8603 263.86 23.029 263.56 23.2276C262.794 23.7068 262.206 24.3519 261.862 25.0905C261.638 25.5859 261.484 26.1006 261.402 26.6246C261.333 27.0025 261.287 27.3804 261.227 27.7582C261.19 28.0217 261.134 28.2829 261.057 28.5404C260.953 28.9227 260.724 29.2743 260.394 29.5569C260.202 29.7088 259.973 29.8259 259.722 29.9008C259.455 29.9732 259.175 30.0089 258.894 30.0066C258.473 29.9997 258.056 29.9489 257.651 29.8554C256.377 29.5487 255.207 29.0042 254.231 28.2646C250.95 25.8802 248.184 21.2475 248.179 15.058C248.179 14.6801 248.179 14.2758 248.212 13.879C246.486 15.4699 244.885 17.1498 243.421 18.9085C243.121 19.2864 242.901 19.5735 242.726 19.8192C242.601 19.9968 242.5 20.1479 242.427 20.265C242.353 20.3822 242.284 20.5031 242.256 20.5598L242.224 20.6202C242.183 20.7209 242.107 20.8099 242.007 20.8769C241.906 20.9439 241.785 20.9862 241.656 20.9988C241.527 21.0115 241.397 20.994 241.28 20.9484C241.163 20.9028 241.064 20.8309 240.995 20.7412C240.956 20.6951 240.926 20.644 240.908 20.59C240.477 19.1714 240.263 17.7141 240.273 16.252C240.229 13.7101 240.963 11.1999 242.408 8.95156C244.093 6.43494 247.033 4.07702 251.875 2.58442C255.129 1.54725 258.583 0.995715 262.074 0.955797C264.709 0.932024 267.322 1.34857 269.755 2.1801C273.386 3.45353 276.571 5.81145 278.803 9.4957C281.035 13.1799 282.365 18.1868 282.365 24.7957C282.346 27.9177 282.096 31.0359 281.615 34.1329C283.987 36.5984 286.019 39.2725 287.672 42.106C288.979 44.4677 289.568 46.4856 289.568 48.22C289.595 49.4576 289.232 50.6798 288.514 51.7682C287.456 53.2314 285.813 54.3488 283.866 54.931C281.762 55.5705 279.532 55.8819 277.289 55.8492C276.103 55.8472 274.919 55.779 273.745 55.6452H273.695L270.059 54.9915L269.879 54.9612C269.722 54.9334 269.581 54.8618 269.48 54.7585C269.38 54.6553 269.325 54.5267 269.327 54.3944ZM273.929 54.5229C275.033 54.6491 276.147 54.7135 277.261 54.7156C280.184 54.7156 282.973 54.2433 284.956 53.2041C285.93 52.7142 286.737 52.0306 287.304 51.2165C287.91 50.2991 288.213 49.2673 288.183 48.2238C288.183 46.7123 287.658 44.8229 286.411 42.5784C284.758 39.7546 282.723 37.0928 280.345 34.6431C280.234 34.5247 280.185 34.3755 280.207 34.2274C280.703 31.0947 280.961 27.9397 280.98 24.7806C280.98 16.1198 278.679 10.4215 275.195 6.94884C273.603 5.31942 271.548 4.03503 269.212 3.20791C266.951 2.43582 264.522 2.05011 262.074 2.0743C258.746 2.1159 255.454 2.6457 252.354 3.63869C247.788 5.05193 245.151 7.19824 243.609 9.49192C242.274 11.5717 241.599 13.8939 241.644 16.2445C241.646 17.0892 241.721 17.9328 241.87 18.7687C242.845 17.4839 244.778 15.2809 248.538 11.8423C248.636 11.7515 248.767 11.6889 248.912 11.6637C249.056 11.6385 249.207 11.6521 249.341 11.7024C249.476 11.7528 249.587 11.8372 249.659 11.9433C249.731 12.0494 249.759 12.1716 249.74 12.292C249.619 13.2094 249.557 14.1314 249.555 15.0542C249.555 18.9916 250.734 22.2338 252.395 24.5841C253.126 25.6412 254.058 26.5954 255.156 27.4106C255.971 28.0333 256.949 28.4936 258.014 28.7558C258.305 28.8242 258.605 28.8623 258.907 28.8692C259.068 28.8801 259.229 28.8497 259.368 28.7823C259.458 28.7305 259.528 28.6583 259.57 28.5744C259.728 28.2467 259.825 27.9016 259.86 27.5504C259.941 26.6984 260.12 25.8545 260.394 25.03C260.802 23.9536 261.606 23.0072 262.695 22.3207C263.085 22.0663 263.509 21.8507 263.961 21.6783C264.35 21.5269 264.773 21.4445 265.203 21.4364C265.537 21.4358 265.866 21.4978 266.165 21.6178C266.693 21.8466 267.12 22.2063 267.385 22.6456C267.886 23.5057 268.198 24.432 268.305 25.3814C268.508 26.7693 268.601 28.1667 268.581 29.5645C268.581 31.4236 268.471 33.6001 268.255 36.0828C268.218 36.5337 268.199 36.9531 268.199 37.3411C268.199 38.947 268.512 40.0655 268.973 40.8137C269.32 41.4347 269.942 41.9238 270.712 42.1816C270.866 42.233 270.993 42.3279 271.069 42.4492C271.145 42.5706 271.165 42.7102 271.126 42.8429L270.929 43.5231C270.929 43.6591 270.906 43.9009 270.892 44.2486C270.846 45.5598 270.795 48.1029 270.754 50.3134C270.731 51.4206 270.712 52.4446 270.703 53.1928C270.703 53.4951 270.703 53.7483 270.703 53.9485L273.929 54.5229Z" fill="black"/>
<path d="M236.747 136.612C236.709 137.336 236.905 138.055 237.314 138.697C237.806 139.347 238.395 139.944 239.067 140.473C239.834 141.092 240.651 141.667 241.511 142.197C242.068 142.54 242.648 142.873 243.228 143.187L237.245 158.279C237.218 158.35 237.208 158.426 237.217 158.501C237.225 158.575 237.251 158.648 237.294 158.714C237.337 158.781 237.395 158.839 237.466 158.887C237.536 158.935 237.617 158.971 237.705 158.993L247.047 161.487C247.209 170.616 247.305 180.022 247.305 189.559C247.305 223.847 246.081 259.843 242.422 290.806C229.503 290.64 219.162 289.147 211.209 286.959C203.123 284.737 197.504 281.801 194.126 278.858C191.87 276.893 190.619 274.935 190.255 273.19C190.195 272.829 190.161 272.465 190.154 272.101C190.154 271.576 190.117 270.9 190.117 270.087C190.117 261.54 191.452 237.968 193.734 210.089C194.149 204.991 194.6 199.746 195.074 194.43C195.534 195.05 195.833 195.382 195.838 195.39C195.895 195.459 195.97 195.518 196.058 195.56C196.147 195.603 196.245 195.629 196.347 195.636C196.449 195.643 196.552 195.632 196.647 195.602C196.743 195.573 196.83 195.526 196.901 195.465C196.901 195.465 197.711 194.781 198.907 193.61C200.082 195.772 201.467 197.854 203.049 199.833L199.478 200.234C199.295 200.254 199.129 200.334 199.018 200.455C198.906 200.576 198.857 200.728 198.882 200.878C198.907 201.029 199.004 201.165 199.151 201.256C199.298 201.348 199.484 201.388 199.667 201.368L204.821 200.789C204.935 200.776 205.043 200.738 205.134 200.68C205.261 200.65 205.386 200.613 205.507 200.57C205.906 200.419 206.274 200.217 206.598 199.973C207.3 199.411 207.882 198.756 208.319 198.035C209.371 196.271 210.167 194.412 210.689 192.495C211.426 189.886 211.967 187.242 212.309 184.579L213.69 178.589C213.713 178.515 213.718 178.437 213.703 178.36C213.688 178.284 213.655 178.211 213.604 178.146C213.554 178.08 213.488 178.024 213.41 177.981C213.333 177.937 213.245 177.907 213.153 177.892C213.06 177.878 212.965 177.879 212.873 177.895C212.781 177.912 212.694 177.944 212.618 177.989C212.542 178.034 212.477 178.091 212.429 178.157C212.381 178.224 212.349 178.297 212.337 178.374L211.288 182.837L208.885 179.198C209.147 178.442 209.373 177.686 209.543 176.931C209.553 176.88 209.553 176.829 209.543 176.779C208.669 168.723 207.527 162.904 206.607 157.931C205.687 152.958 204.992 148.862 204.992 144.165C205.004 141.974 205.158 139.784 205.452 137.605C206.948 125.891 209.134 112.061 209.654 108.789C209.727 108.32 209.769 108.067 209.769 108.067C209.788 107.943 209.757 107.818 209.681 107.71C209.604 107.602 209.486 107.517 209.345 107.47L231.436 62.7604L236.761 83.5887L226.176 116.773C226.144 116.873 226.145 116.977 226.18 117.076C226.215 117.174 226.282 117.263 226.374 117.333L240.641 128.332C239.68 129.295 238.88 130.359 238.262 131.495C237.343 133.1 236.828 134.84 236.747 136.612ZM241.658 165.772C241.276 165.771 240.903 165.864 240.585 166.037C240.267 166.211 240.019 166.458 239.873 166.748C239.726 167.037 239.688 167.356 239.762 167.663C239.836 167.971 240.02 168.253 240.29 168.475C240.56 168.696 240.904 168.847 241.278 168.908C241.653 168.969 242.041 168.938 242.394 168.817C242.746 168.697 243.047 168.493 243.259 168.233C243.47 167.972 243.583 167.665 243.582 167.352C243.583 167.143 243.534 166.937 243.438 166.745C243.342 166.552 243.2 166.377 243.022 166.23C242.843 166.082 242.63 165.965 242.396 165.885C242.162 165.806 241.912 165.764 241.658 165.764V165.772ZM239.73 185.909C239.73 186.222 239.843 186.528 240.055 186.788C240.267 187.049 240.568 187.252 240.92 187.372C241.273 187.491 241.66 187.523 242.034 187.462C242.408 187.401 242.752 187.25 243.022 187.028C243.291 186.807 243.475 186.525 243.549 186.218C243.624 185.911 243.586 185.592 243.44 185.303C243.294 185.014 243.047 184.766 242.729 184.592C242.412 184.418 242.04 184.325 241.658 184.325C241.406 184.325 241.155 184.365 240.922 184.444C240.688 184.523 240.476 184.639 240.296 184.785C240.117 184.932 239.975 185.106 239.878 185.297C239.781 185.489 239.73 185.694 239.73 185.901V185.909ZM243.582 207.754C243.583 207.44 243.47 207.133 243.259 206.873C243.047 206.612 242.746 206.408 242.394 206.288C242.041 206.167 241.653 206.136 241.278 206.197C240.904 206.258 240.56 206.409 240.29 206.63C240.02 206.852 239.836 207.134 239.762 207.442C239.688 207.749 239.726 208.068 239.873 208.357C240.019 208.647 240.267 208.894 240.585 209.068C240.903 209.241 241.276 209.334 241.658 209.333C241.912 209.333 242.162 209.292 242.396 209.212C242.63 209.132 242.843 209.015 243.022 208.868C243.2 208.72 243.342 208.545 243.438 208.353C243.534 208.16 243.583 207.954 243.582 207.746V207.754ZM239.182 231.08C239.564 231.08 239.937 230.988 240.255 230.814C240.573 230.641 240.821 230.393 240.967 230.104C241.114 229.814 241.153 229.496 241.078 229.188C241.004 228.881 240.82 228.598 240.55 228.377C240.28 228.155 239.936 228.004 239.562 227.943C239.187 227.882 238.799 227.914 238.447 228.034C238.094 228.155 237.793 228.358 237.581 228.619C237.37 228.88 237.257 229.187 237.258 229.5C237.258 229.919 237.461 230.321 237.822 230.617C238.183 230.913 238.672 231.08 239.182 231.08Z" fill="white"/>
<path d="M239.454 57.9844L237.452 58.3622C238.174 58.1998 238.846 58.0751 239.454 57.9844Z" fill="black"/>
<path d="M230.116 61.06L230.539 60.8484C230.663 60.7841 230.788 60.7312 230.912 60.6708L230.944 60.7993C230.668 60.8824 230.392 60.9731 230.116 61.06Z" fill="black"/>
<path d="M195.087 194.426C194.627 199.743 194.167 205.006 193.748 210.085C191.447 237.949 190.131 261.536 190.131 270.083C190.131 270.896 190.131 271.572 190.167 272.098C190.175 272.462 190.209 272.825 190.269 273.186C190.632 274.92 191.884 276.878 194.139 278.854C197.517 281.798 203.137 284.734 211.223 286.955C219.176 289.143 229.517 290.636 242.436 290.802C246.095 259.847 247.319 223.843 247.319 189.555C247.319 180.018 247.222 170.613 247.061 161.483L248.442 161.861C248.603 170.873 248.695 180.154 248.695 189.563C248.695 224.066 247.457 260.308 243.747 291.441C243.73 291.582 243.649 291.712 243.521 291.807C243.392 291.901 243.225 291.953 243.053 291.951C225.269 291.788 212.217 289.136 203.335 285.527C201.793 284.905 200.297 284.211 198.852 283.449C198.346 283.181 197.867 282.912 197.402 282.64C195.862 281.749 194.432 280.737 193.131 279.617C190.738 277.535 189.334 275.4 188.902 273.379C188.833 272.968 188.793 272.554 188.782 272.139C188.782 271.591 188.745 270.903 188.745 270.083C188.745 263.951 189.422 250.268 190.632 232.84C191.465 220.839 192.556 207.066 193.854 192.786C194.346 193.47 194.765 194.022 195.087 194.426Z" fill="black"/>
<path d="M269.493 114.049C269.649 111.34 269.865 108.339 270.165 105.044C271.757 87.4659 273.644 63.0629 274.003 58.3546L288.528 63.5466L278.983 88.6448C278.954 88.7245 278.946 88.8081 278.96 88.8904L283.562 117.809L269.493 114.049Z" fill="white"/>
<path d="M289.679 64.3287L280.345 88.8639L285.016 118.198L283.562 117.82L278.96 88.9017C278.947 88.8194 278.954 88.7357 278.983 88.6561L288.528 63.5578L274.003 58.3659C273.644 63.0742 271.757 87.462 270.165 105.056C269.866 108.351 269.649 111.351 269.493 114.06L268.112 113.683C268.143 113.179 268.175 112.675 268.209 112.171C268.353 109.947 268.54 107.543 268.77 104.961C269.654 95.2046 270.611 83.3319 271.384 73.904C271.647 70.5787 271.886 67.5595 272.084 65.0429C272.125 64.5516 272.158 64.0793 272.194 63.6296C272.236 63.1119 272.273 62.6169 272.309 62.1559C272.42 60.7503 272.507 59.6204 272.567 58.8231C272.567 58.7891 272.567 58.7513 272.567 58.7211C272.609 58.1732 272.636 57.8029 272.65 57.6177V57.4817C272.657 57.3911 272.691 57.3033 272.748 57.2256C272.805 57.1479 272.884 57.0826 272.978 57.0352C273.073 56.9878 273.179 56.9597 273.29 56.9532C273.4 56.9467 273.51 56.9621 273.612 56.998L277.699 58.4603L285.099 61.1054L289.605 62.7152C289.759 62.7731 289.882 62.8744 289.952 63.0007C290.022 63.127 290.034 63.2697 289.987 63.4029L289.679 64.3287Z" fill="black"/>
<path d="M307.154 136.612C306.518 131.813 305.574 127.045 304.323 122.328C303.444 119.218 302.399 116.399 301.101 114.363C301.042 114.268 300.95 114.189 300.838 114.135C300.725 114.082 300.596 114.056 300.466 114.06L298.717 68.7159V68.6554C302.588 70.0195 306.62 72.812 310.596 76.8628C314.674 81.0194 318.701 86.4796 322.493 93.0357C327.661 101.972 332.397 112.942 336.3 125.385C336.195 125.463 336.121 125.566 336.089 125.68C336.057 125.793 336.068 125.912 336.12 126.02L307.154 136.612Z" fill="white"/>
<path d="M341.05 137.326C341.556 139.361 342.039 141.426 342.499 143.519C342.53 143.654 342.5 143.793 342.416 143.911C342.331 144.029 342.197 144.118 342.039 144.162L341.639 144.26C341.639 144.12 341.639 143.98 341.639 143.84C341.625 141.66 341.428 139.484 341.05 137.326Z" fill="black"/>
<path d="M337.395 125.582C337.361 125.511 337.309 125.447 337.244 125.393C337.178 125.339 337.1 125.296 337.015 125.267C336.929 125.238 336.837 125.224 336.744 125.225C336.651 125.225 336.56 125.241 336.475 125.272C336.402 125.297 336.335 125.333 336.277 125.377C332.388 112.934 327.652 101.949 322.47 93.0279C318.678 86.4718 314.646 81.0078 310.573 76.855C306.597 72.8042 302.565 70.0117 298.694 68.6476C298.598 68.6136 298.506 68.5758 298.409 68.5456C298.239 68.4884 298.104 68.3783 298.034 68.2394C297.963 68.1005 297.962 67.9442 298.032 67.8049C298.101 67.6656 298.235 67.5547 298.405 67.4966C298.574 67.4385 298.764 67.438 298.934 67.4951L298.994 67.5178C303.251 68.965 307.499 71.92 311.65 76.1446C317.9 82.5117 323.938 91.7809 329.249 103.249C333.066 111.603 336.231 120.147 338.725 128.831C337.971 126.806 337.368 125.597 337.345 125.582H337.395Z" fill="black"/>
<path d="M302.814 122.018C301.99 119.188 301.005 116.649 299.891 114.888C299.81 114.755 299.795 114.602 299.85 114.461C299.906 114.319 300.026 114.201 300.186 114.132C300.276 114.093 300.378 114.072 300.48 114.072C300.61 114.067 300.739 114.093 300.852 114.147C300.964 114.2 301.056 114.279 301.115 114.374C302.399 116.411 303.444 119.23 304.337 122.34C305.582 127.053 306.522 131.817 307.154 136.612H307.121C307.079 136.53 307.013 136.459 306.928 136.404C306.529 136.142 306.097 135.917 305.639 135.731C305.418 134.22 305.179 132.614 304.857 130.94C304.319 127.981 303.656 124.849 302.814 122.018Z" fill="black"/>
<path d="M255.957 129.81C254.92 128.927 253.74 128.164 252.451 127.543C251.99 127.343 251.553 127.135 251.12 126.927L257.067 111.922L298.948 123.11L294.686 133.872C291.648 133.679 288.353 133.6 285.053 133.6C273.791 133.6 262.585 134.477 262.576 134.477C262.476 134.485 262.379 134.51 262.292 134.552C262.206 134.594 262.131 134.651 262.074 134.719C262.074 134.719 261.904 134.923 261.637 135.293C261.361 134.987 261.043 134.639 260.689 134.265C259.232 132.697 257.652 131.209 255.957 129.81Z" fill="white"/>
<path d="M238.763 158.082L244.433 143.791C245.23 144.185 246.054 144.541 246.9 144.857C248.05 145.222 249.244 145.483 250.462 145.635C251.871 145.839 253.431 146.013 254.894 146.134C255.672 146.202 256.418 146.259 257.094 146.308C257.02 146.625 256.947 146.95 256.878 147.287C256.863 147.36 256.866 147.435 256.886 147.508C256.907 147.581 256.945 147.649 256.997 147.71C262.608 154.198 271.578 158.763 281.491 161.718C282.135 161.912 282.784 162.097 283.438 162.273L280.676 169.264L238.763 158.082Z" fill="white"/>
<path d="M249.422 162.118L248.446 161.857L247.066 161.48L237.695 158.978C237.608 158.956 237.527 158.92 237.456 158.872C237.386 158.824 237.328 158.766 237.285 158.699C237.242 158.633 237.216 158.56 237.207 158.486C237.199 158.411 237.208 158.336 237.235 158.264L243.218 143.172C243.623 143.391 244.024 143.599 244.424 143.791L238.763 158.082L280.644 169.271L283.406 162.281C283.843 162.402 284.28 162.515 284.722 162.628L281.735 170.159C281.709 170.231 281.665 170.298 281.607 170.356C281.549 170.415 281.477 170.463 281.396 170.498C281.315 170.533 281.227 170.555 281.136 170.561C281.044 170.568 280.952 170.56 280.865 170.537L259.395 164.801L258.056 164.442L249.422 162.118Z" fill="black"/>
<path d="M257.067 111.925L251.121 126.931C250.711 126.734 250.301 126.553 249.887 126.371L255.967 111.034C255.993 110.961 256.036 110.894 256.094 110.836C256.152 110.777 256.223 110.729 256.304 110.694C256.386 110.658 256.474 110.637 256.566 110.63C256.657 110.624 256.749 110.633 256.837 110.656L267.974 113.63L268.131 113.671L269.511 114.049L283.581 117.809L285.035 118.187L300.062 122.2C300.15 122.221 300.232 122.256 300.303 122.304C300.374 122.351 300.433 122.41 300.476 122.477C300.518 122.544 300.545 122.617 300.553 122.692C300.561 122.767 300.55 122.842 300.522 122.914L296.104 133.967L294.695 133.865L298.957 123.103L257.067 111.925Z" fill="black"/>
<path d="M210.887 184.704C210.887 184.874 210.832 185.119 210.781 185.433C210.689 186.056 210.546 186.944 210.348 187.957C209.921 190.293 209.283 192.599 208.438 194.857C207.975 196.169 207.266 197.413 206.335 198.545C205.983 198.964 205.508 199.305 204.955 199.535C204.818 199.581 204.676 199.615 204.531 199.637C202.798 197.509 201.296 195.259 200.044 192.915C199.998 192.82 199.956 192.73 199.915 192.639C200.679 191.849 201.535 190.92 202.419 189.873C204.861 187.043 206.84 183.962 208.305 180.709L210.896 184.602C210.892 184.643 210.892 184.67 210.887 184.704Z" fill="white"/>
<path d="M210.929 184.39C210.905 184.465 210.901 184.543 210.916 184.619C210.93 184.695 210.964 184.768 211.014 184.834C211.064 184.899 211.13 184.955 211.208 184.999C211.286 185.042 211.374 185.072 211.466 185.087C211.558 185.102 211.653 185.101 211.745 185.084C211.837 185.067 211.924 185.036 212 184.991C212.077 184.945 212.141 184.888 212.19 184.822C212.238 184.755 212.269 184.682 212.282 184.605V184.579C211.948 187.242 211.416 189.886 210.689 192.495C210.182 194.41 209.402 196.269 208.365 198.035C207.928 198.756 207.346 199.411 206.644 199.973C206.32 200.217 205.952 200.419 205.553 200.57C205.432 200.613 205.307 200.65 205.18 200.68C205.281 200.621 205.36 200.54 205.408 200.447C205.457 200.354 205.474 200.251 205.457 200.151C205.445 200.077 205.415 200.006 205.369 199.941C205.324 199.877 205.263 199.821 205.191 199.776C205.118 199.731 205.036 199.698 204.948 199.679C204.86 199.661 204.769 199.657 204.679 199.667L203.096 199.845C201.513 197.865 200.128 195.784 198.953 193.621C199.26 193.319 199.592 192.986 199.948 192.624C199.989 192.714 200.03 192.805 200.076 192.899C201.334 195.25 202.842 197.504 204.582 199.637C204.727 199.615 204.869 199.581 205.005 199.535C205.559 199.305 206.034 198.964 206.386 198.545C207.317 197.413 208.026 196.169 208.489 194.857C209.334 192.599 209.972 190.293 210.399 187.957C210.597 186.937 210.74 186.068 210.832 185.433C210.883 185.119 210.915 184.873 210.938 184.703C210.938 184.669 210.938 184.643 210.938 184.617L208.347 180.694C208.558 180.199 208.752 179.7 208.931 179.183L211.334 182.822L210.929 184.39Z" fill="black"/>
<path d="M209.166 107.417C208.986 107.397 208.804 107.435 208.658 107.524C208.512 107.613 208.415 107.746 208.388 107.893C208.388 107.893 205.779 124.055 204.062 137.462C203.766 139.679 203.612 141.908 203.602 144.139C203.602 148.915 204.311 153.098 205.236 158.075C206.161 163.051 207.284 168.799 208.149 176.772C207.141 181.257 204.251 185.607 201.526 188.886C199.992 190.732 198.31 192.492 196.491 194.154C196.376 194.01 196.247 193.84 196.095 193.644C195.538 192.918 194.715 191.845 193.771 190.47C191.181 186.731 188.839 182.88 186.757 178.933C181.621 169.256 176.494 156.083 176.499 142.125C176.487 138.196 176.918 134.274 177.787 130.411C180.545 118.429 185.403 106.839 192.211 96.0018C198.76 85.6141 206.741 76.6963 215.223 70.3897C220.46 66.49 225.882 63.588 231.252 61.9442L231.464 62.768L209.373 107.478C209.308 107.449 209.238 107.429 209.166 107.417Z" fill="white"/>
<path d="M231.229 61.9215C225.858 63.5728 220.437 66.4559 215.199 70.3669C206.722 76.6736 198.741 85.5914 192.188 95.9791C185.38 106.816 180.522 118.406 177.764 130.388C176.895 134.252 176.464 138.173 176.475 142.102C176.475 156.061 181.598 169.233 186.734 178.911C188.829 182.865 191.184 186.722 193.789 190.466C194.751 191.841 195.557 192.915 196.114 193.64C196.265 193.837 196.394 194.018 196.509 194.15C198.328 192.488 200.01 190.728 201.544 188.883C204.269 185.603 207.159 181.253 208.167 176.768C207.302 168.795 206.17 163.032 205.254 158.071C204.338 153.11 203.62 148.911 203.62 144.135C203.63 141.904 203.784 139.676 204.08 137.458C205.783 124.066 208.388 107.893 208.388 107.893C208.412 107.745 208.507 107.61 208.652 107.518C208.797 107.427 208.98 107.387 209.161 107.406C209.219 107.413 209.277 107.425 209.331 107.444C209.472 107.491 209.59 107.575 209.667 107.683C209.743 107.791 209.774 107.917 209.755 108.041C209.755 108.041 209.713 108.294 209.64 108.762C209.12 112.035 206.934 125.869 205.438 137.579C205.144 139.757 204.991 141.947 204.978 144.139C204.978 148.821 205.673 152.932 206.593 157.905C207.513 162.877 208.655 168.697 209.529 176.753C209.539 176.803 209.539 176.854 209.529 176.904C209.359 177.66 209.133 178.416 208.871 179.171C208.692 179.674 208.498 180.173 208.287 180.683C206.824 183.939 204.847 187.024 202.405 189.858C201.521 190.904 200.665 191.834 199.901 192.624C199.548 192.986 199.217 193.319 198.907 193.621C197.711 194.793 196.91 195.469 196.901 195.476C196.83 195.537 196.743 195.584 196.647 195.613C196.552 195.643 196.449 195.654 196.347 195.647C196.245 195.64 196.146 195.614 196.058 195.571C195.97 195.529 195.895 195.471 195.837 195.401C195.837 195.401 195.557 195.061 195.073 194.441C194.751 194.022 194.332 193.47 193.84 192.797C190.698 188.477 187.899 183.995 185.459 179.379C180.277 169.607 175.086 156.303 175.086 142.117C175.079 138.116 175.523 134.122 176.411 130.188C180.134 113.799 188.055 98.0196 198.042 85.512C203.031 79.2545 208.531 73.8169 214.288 69.5318C219.42 65.7153 224.758 62.8095 230.129 61.0675C230.405 60.9806 230.681 60.8899 230.958 60.8068L231.229 61.9215Z" fill="black"/>
<path d="M246.587 125.574C245.893 125.578 245.206 125.69 244.562 125.903C243.768 126.17 243.024 126.529 242.353 126.968C242.1 127.131 241.851 127.308 241.612 127.494L227.644 116.72L238.147 83.7322C238.172 83.6466 238.172 83.5572 238.147 83.4715L232.274 60.5007L246.799 57.7611C246.845 58.037 246.886 58.4035 246.928 58.8456C247.011 59.7298 247.084 60.9163 247.149 62.3447C247.278 65.1938 247.37 68.9915 247.439 73.2312C247.581 81.7106 247.641 91.9547 247.742 99.9505C247.807 105.282 247.89 109.613 248.028 111.778C248.193 114.306 248.249 117.261 248.249 120.163C248.249 122.098 248.226 124.013 248.189 125.763C247.669 125.637 247.129 125.573 246.587 125.574Z" fill="white"/>
<path d="M248.12 57.3379C248.156 57.5193 248.193 57.7385 248.225 57.9879C248.258 58.2373 248.281 58.4451 248.304 58.7134C248.423 59.9339 248.515 61.6986 248.594 63.8562C248.617 64.3815 248.635 64.9332 248.649 65.5C248.69 66.7545 248.722 68.1111 248.755 69.547C248.911 76.6963 248.98 85.7955 249.058 93.8215C249.137 101.847 249.229 108.838 249.413 111.729C249.578 114.287 249.634 117.257 249.634 120.174C249.634 122.279 249.606 124.357 249.565 126.22C249.121 126.035 248.659 125.883 248.184 125.763C248.221 124.013 248.244 122.098 248.244 120.163C248.244 117.261 248.189 114.306 248.023 111.778C247.885 109.613 247.802 105.282 247.738 99.9506C247.636 91.9548 247.576 81.7107 247.434 73.2312C247.365 68.9915 247.273 65.1939 247.144 62.3447C247.079 60.9164 247.006 59.7299 246.923 58.8457C246.881 58.4035 246.84 58.037 246.794 57.7612L232.269 60.5007L238.142 83.4716C238.167 83.5572 238.167 83.6466 238.142 83.7323L227.639 116.72L241.607 127.494C241.281 127.753 240.974 128.028 240.687 128.317L226.42 117.318C226.328 117.248 226.261 117.159 226.226 117.061C226.191 116.962 226.19 116.857 226.222 116.758L236.807 83.5736L231.482 62.7453L231.27 61.9215L230.985 60.7879L230.953 60.6594L230.829 60.1795C230.795 60.0412 230.826 59.8976 230.914 59.7767C231.003 59.6558 231.143 59.5664 231.307 59.5258L237.451 58.3658L239.453 57.9879L247.181 56.5293C247.336 56.5001 247.499 56.5167 247.641 56.5761C247.783 56.6355 247.896 56.7339 247.958 56.8543C247.96 56.8643 247.96 56.8745 247.958 56.8845C248.03 57.0309 248.084 57.1828 248.12 57.3379Z" fill="black"/>
<path d="M211.476 185.055C211.387 185.041 211.301 185.013 211.225 184.972C211.149 184.932 211.083 184.879 211.032 184.817C210.982 184.755 210.946 184.685 210.928 184.612C210.91 184.539 210.91 184.463 210.928 184.39L211.292 182.837L212.341 178.374C212.354 178.298 212.385 178.224 212.433 178.158C212.482 178.091 212.546 178.034 212.623 177.989C212.699 177.944 212.786 177.912 212.878 177.895C212.97 177.879 213.065 177.878 213.157 177.893C213.249 177.907 213.337 177.937 213.415 177.981C213.493 178.024 213.559 178.081 213.609 178.146C213.659 178.211 213.693 178.284 213.707 178.36C213.722 178.437 213.718 178.515 213.694 178.59L212.314 184.579V184.605C212.297 184.681 212.262 184.754 212.211 184.818C212.159 184.882 212.092 184.937 212.014 184.979C211.935 185.021 211.847 185.05 211.754 185.063C211.662 185.076 211.567 185.073 211.476 185.055Z" fill="black"/>
<path d="M204.66 199.667C204.75 199.657 204.842 199.661 204.929 199.679C205.017 199.698 205.1 199.731 205.172 199.776C205.244 199.821 205.305 199.877 205.351 199.941C205.397 200.006 205.426 200.077 205.438 200.151C205.455 200.251 205.439 200.354 205.39 200.447C205.341 200.54 205.262 200.621 205.162 200.68C205.071 200.738 204.963 200.776 204.849 200.789L199.694 201.368C199.511 201.388 199.326 201.348 199.179 201.256C199.031 201.165 198.935 201.029 198.91 200.878C198.885 200.728 198.933 200.576 199.045 200.455C199.157 200.334 199.323 200.254 199.506 200.234L203.077 199.833L204.66 199.667Z" fill="black"/>
<path d="M241.658 166.898C241.767 166.898 241.873 166.925 241.963 166.974C242.053 167.024 242.123 167.094 242.165 167.177C242.206 167.259 242.216 167.35 242.195 167.437C242.173 167.524 242.121 167.605 242.044 167.667C241.967 167.73 241.869 167.773 241.762 167.789C241.656 167.806 241.545 167.797 241.445 167.762C241.345 167.728 241.26 167.67 241.201 167.595C241.141 167.521 241.11 167.433 241.11 167.344C241.11 167.285 241.125 167.227 241.152 167.173C241.18 167.118 241.22 167.069 241.271 167.028C241.322 166.986 241.383 166.953 241.449 166.931C241.515 166.909 241.586 166.898 241.658 166.898Z" fill="black"/>
<path d="M241.658 168.927C241.277 168.928 240.904 168.836 240.586 168.662C240.268 168.489 240.02 168.242 239.874 167.953C239.727 167.663 239.688 167.345 239.762 167.038C239.836 166.73 240.019 166.448 240.289 166.226C240.558 166.004 240.902 165.853 241.276 165.792C241.65 165.73 242.038 165.761 242.391 165.881C242.743 166.001 243.045 166.204 243.257 166.464C243.469 166.725 243.582 167.031 243.582 167.344C243.582 167.763 243.38 168.166 243.019 168.462C242.658 168.759 242.169 168.926 241.658 168.927ZM241.658 167.794C241.767 167.794 241.873 167.767 241.963 167.718C242.053 167.669 242.123 167.598 242.164 167.516C242.206 167.434 242.217 167.344 242.196 167.256C242.174 167.169 242.122 167.089 242.046 167.026C241.969 166.963 241.871 166.92 241.765 166.903C241.659 166.886 241.549 166.895 241.449 166.929C241.349 166.963 241.263 167.02 241.203 167.094C241.143 167.168 241.111 167.255 241.111 167.344C241.11 167.403 241.124 167.462 241.151 167.517C241.178 167.572 241.219 167.621 241.27 167.663C241.321 167.705 241.381 167.738 241.448 167.761C241.515 167.783 241.586 167.794 241.658 167.794Z" fill="black"/>
<path d="M241.658 185.452C241.766 185.452 241.872 185.478 241.962 185.528C242.052 185.577 242.123 185.647 242.164 185.729C242.206 185.812 242.216 185.902 242.195 185.989C242.174 186.076 242.122 186.157 242.045 186.219C241.969 186.282 241.871 186.325 241.765 186.342C241.659 186.36 241.549 186.351 241.449 186.317C241.348 186.283 241.263 186.225 241.203 186.151C241.143 186.077 241.11 185.99 241.11 185.901C241.11 185.842 241.124 185.784 241.151 185.729C241.178 185.674 241.219 185.624 241.269 185.582C241.32 185.541 241.381 185.507 241.448 185.485C241.515 185.463 241.586 185.451 241.658 185.452Z" fill="black"/>
<path d="M241.658 184.318C242.04 184.318 242.412 184.411 242.73 184.585C243.047 184.759 243.294 185.006 243.44 185.295C243.586 185.585 243.624 185.903 243.549 186.21C243.475 186.517 243.291 186.799 243.022 187.021C242.752 187.242 242.408 187.393 242.034 187.454C241.66 187.515 241.273 187.484 240.92 187.364C240.568 187.244 240.267 187.041 240.055 186.781C239.843 186.521 239.73 186.214 239.73 185.901C239.729 185.693 239.779 185.487 239.875 185.295C239.972 185.102 240.114 184.928 240.293 184.781C240.472 184.633 240.685 184.517 240.92 184.438C241.154 184.358 241.405 184.317 241.658 184.318ZM241.658 186.347C241.767 186.347 241.873 186.321 241.963 186.271C242.053 186.222 242.123 186.151 242.165 186.069C242.206 185.986 242.216 185.896 242.195 185.808C242.173 185.721 242.121 185.641 242.044 185.578C241.967 185.515 241.869 185.473 241.762 185.456C241.656 185.439 241.545 185.449 241.445 185.483C241.345 185.518 241.26 185.576 241.201 185.65C241.141 185.725 241.11 185.812 241.11 185.901C241.11 185.96 241.125 186.018 241.152 186.073C241.18 186.127 241.22 186.176 241.271 186.218C241.322 186.259 241.383 186.292 241.449 186.314C241.515 186.336 241.586 186.348 241.658 186.347Z" fill="black"/>
<path d="M241.658 207.296C241.766 207.296 241.872 207.323 241.962 207.372C242.052 207.422 242.123 207.492 242.164 207.574C242.206 207.656 242.216 207.747 242.195 207.834C242.174 207.921 242.122 208.001 242.045 208.064C241.969 208.127 241.871 208.17 241.765 208.187C241.659 208.204 241.549 208.196 241.449 208.162C241.348 208.127 241.263 208.07 241.203 207.996C241.143 207.922 241.11 207.835 241.11 207.746C241.11 207.687 241.124 207.628 241.151 207.573C241.178 207.519 241.219 207.469 241.269 207.427C241.32 207.385 241.381 207.352 241.448 207.33C241.515 207.307 241.586 207.296 241.658 207.296Z" fill="black"/>
<path d="M239.73 207.746C239.729 207.433 239.841 207.126 240.053 206.866C240.264 206.605 240.565 206.401 240.917 206.281C241.269 206.16 241.657 206.128 242.032 206.189C242.406 206.25 242.75 206.4 243.02 206.622C243.29 206.843 243.474 207.125 243.549 207.432C243.624 207.739 243.586 208.058 243.44 208.347C243.294 208.637 243.047 208.885 242.73 209.059C242.413 209.233 242.04 209.326 241.658 209.326C241.405 209.326 241.155 209.286 240.921 209.207C240.687 209.127 240.474 209.011 240.295 208.864C240.116 208.718 239.974 208.543 239.877 208.352C239.78 208.16 239.73 207.954 239.73 207.746ZM241.658 208.192C241.767 208.192 241.873 208.166 241.963 208.116C242.053 208.067 242.123 207.996 242.165 207.914C242.206 207.831 242.216 207.741 242.195 207.653C242.173 207.566 242.121 207.486 242.044 207.423C241.967 207.36 241.869 207.318 241.762 207.301C241.656 207.284 241.545 207.294 241.445 207.328C241.345 207.363 241.26 207.421 241.201 207.495C241.141 207.57 241.11 207.657 241.111 207.746C241.11 207.805 241.125 207.863 241.152 207.918C241.18 207.972 241.22 208.021 241.271 208.063C241.322 208.104 241.383 208.137 241.449 208.159C241.515 208.181 241.586 208.193 241.658 208.192Z" fill="black"/>
<path d="M239.182 229.036C239.291 229.035 239.397 229.061 239.488 229.109C239.578 229.158 239.649 229.228 239.691 229.31C239.734 229.393 239.745 229.483 239.724 229.571C239.704 229.658 239.652 229.739 239.576 229.802C239.499 229.865 239.402 229.908 239.295 229.926C239.189 229.944 239.079 229.935 238.978 229.901C238.878 229.867 238.792 229.809 238.732 229.735C238.671 229.661 238.639 229.574 238.639 229.485C238.639 229.367 238.696 229.253 238.798 229.169C238.9 229.084 239.038 229.037 239.182 229.036Z" fill="black"/>
<path d="M239.182 227.902C239.564 227.901 239.937 227.993 240.255 228.167C240.572 228.34 240.82 228.587 240.967 228.876C241.114 229.166 241.152 229.484 241.078 229.792C241.005 230.099 240.821 230.381 240.552 230.603C240.282 230.825 239.939 230.976 239.565 231.038C239.19 231.099 238.802 231.068 238.45 230.948C238.097 230.828 237.796 230.625 237.584 230.365C237.371 230.105 237.258 229.798 237.258 229.485C237.258 229.066 237.461 228.664 237.821 228.367C238.182 228.07 238.671 227.903 239.182 227.902ZM239.182 229.931C239.291 229.932 239.397 229.906 239.488 229.857C239.579 229.808 239.65 229.737 239.692 229.655C239.734 229.573 239.745 229.482 239.724 229.394C239.703 229.307 239.651 229.226 239.574 229.163C239.497 229.1 239.399 229.057 239.292 229.04C239.186 229.023 239.075 229.032 238.975 229.067C238.875 229.101 238.789 229.159 238.729 229.234C238.67 229.308 238.638 229.396 238.639 229.485C238.636 229.545 238.649 229.604 238.675 229.66C238.701 229.716 238.741 229.767 238.791 229.81C238.842 229.853 238.903 229.887 238.97 229.911C239.037 229.934 239.109 229.946 239.182 229.946V229.931Z" fill="black"/>
<path d="M288.551 180.925C288.732 180.925 288.906 180.984 289.034 181.088C289.163 181.193 289.236 181.335 289.237 181.484C289.242 181.545 289.253 181.606 289.269 181.665C289.506 182.47 289.799 183.262 290.148 184.038C291.602 187.402 294.787 193.225 299.753 197.691C299.852 197.804 299.896 197.943 299.878 198.082C299.86 198.22 299.781 198.348 299.655 198.441C299.53 198.535 299.366 198.587 299.197 198.588C299.027 198.589 298.863 198.539 298.736 198.447C295.031 195.114 292.33 191.124 290.544 187.866C289.788 186.5 289.12 185.103 288.542 183.68C288.316 183.128 288.151 182.667 288.04 182.308C287.98 182.13 287.939 181.975 287.907 181.847C287.877 181.73 287.86 181.611 287.856 181.492C287.856 181.417 287.874 181.343 287.909 181.274C287.944 181.205 287.995 181.142 288.06 181.089C288.125 181.037 288.201 180.995 288.285 180.967C288.37 180.939 288.46 180.924 288.551 180.925Z" fill="black"/>
<path d="M252.17 47.3962L252.289 46.2626L254.59 46.3797C254.291 46.5346 253.951 46.6933 253.596 46.8445C253.104 47.0561 252.598 47.2375 252.17 47.3962Z" fill="black"/>
<path d="M251.7 45.0837H251.834L256.252 45.3104C256.352 45.3158 256.45 45.3392 256.538 45.3789C256.627 45.4186 256.703 45.4737 256.763 45.5403C256.823 45.6069 256.864 45.6834 256.884 45.7644C256.904 45.8455 256.902 45.9291 256.878 46.0095C256.796 46.2476 256.637 46.4631 256.418 46.6329C256.028 46.9394 255.594 47.2047 255.124 47.4227C254.38 47.7799 253.611 48.1029 252.823 48.3901C252.501 48.511 252.22 48.6092 252.013 48.681L251.636 48.8133C251.526 48.8488 251.407 48.8608 251.291 48.8483C251.174 48.8358 251.063 48.7991 250.968 48.7417C250.873 48.6842 250.798 48.608 250.749 48.52C250.7 48.4321 250.679 48.3353 250.688 48.2389L250.899 46.1568L250.955 45.6089C250.969 45.4581 251.055 45.3181 251.195 45.2196C251.335 45.1211 251.517 45.0722 251.7 45.0837ZM254.59 46.3647L252.289 46.2475L252.17 47.3811C252.598 47.2224 253.09 47.0259 253.596 46.8143C253.951 46.6783 254.291 46.5196 254.59 46.3647Z" fill="black"/>
<path d="M250.706 144.524C249.597 144.39 248.509 144.155 247.462 143.825C244.73 142.78 242.225 141.376 240.043 139.669C239.451 139.208 238.933 138.687 238.501 138.119C238.222 137.65 238.094 137.13 238.128 136.608C238.217 134.993 238.699 133.408 239.546 131.949C240.443 130.316 241.736 128.786 243.191 127.872C243.759 127.498 244.388 127.192 245.059 126.961C245.543 126.8 246.06 126.715 246.583 126.712C247.435 126.74 248.268 126.933 249.013 127.275C249.86 127.622 250.766 128.098 251.802 128.552C252.891 129.073 253.893 129.708 254.784 130.441C255.863 131.306 256.886 132.217 257.849 133.169C259.133 134.424 260.238 135.626 260.928 136.404C259.304 139.2 258.109 142.151 257.371 145.189H257.094C255.18 145.038 252.745 144.827 250.706 144.524Z" fill="white"/>
<path d="M250.462 145.643C249.244 145.49 248.05 145.229 246.9 144.864C246.054 144.548 245.23 144.192 244.433 143.799C244.033 143.606 243.633 143.398 243.228 143.179C242.648 142.866 242.068 142.533 241.511 142.189C240.651 141.66 239.834 141.084 239.067 140.466C238.395 139.936 237.806 139.34 237.314 138.69C236.905 138.048 236.709 137.328 236.748 136.604C236.84 134.828 237.369 133.085 238.303 131.48C238.921 130.344 239.721 129.28 240.683 128.317C240.969 128.028 241.277 127.753 241.603 127.494C241.842 127.309 242.091 127.116 242.344 126.968C243.015 126.529 243.759 126.17 244.553 125.903C245.197 125.69 245.884 125.578 246.578 125.574C247.124 125.576 247.667 125.644 248.189 125.774C248.664 125.894 249.126 126.047 249.57 126.232L249.634 126.258C249.721 126.292 249.809 126.334 249.892 126.371C250.306 126.545 250.716 126.749 251.125 126.931C251.535 127.112 252 127.346 252.455 127.547C253.744 128.168 254.924 128.931 255.962 129.814C257.66 131.216 259.243 132.708 260.703 134.28C261.057 134.658 261.374 135.002 261.651 135.308C261.462 135.58 261.19 135.95 260.933 136.419C260.242 135.641 259.138 134.439 257.854 133.184C256.891 132.232 255.868 131.321 254.789 130.456C253.898 129.723 252.896 129.088 251.806 128.567C250.771 128.113 249.864 127.637 249.017 127.29C248.272 126.948 247.44 126.755 246.587 126.727C246.065 126.73 245.548 126.815 245.064 126.976C244.393 127.207 243.764 127.513 243.195 127.887C241.741 128.801 240.434 130.332 239.55 131.964C238.703 133.42 238.22 135 238.128 136.612C238.094 137.133 238.222 137.654 238.501 138.123C238.933 138.691 239.451 139.212 240.043 139.672C242.225 141.379 244.73 142.783 247.462 143.829C248.509 144.159 249.597 144.393 250.706 144.528C252.745 144.83 255.18 145.042 257.094 145.178H257.37C257.274 145.556 257.182 145.934 257.094 146.312C256.418 146.263 255.672 146.206 254.894 146.138C253.431 146.013 251.871 145.847 250.462 145.643Z" fill="black"/>
<path d="M336.125 126.031L336.157 126.1C336.185 126.16 336.231 126.251 336.286 126.372C336.397 126.613 336.558 126.972 336.746 127.437C337.133 128.359 337.667 129.704 338.169 131.329C339.492 135.411 340.187 139.613 340.24 143.837C340.24 149.063 339.002 154.64 335.228 159.447C334.426 160.385 333.366 161.155 332.135 161.695C330.489 162.455 328.732 163.042 326.907 163.441C322.797 164.393 317.555 164.907 311.774 164.907C301.618 164.887 291.538 163.454 281.965 160.667C272.3 157.795 263.68 153.378 258.291 147.253C259.782 140.273 262.369 136.495 263.045 135.592H263.211L264.628 135.478C265.853 135.395 267.597 135.289 269.691 135.18C273.884 134.961 279.475 134.741 285.063 134.741C288.477 134.741 291.888 134.825 294.976 135.036C297.657 135.176 300.314 135.531 302.91 136.098C304.042 136.332 305.11 136.74 306.058 137.3C306.178 137.382 306.328 137.429 306.484 137.432C306.64 137.435 306.793 137.394 306.917 137.316C307.041 137.238 307.129 137.127 307.166 137.003C307.203 136.878 307.188 136.747 307.121 136.631H307.154L336.125 126.031Z" fill="white"/>
<path d="M308.916 165.988C300.716 165.758 292.59 164.628 284.754 162.628C284.294 162.515 283.875 162.402 283.438 162.281C282.784 162.102 282.135 161.917 281.491 161.725C271.578 158.77 262.622 154.206 256.998 147.718C256.945 147.657 256.907 147.588 256.886 147.516C256.866 147.443 256.863 147.368 256.878 147.294C256.947 146.958 257.021 146.633 257.094 146.316C257.182 145.938 257.274 145.56 257.37 145.182C258.109 142.144 259.304 139.193 260.928 136.397C261.209 135.928 261.457 135.558 261.646 135.286C261.913 134.908 262.074 134.723 262.083 134.711C262.14 134.643 262.215 134.587 262.301 134.545C262.388 134.503 262.485 134.477 262.585 134.469C262.585 134.469 273.801 133.589 285.062 133.589C288.362 133.589 291.658 133.668 294.695 133.861L296.103 133.963C296.789 134.02 297.484 134.08 298.115 134.148C299.867 134.319 301.601 134.601 303.301 134.991C304.107 135.184 304.89 135.437 305.639 135.747C306.097 135.932 306.529 136.158 306.928 136.419C307.013 136.474 307.079 136.546 307.121 136.627C307.187 136.743 307.203 136.875 307.166 136.999C307.129 137.124 307.041 137.234 306.917 137.312C306.793 137.39 306.64 137.431 306.484 137.428C306.328 137.425 306.178 137.378 306.058 137.296C305.11 136.736 304.042 136.328 302.91 136.094C300.314 135.528 297.657 135.172 294.976 135.032C291.888 134.821 288.477 134.738 285.062 134.738C279.475 134.738 273.883 134.957 269.691 135.176C267.597 135.286 265.852 135.391 264.628 135.475L263.211 135.573H263.045C262.368 136.476 259.782 140.255 258.291 147.234C263.68 153.359 272.319 157.776 281.965 160.648C291.538 163.435 301.617 164.868 311.774 164.888C317.555 164.888 322.797 164.374 326.907 163.422C328.734 163.027 330.494 162.444 332.144 161.687C333.375 161.148 334.435 160.377 335.237 159.439C339.011 154.633 340.249 149.055 340.249 143.829C340.195 139.605 339.498 135.403 338.173 131.322C337.658 129.686 337.138 128.352 336.751 127.43C336.558 126.965 336.397 126.606 336.291 126.364C336.235 126.243 336.189 126.152 336.162 126.092L336.13 126.024C336.077 125.916 336.066 125.797 336.098 125.683C336.13 125.57 336.204 125.467 336.309 125.389C336.367 125.344 336.434 125.309 336.507 125.283C336.592 125.253 336.684 125.237 336.776 125.236C336.869 125.236 336.961 125.25 337.047 125.279C337.133 125.308 337.21 125.351 337.276 125.404C337.341 125.458 337.393 125.523 337.427 125.593C337.427 125.593 338.035 126.817 338.808 128.843C339.837 131.622 340.606 134.462 341.109 137.337C341.485 139.495 341.679 141.672 341.689 143.852C341.689 143.992 341.689 144.132 341.689 144.271C341.625 149.52 340.309 155.15 336.466 160.078C335.546 161.165 334.327 162.06 332.908 162.689C330.607 163.796 327.533 164.627 323.947 165.19C319.954 165.784 315.902 166.069 311.843 166.044C311.355 166.044 310.863 166.044 310.366 166.044C309.869 166.044 309.381 166.003 308.916 165.988Z" fill="black"/>
<path d="M122.895 109.663C117.486 109.611 113.153 105.969 113.216 101.528C113.28 97.0874 117.716 93.5296 123.124 93.5815C128.533 93.6334 132.866 97.2754 132.803 101.716C132.739 106.157 128.304 109.715 122.895 109.663Z" fill="white"/>
<path d="M118.34 97.8044C119.605 96.7672 120.609 95.5349 121.293 94.1783C121.977 92.8217 122.328 91.3676 122.325 89.8993C122.326 89.7492 122.399 89.6054 122.528 89.4988C122.657 89.3925 122.832 89.3327 123.015 89.3325C123.198 89.3327 123.374 89.3925 123.503 89.4988C123.632 89.6054 123.705 89.7492 123.706 89.8993C123.703 91.3686 124.053 92.8239 124.736 94.182C125.418 95.5401 126.421 96.7742 127.685 97.8139C128.95 98.8535 130.452 99.6781 132.105 100.241C133.758 100.803 135.53 101.092 137.319 101.092C137.502 101.093 137.677 101.153 137.807 101.258C137.937 101.364 138.01 101.508 138.01 101.659C138.01 101.809 137.937 101.953 137.808 102.059C137.678 102.166 137.503 102.226 137.319 102.226C133.712 102.224 130.253 103.399 127.7 105.492C125.147 107.584 123.711 110.423 123.706 113.384C123.706 113.534 123.633 113.679 123.504 113.785C123.374 113.891 123.199 113.951 123.015 113.951C122.925 113.952 122.835 113.937 122.751 113.909C122.667 113.88 122.591 113.838 122.528 113.785C122.398 113.678 122.325 113.534 122.325 113.384C122.32 110.423 120.884 107.585 118.333 105.493C115.781 103.401 112.322 102.225 108.716 102.226C108.533 102.225 108.358 102.166 108.228 102.059C108.1 101.953 108.027 101.809 108.026 101.659C108.026 101.508 108.098 101.364 108.228 101.258C108.357 101.152 108.533 101.092 108.716 101.092C110.505 101.092 112.276 100.801 113.927 100.237C115.579 99.6727 117.078 98.846 118.34 97.8044ZM123.015 109.685C123.742 107.797 125.012 106.081 126.718 104.681C128.423 103.281 130.514 102.24 132.814 101.644C130.514 101.047 128.423 100.004 126.718 98.6038C125.012 97.2036 123.742 95.4868 123.015 93.5987C122.289 95.4863 121.019 97.2026 119.315 98.6028C117.61 100.003 115.52 101.046 113.222 101.644C115.52 102.24 117.61 103.283 119.315 104.682C121.019 106.082 122.289 107.798 123.015 109.685Z" fill="black"/>
<path d="M362.197 229.217C361.47 227.329 360.201 225.614 358.496 224.214C356.792 222.814 354.702 221.772 352.404 221.175C354.702 220.578 356.792 219.535 358.497 218.135C360.201 216.734 361.47 215.018 362.197 213.131C362.924 215.018 364.193 216.734 365.898 218.135C367.603 219.535 369.692 220.578 371.991 221.175C369.692 221.772 367.603 222.814 365.898 224.214C364.193 225.614 362.924 227.329 362.197 229.217Z" fill="white"/>
<path d="M376.984 220.775C377.114 220.881 377.187 221.025 377.187 221.175C377.186 221.326 377.113 221.469 376.984 221.576C376.921 221.629 376.845 221.671 376.761 221.7C376.677 221.728 376.587 221.743 376.497 221.742C374.709 221.742 372.94 222.031 371.289 222.593C369.637 223.154 368.137 223.977 366.874 225.015C365.61 226.053 364.607 227.284 363.923 228.64C363.24 229.996 362.888 231.449 362.888 232.916C362.888 233.066 362.815 233.21 362.685 233.317C362.556 233.423 362.38 233.483 362.197 233.483C362.014 233.483 361.838 233.423 361.709 233.317C361.58 233.21 361.507 233.066 361.507 232.916C361.507 231.448 361.155 229.995 360.47 228.639C359.786 227.283 358.783 226.051 357.519 225.014C356.255 223.976 354.754 223.153 353.103 222.592C351.451 222.03 349.681 221.742 347.893 221.742C347.71 221.741 347.535 221.682 347.405 221.576C347.28 221.468 347.209 221.325 347.207 221.175C347.208 221.026 347.279 220.882 347.405 220.775C347.535 220.669 347.71 220.61 347.893 220.609C349.681 220.609 351.451 220.321 353.103 219.759C354.754 219.198 356.255 218.375 357.519 217.337C358.783 216.3 359.786 215.068 360.47 213.712C361.155 212.356 361.507 210.903 361.507 209.435C361.506 209.36 361.524 209.286 361.558 209.217C361.593 209.149 361.643 209.086 361.708 209.033C361.772 208.98 361.848 208.939 361.932 208.91C362.016 208.882 362.106 208.868 362.197 208.868C362.288 208.868 362.378 208.882 362.462 208.91C362.546 208.939 362.622 208.98 362.687 209.033C362.751 209.086 362.802 209.149 362.836 209.217C362.871 209.286 362.888 209.36 362.888 209.435C362.888 210.902 363.24 212.355 363.923 213.711C364.607 215.067 365.61 216.298 366.874 217.336C368.137 218.374 369.637 219.197 371.289 219.758C372.94 220.32 374.709 220.609 376.497 220.609C376.587 220.608 376.677 220.623 376.761 220.651C376.845 220.68 376.921 220.722 376.984 220.775ZM362.197 213.131C361.47 215.018 360.201 216.734 358.496 218.135C356.792 219.535 354.702 220.578 352.403 221.175C354.702 221.772 356.792 222.814 358.496 224.214C360.201 225.614 361.47 227.329 362.197 229.217C362.924 227.329 364.193 225.614 365.898 224.214C367.603 222.814 369.692 221.772 371.991 221.175C369.692 220.578 367.602 219.535 365.898 218.135C364.193 216.734 362.924 215.018 362.197 213.131Z" fill="black"/>
<path d="M128.63 335.792C128.63 333.584 129.427 331.426 130.921 329.591C132.415 327.755 134.538 326.324 137.023 325.479C139.507 324.634 142.24 324.413 144.878 324.844C147.515 325.275 149.937 326.338 151.839 327.899C153.74 329.46 155.035 331.449 155.559 333.614C156.084 335.78 155.815 338.024 154.786 340.064C153.757 342.103 152.014 343.847 149.778 345.073C147.543 346.3 144.914 346.954 142.225 346.954C140.438 346.959 138.668 346.674 137.015 346.115C135.363 345.556 133.862 344.734 132.599 343.696C131.335 342.659 130.334 341.426 129.653 340.07C128.972 338.713 128.624 337.259 128.63 335.792Z" fill="#7EA871"/>
<path d="M356.463 254.039C356.464 255.431 355.962 256.792 355.02 257.95C354.079 259.107 352.741 260.01 351.175 260.543C349.609 261.076 347.885 261.215 346.223 260.944C344.56 260.673 343.032 260.002 341.834 259.018C340.635 258.034 339.819 256.78 339.488 255.415C339.158 254.05 339.328 252.635 339.977 251.349C340.626 250.063 341.725 248.964 343.135 248.191C344.545 247.418 346.203 247.006 347.898 247.007C350.169 247.007 352.348 247.748 353.954 249.067C355.56 250.386 356.463 252.174 356.463 254.039ZM342.196 254.039C342.195 254.962 342.527 255.865 343.151 256.633C343.775 257.401 344.663 258 345.701 258.353C346.74 258.707 347.883 258.8 348.986 258.621C350.088 258.441 351.102 257.997 351.897 257.344C352.692 256.692 353.234 255.86 353.454 254.955C353.673 254.05 353.561 253.111 353.131 252.258C352.701 251.405 351.973 250.676 351.038 250.163C350.103 249.65 349.004 249.376 347.879 249.376C346.376 249.379 344.935 249.872 343.873 250.746C342.81 251.62 342.214 252.805 342.214 254.039H342.196Z" fill="#2A6049"/>
<path d="M385.066 202.112C383.372 202.112 381.716 201.7 380.308 200.927C378.899 200.154 377.801 199.056 377.153 197.771C376.505 196.486 376.335 195.072 376.666 193.708C376.996 192.344 377.812 191.091 379.01 190.108C380.208 189.124 381.734 188.454 383.395 188.183C385.057 187.912 386.779 188.051 388.344 188.583C389.909 189.115 391.246 190.017 392.188 191.173C393.129 192.33 393.631 193.689 393.631 195.08C393.63 196.945 392.727 198.733 391.121 200.051C389.515 201.37 387.337 202.111 385.066 202.112ZM385.066 190.398C383.942 190.397 382.842 190.671 381.907 191.183C380.971 191.696 380.242 192.424 379.811 193.277C379.38 194.13 379.267 195.069 379.487 195.974C379.706 196.88 380.247 197.712 381.042 198.365C381.838 199.018 382.851 199.462 383.954 199.642C385.057 199.822 386.2 199.729 387.239 199.376C388.278 199.022 389.165 198.423 389.789 197.655C390.414 196.887 390.746 195.984 390.745 195.061C390.74 193.827 390.14 192.646 389.075 191.775C388.01 190.904 386.569 190.416 385.066 190.417V190.398Z" fill="#2A6049"/>
<path d="M146.257 57.6367C146.084 57.6804 145.939 57.7781 145.853 57.9089C145.766 58.0396 145.746 58.1929 145.797 58.3357C147.214 62.2505 148.843 66.271 149.736 68.406L131.088 58.2224C130.975 58.1601 130.842 58.1271 130.706 58.1279H15.9011C12.8496 58.1279 9.92305 57.1326 7.7653 55.361C5.60756 53.5894 4.39537 51.1865 4.39537 48.6811V24.6485C4.39537 22.143 5.60756 19.7402 7.7653 17.9686C9.92305 16.1969 12.8496 15.2017 15.9011 15.2017H142.575C145.627 15.2017 148.553 16.1969 150.711 17.9686C152.869 19.7402 154.081 22.143 154.081 24.6485V48.6698C154.085 50.6489 153.332 52.5792 151.928 54.1881C150.525 55.7971 148.541 57.0033 146.257 57.6367ZM67.3549 44.789H122.026C122.209 44.789 122.384 44.7293 122.514 44.623C122.643 44.5167 122.716 44.3725 122.716 44.2222C122.716 44.0719 122.643 43.9277 122.514 43.8214C122.384 43.7151 122.209 43.6554 122.026 43.6554H67.3549C67.1718 43.6554 66.9962 43.7151 66.8668 43.8214C66.7373 43.9277 66.6646 44.0719 66.6646 44.2222C66.6646 44.3725 66.7373 44.5167 66.8668 44.623C66.9962 44.7293 67.1718 44.789 67.3549 44.789ZM31.6088 35.7201H122.026C122.209 35.7201 122.384 35.6604 122.514 35.5541C122.643 35.4478 122.716 35.3036 122.716 35.1533C122.716 35.003 122.643 34.8588 122.514 34.7525C122.384 34.6462 122.209 34.5865 122.026 34.5865H31.6088C31.4257 34.5865 31.2501 34.6462 31.1207 34.7525C30.9912 34.8588 30.9185 35.003 30.9185 35.1533C30.9185 35.3036 30.9912 35.4478 31.1207 35.5541C31.2501 35.6604 31.4257 35.7201 31.6088 35.7201ZM31.6088 26.6247H109.153C109.336 26.6247 109.512 26.565 109.641 26.4587C109.771 26.3524 109.843 26.2082 109.843 26.0579C109.843 25.9076 109.771 25.7634 109.641 25.6571C109.512 25.5508 109.336 25.4911 109.153 25.4911H31.6088C31.4257 25.4911 31.2501 25.5508 31.1207 25.6571C30.9912 25.7634 30.9185 25.9076 30.9185 26.0579C30.9185 26.2082 30.9912 26.3524 31.1207 26.4587C31.2501 26.565 31.4257 26.6247 31.6088 26.6247Z" fill="white"/>
<path d="M149.529 57.5687C148.829 57.9366 148.088 58.2479 147.315 58.4983C147.449 58.8761 147.582 59.2313 147.72 59.5941C148.581 61.8991 149.474 64.1512 150.192 65.931C150.652 67.0268 151.016 67.9451 151.287 68.5761C151.421 68.9011 151.526 69.1543 151.6 69.3319L151.711 69.5964C151.756 69.7085 151.759 69.8296 151.717 69.9429C151.676 70.0561 151.592 70.156 151.478 70.2286C151.365 70.3012 151.226 70.343 151.082 70.3482C150.938 70.3535 150.796 70.3218 150.675 70.2576L136.868 62.7191L130.489 59.2389H15.8919C12.4742 59.2389 9.19647 58.1242 6.77979 56.14C4.36311 54.1558 3.00542 51.4646 3.00542 48.6585V24.6485C3.00542 21.8424 4.36311 19.1513 6.77979 17.167C9.19647 15.1828 12.4742 14.0681 15.8919 14.0681H142.575C145.993 14.0681 149.27 15.1828 151.687 17.167C154.104 19.1513 155.461 21.8424 155.461 24.6485V48.6698C155.463 50.4429 154.92 52.1876 153.883 53.7429C152.846 55.2982 151.349 56.614 149.529 57.5687ZM154.081 24.6485C154.081 22.1431 152.869 19.7402 150.711 17.9686C148.553 16.197 145.626 15.2017 142.575 15.2017H15.8919C12.8404 15.2017 9.91385 16.197 7.75609 17.9686C5.59834 19.7402 4.38611 22.1431 4.38611 24.6485V48.6698C4.38611 51.1753 5.59834 53.5781 7.75609 55.3497C9.91385 57.1213 12.8404 58.1166 15.8919 58.1166H130.715C130.851 58.1159 130.984 58.1488 131.097 58.2111L149.745 68.3947C148.853 66.2484 147.223 62.2392 145.806 58.3245C145.756 58.1817 145.776 58.0284 145.862 57.8976C145.948 57.7669 146.093 57.6691 146.266 57.6254C148.546 56.9931 150.527 55.7897 151.931 54.1846C153.334 52.5794 154.089 50.6533 154.09 48.6774L154.081 24.6485Z" fill="black"/>
<path d="M31.6087 25.476H109.153C109.336 25.476 109.512 25.5357 109.641 25.642C109.771 25.7483 109.843 25.8924 109.843 26.0428C109.843 26.1931 109.771 26.3373 109.641 26.4436C109.512 26.5499 109.336 26.6096 109.153 26.6096H31.6087C31.4256 26.6096 31.25 26.5499 31.1205 26.4436C30.991 26.3373 30.9183 26.1931 30.9183 26.0428C30.9183 25.8924 30.991 25.7483 31.1205 25.642C31.25 25.5357 31.4256 25.476 31.6087 25.476Z" fill="black"/>
<path d="M31.6087 34.5864H122.026C122.209 34.5864 122.384 34.6461 122.514 34.7524C122.643 34.8587 122.716 35.0029 122.716 35.1532C122.716 35.3036 122.643 35.4477 122.514 35.554C122.384 35.6603 122.209 35.72 122.026 35.72H31.6087C31.4256 35.72 31.25 35.6603 31.1205 35.554C30.9911 35.4477 30.9184 35.3036 30.9184 35.1532C30.9184 35.0029 30.9911 34.8587 31.1205 34.7524C31.25 34.6461 31.4256 34.5864 31.6087 34.5864Z" fill="black"/>
<path d="M67.3548 43.6554H122.026C122.209 43.6554 122.384 43.7151 122.514 43.8214C122.643 43.9277 122.716 44.0719 122.716 44.2222C122.716 44.3725 122.643 44.5167 122.514 44.623C122.384 44.7293 122.209 44.789 122.026 44.789H67.3548C67.1717 44.789 66.9961 44.7293 66.8667 44.623C66.7372 44.5167 66.6645 44.3725 66.6645 44.2222C66.6645 44.0719 66.7372 43.9277 66.8667 43.8214C66.9961 43.7151 67.1717 43.6554 67.3548 43.6554Z" fill="black"/>
</svg>
