<svg width="42" height="44" viewBox="0 0 42 44" fill="none" xmlns="http://www.w3.org/2000/svg">
<g filter="url(#filter0_d_5_1246)">
<path d="M37 37.5V33.5C37 31.3783 36.1571 29.3434 34.6569 27.8431C33.1566 26.3429 31.1217 25.5 29 25.5H27C26.4696 25.5 25.9609 25.2893 25.5858 24.9142C25.2107 24.5391 25 24.0304 25 23.5V13.5C25 12.4391 24.5786 11.4217 23.8284 10.6716C23.0783 9.92143 22.0609 9.5 21 9.5C19.9391 9.5 18.9217 9.92143 18.1716 10.6716C17.4214 11.4217 17 12.4391 17 13.5V31.5L12.2 25.1C11.8274 24.6032 11.3443 24.2 10.7889 23.9223C10.2334 23.6446 9.62098 23.5 9 23.5H8.132C6.402 23.5 5 24.902 5 26.632C5 27.2 5.154 27.758 5.446 28.244L11 37.5M21 3.5V1.5ZM33 15.5H35ZM7 15.5H9ZM11.686 6.186L10.272 4.772ZM30.314 6.186L31.728 4.772Z" fill="#34C759"/>
<path d="M37 37.5V33.5C37 31.3783 36.1571 29.3434 34.6569 27.8431C33.1566 26.3429 31.1217 25.5 29 25.5H27C26.4696 25.5 25.9609 25.2893 25.5858 24.9142C25.2107 24.5391 25 24.0304 25 23.5V13.5C25 12.4391 24.5786 11.4217 23.8284 10.6716C23.0783 9.92143 22.0609 9.5 21 9.5C19.9391 9.5 18.9217 9.92143 18.1716 10.6716C17.4214 11.4217 17 12.4391 17 13.5V31.5L12.2 25.1C11.8274 24.6032 11.3443 24.2 10.7889 23.9223C10.2334 23.6446 9.62098 23.5 9 23.5H8.132C6.402 23.5 5 24.902 5 26.632C5 27.2 5.154 27.758 5.446 28.244L11 37.5M21 3.5V1.5M33 15.5H35M7 15.5H9M11.686 6.186L10.272 4.772M30.314 6.186L31.728 4.772" stroke="#34C759" stroke-width="2" stroke-linecap="round" stroke-linejoin="round"/>
</g>
<defs>
<filter id="filter0_d_5_1246" x="0" y="0.5" width="42" height="46.0001" filterUnits="userSpaceOnUse" color-interpolation-filters="sRGB">
<feFlood flood-opacity="0" result="BackgroundImageFix"/>
<feColorMatrix in="SourceAlpha" type="matrix" values="0 0 0 0 0 0 0 0 0 0 0 0 0 0 0 0 0 0 127 0" result="hardAlpha"/>
<feOffset dy="4"/>
<feGaussianBlur stdDeviation="2"/>
<feComposite in2="hardAlpha" operator="out"/>
<feColorMatrix type="matrix" values="0 0 0 0 0 0 0 0 0 0 0 0 0 0 0 0 0 0 0.25 0"/>
<feBlend mode="normal" in2="BackgroundImageFix" result="effect1_dropShadow_5_1246"/>
<feBlend mode="normal" in="SourceGraphic" in2="effect1_dropShadow_5_1246" result="shape"/>
</filter>
</defs>
</svg>
