<svg width="48" height="49" viewBox="0 0 48 49" fill="none" xmlns="http://www.w3.org/2000/svg">
<mask id="path-1-inside-1_5_1235" fill="white">
<path d="M28.3116 24.1446C28.0708 24.1446 27.8472 24.0784 27.6486 23.9719V23.9748C27.6486 24.3536 27.5014 24.7094 27.2342 24.9758C26.967 25.243 26.6115 25.3903 26.2331 25.3903C25.9888 25.3903 25.7624 25.3224 25.5617 25.2131C25.5414 25.5597 25.4029 25.8836 25.1557 26.131C24.8886 26.3982 24.5331 26.5454 24.1544 26.5454C23.4021 26.5454 22.7912 25.9541 22.7472 25.2129C22.5144 25.3387 22.2513 25.4046 21.9798 25.3872C21.2398 25.3387 20.6602 24.6993 20.6602 23.9312V17.5645L19.9353 18.8205C19.6592 19.3009 19.1423 19.5991 18.5858 19.5991C18.3146 19.5991 18.0467 19.528 17.8095 19.392C17.514 19.2208 17.3027 18.9458 17.2148 18.6169C17.1265 18.2878 17.1722 17.9436 17.343 17.6486C17.3432 17.6486 19.715 13.5414 19.8597 13.2891C19.8769 13.2512 19.9259 13.1411 19.9676 13.0474C20.0074 12.9578 20.0416 12.866 20.0743 12.7736C20.7896 10.7543 22.5606 9.49998 24.6965 9.49998C27.4702 9.49998 29.7268 11.9469 29.7268 14.9546L29.727 22.7289C29.727 23.1073 29.58 23.4628 29.313 23.7302C29.0459 23.9974 28.6904 24.1447 28.3115 24.1447L28.3116 24.1446ZM24.6965 10.2521C22.8612 10.2521 21.3984 11.2888 20.7833 13.0251C20.7439 13.1354 20.7029 13.2457 20.6551 13.3531C20.5163 13.6643 20.5163 13.6643 20.4772 13.7091L20.472 13.7046C20.2784 14.07 19.703 15.0663 17.9942 18.025C17.924 18.1463 17.9054 18.2872 17.9412 18.422C17.9775 18.5567 18.0645 18.6703 18.1849 18.7398C18.5585 18.9544 19.0702 18.8159 19.2832 18.4448L20.7107 15.9734C20.796 15.8261 20.9684 15.7538 21.1338 15.7986C21.2983 15.8426 21.4125 15.9918 21.4125 16.1619V23.9314C21.4125 24.298 21.6891 24.6144 22.0291 24.6368C22.2251 24.6471 22.408 24.5814 22.5453 24.4443C22.6702 24.3194 22.739 24.1531 22.739 23.9752V18.8938C22.739 18.686 22.9074 18.5176 23.1152 18.5176C23.323 18.5176 23.4915 18.6858 23.4915 18.8938L23.4912 25.1302C23.4912 25.4958 23.7888 25.7934 24.1544 25.7934C24.3321 25.7934 24.4989 25.7246 24.624 25.5997C24.7489 25.4746 24.8177 25.3078 24.8177 25.1302V18.8938C24.8177 18.686 24.9859 18.5176 25.1939 18.5176C25.4017 18.5176 25.5702 18.6858 25.5702 18.8938L25.5699 23.9168V23.9752C25.5699 24.3406 25.8675 24.6381 26.2334 24.6381C26.4108 24.6381 26.5771 24.5691 26.7029 24.4438C26.8278 24.3191 26.8966 24.1528 26.8966 23.9749V18.8936C26.8966 18.6858 27.0648 18.5173 27.2728 18.5173C27.4806 18.5173 27.6491 18.6855 27.6491 18.8936L27.6486 22.7291C27.6486 23.095 27.9462 23.3925 28.3116 23.3925C28.4894 23.3925 28.6558 23.3235 28.7806 23.1989C28.906 23.0736 28.9745 22.9067 28.9745 22.7291L28.9748 14.9548C28.9748 12.362 27.0556 10.2522 24.6965 10.2522L24.6965 10.2521Z"/>
</mask>
<path d="M28.3116 24.1446C28.0708 24.1446 27.8472 24.0784 27.6486 23.9719V23.9748C27.6486 24.3536 27.5014 24.7094 27.2342 24.9758C26.967 25.243 26.6115 25.3903 26.2331 25.3903C25.9888 25.3903 25.7624 25.3224 25.5617 25.2131C25.5414 25.5597 25.4029 25.8836 25.1557 26.131C24.8886 26.3982 24.5331 26.5454 24.1544 26.5454C23.4021 26.5454 22.7912 25.9541 22.7472 25.2129C22.5144 25.3387 22.2513 25.4046 21.9798 25.3872C21.2398 25.3387 20.6602 24.6993 20.6602 23.9312V17.5645L19.9353 18.8205C19.6592 19.3009 19.1423 19.5991 18.5858 19.5991C18.3146 19.5991 18.0467 19.528 17.8095 19.392C17.514 19.2208 17.3027 18.9458 17.2148 18.6169C17.1265 18.2878 17.1722 17.9436 17.343 17.6486C17.3432 17.6486 19.715 13.5414 19.8597 13.2891C19.8769 13.2512 19.9259 13.1411 19.9676 13.0474C20.0074 12.9578 20.0416 12.866 20.0743 12.7736C20.7896 10.7543 22.5606 9.49998 24.6965 9.49998C27.4702 9.49998 29.7268 11.9469 29.7268 14.9546L29.727 22.7289C29.727 23.1073 29.58 23.4628 29.313 23.7302C29.0459 23.9974 28.6904 24.1447 28.3115 24.1447L28.3116 24.1446ZM24.6965 10.2521C22.8612 10.2521 21.3984 11.2888 20.7833 13.0251C20.7439 13.1354 20.7029 13.2457 20.6551 13.3531C20.5163 13.6643 20.5163 13.6643 20.4772 13.7091L20.472 13.7046C20.2784 14.07 19.703 15.0663 17.9942 18.025C17.924 18.1463 17.9054 18.2872 17.9412 18.422C17.9775 18.5567 18.0645 18.6703 18.1849 18.7398C18.5585 18.9544 19.0702 18.8159 19.2832 18.4448L20.7107 15.9734C20.796 15.8261 20.9684 15.7538 21.1338 15.7986C21.2983 15.8426 21.4125 15.9918 21.4125 16.1619V23.9314C21.4125 24.298 21.6891 24.6144 22.0291 24.6368C22.2251 24.6471 22.408 24.5814 22.5453 24.4443C22.6702 24.3194 22.739 24.1531 22.739 23.9752V18.8938C22.739 18.686 22.9074 18.5176 23.1152 18.5176C23.323 18.5176 23.4915 18.6858 23.4915 18.8938L23.4912 25.1302C23.4912 25.4958 23.7888 25.7934 24.1544 25.7934C24.3321 25.7934 24.4989 25.7246 24.624 25.5997C24.7489 25.4746 24.8177 25.3078 24.8177 25.1302V18.8938C24.8177 18.686 24.9859 18.5176 25.1939 18.5176C25.4017 18.5176 25.5702 18.6858 25.5702 18.8938L25.5699 23.9168V23.9752C25.5699 24.3406 25.8675 24.6381 26.2334 24.6381C26.4108 24.6381 26.5771 24.5691 26.7029 24.4438C26.8278 24.3191 26.8966 24.1528 26.8966 23.9749V18.8936C26.8966 18.6858 27.0648 18.5173 27.2728 18.5173C27.4806 18.5173 27.6491 18.6855 27.6491 18.8936L27.6486 22.7291C27.6486 23.095 27.9462 23.3925 28.3116 23.3925C28.4894 23.3925 28.6558 23.3235 28.7806 23.1989C28.906 23.0736 28.9745 22.9067 28.9745 22.7291L28.9748 14.9548C28.9748 12.362 27.0556 10.2522 24.6965 10.2522L24.6965 10.2521Z" fill="#34C759"/>
<path d="M28.3116 24.1446V22.8113H33.0223L29.0104 25.2802L28.3116 24.1446ZM27.6486 23.9719H26.3153V21.7441L28.2787 22.7969L27.6486 23.9719ZM27.2342 24.9758L26.2914 24.033L26.2926 24.0318L27.2342 24.9758ZM25.5617 25.2131L24.2306 25.1353L24.3533 23.0368L26.1993 24.0421L25.5617 25.2131ZM25.1557 26.131L26.099 27.0733L26.0985 27.0738L25.1557 26.131ZM22.7472 25.2129L22.1132 24.0399L23.9541 23.0449L24.0782 25.1338L22.7472 25.2129ZM21.9798 25.3872L21.8944 26.7178L21.8926 26.7177L21.9798 25.3872ZM20.6602 17.5645L19.5055 16.898L21.9936 12.5875V17.5645H20.6602ZM19.9353 18.8205L18.7793 18.156L18.7805 18.1539L19.9353 18.8205ZM17.8095 19.392L17.1466 20.5489L17.1407 20.5455L17.8095 19.392ZM17.2148 18.6169L18.5026 18.2712L18.503 18.2727L17.2148 18.6169ZM17.343 17.6486L16.1891 16.9805L16.5743 16.3152H17.343V17.6486ZM19.8597 13.2891L21.074 13.8397L21.0478 13.8974L21.0163 13.9524L19.8597 13.2891ZM19.9676 13.0474L18.7493 12.5056L18.7493 12.5056L19.9676 13.0474ZM20.0743 12.7736L21.3311 13.2188L21.331 13.2191L20.0743 12.7736ZM29.7268 14.9546L28.3934 14.9546V14.9546H29.7268ZM29.727 22.7289L31.0603 22.7289V22.7289H29.727ZM29.313 23.7302L30.2567 24.6722L30.2558 24.6731L29.313 23.7302ZM28.3115 24.1447V25.478H23.6008L27.6127 23.0091L28.3115 24.1447ZM24.6965 10.2521V8.91879H26.4642L25.9786 10.6184L24.6965 10.2521ZM20.7833 13.0251L22.0401 13.4704L22.039 13.4732L20.7833 13.0251ZM20.6551 13.3531L21.8732 13.8954L21.8729 13.8961L20.6551 13.3531ZM20.4772 13.7091L21.4813 14.5864L20.609 15.5847L19.6057 14.7182L20.4772 13.7091ZM20.472 13.7046L19.2939 13.0802L20.0773 11.602L21.3435 12.6955L20.472 13.7046ZM17.9942 18.025L19.1488 18.6918L19.1483 18.6928L17.9942 18.025ZM17.9412 18.422L16.6537 18.7686L16.6526 18.7644L17.9412 18.422ZM18.1849 18.7398L17.5207 19.896L17.5182 19.8945L18.1849 18.7398ZM19.2832 18.4448L18.1268 17.7811L18.1286 17.778L19.2832 18.4448ZM20.7107 15.9734L19.5561 15.3065L19.5569 15.3051L20.7107 15.9734ZM21.1338 15.7986L20.7888 17.0865L20.7855 17.0856L21.1338 15.7986ZM22.0291 24.6368L21.9587 25.9682L21.9501 25.9678L21.9416 25.9672L22.0291 24.6368ZM22.5453 24.4443L23.4881 25.3871L23.4873 25.3879L22.5453 24.4443ZM23.4915 18.8938H24.8248V18.8939L23.4915 18.8938ZM23.4912 25.1302H22.1579V25.1301L23.4912 25.1302ZM24.624 25.5997L25.5677 26.5417L25.5659 26.5435L24.624 25.5997ZM25.5702 18.8938H26.9035V18.8939L25.5702 18.8938ZM25.5699 23.9168H24.2366V23.9167L25.5699 23.9168ZM26.7029 24.4438L27.6448 25.3875L27.644 25.3883L26.7029 24.4438ZM27.6491 18.8936H28.9824V18.8937L27.6491 18.8936ZM27.6486 22.7291H26.3153V22.7289L27.6486 22.7291ZM28.7806 23.1989L29.7235 24.1417L29.7226 24.1426L28.7806 23.1989ZM28.9745 22.7291H27.6412V22.7291L28.9745 22.7291ZM28.9748 14.9548H30.3081V14.9548L28.9748 14.9548ZM24.6965 10.2522V11.5855H22.9289L23.4145 9.88591L24.6965 10.2522ZM28.3116 24.1446V25.478C27.8206 25.478 27.3823 25.3421 27.0186 25.147L27.6486 23.9719L28.2787 22.7969C28.2959 22.8061 28.3069 22.8096 28.3112 22.8108C28.3149 22.8118 28.3144 22.8113 28.3116 22.8113V24.1446ZM27.6486 23.9719H28.982V23.9748H27.6486H26.3153V23.9719H27.6486ZM27.6486 23.9748H28.982C28.982 24.7061 28.695 25.4021 28.1758 25.9199L27.2342 24.9758L26.2926 24.0318C26.3022 24.0223 26.3069 24.0141 26.3097 24.0075C26.3124 24.0008 26.3153 23.9905 26.3153 23.9748H27.6486ZM27.2342 24.9758L28.177 25.9187C27.6596 26.4361 26.9649 26.7236 26.2331 26.7236V25.3903V24.0569C26.2484 24.0569 26.2585 24.0541 26.2653 24.0513C26.2722 24.0485 26.281 24.0434 26.2914 24.033L27.2342 24.9758ZM26.2331 25.3903V26.7236C25.7358 26.7236 25.292 26.5844 24.924 26.384L25.5617 25.2131L26.1993 24.0421C26.2167 24.0516 26.2277 24.0552 26.2321 24.0564C26.2358 24.0574 26.2355 24.0569 26.2331 24.0569V25.3903ZM25.5617 25.2131L26.8927 25.2909C26.8544 25.9472 26.5881 26.5837 26.099 27.0733L25.1557 26.131L24.2124 25.1887C24.2174 25.1837 24.2202 25.1794 24.2227 25.1738C24.2253 25.1678 24.2294 25.1556 24.2306 25.1353L25.5617 25.2131ZM25.1557 26.131L26.0985 27.0738C25.581 27.5913 24.8863 27.8787 24.1544 27.8787V26.5454V25.2121C24.1699 25.2121 24.1801 25.2093 24.1869 25.2064C24.1937 25.2036 24.2025 25.1986 24.2129 25.1882L25.1557 26.131ZM24.1544 26.5454V27.8787C22.6824 27.8787 21.5012 26.7234 21.4162 25.2919L22.7472 25.2129L24.0782 25.1338C24.0795 25.1565 24.0888 25.1764 24.1052 25.192C24.1132 25.1997 24.1214 25.2046 24.1284 25.2075C24.1346 25.21 24.1425 25.2121 24.1544 25.2121V26.5454ZM22.7472 25.2129L23.3812 26.3858C22.9505 26.6186 22.4398 26.7528 21.8944 26.7178L21.9798 25.3872L22.0653 24.0566C22.0653 24.0566 22.0682 24.0569 22.0752 24.0552C22.0827 24.0535 22.0958 24.0493 22.1132 24.0399L22.7472 25.2129ZM21.9798 25.3872L21.8926 26.7177C20.4121 26.6206 19.3269 25.3616 19.3269 23.9312H20.6602H21.9936C21.9936 23.9763 22.0099 24.011 22.0305 24.0336C22.0505 24.0557 22.064 24.0565 22.0671 24.0567L21.9798 25.3872ZM20.6602 23.9312H19.3269V17.5645H20.6602H21.9936V23.9312H20.6602ZM20.6602 17.5645L21.815 18.2311L21.09 19.487L19.9353 18.8205L18.7805 18.1539L19.5055 16.898L20.6602 17.5645ZM19.9353 18.8205L21.0913 19.4849C20.576 20.3813 19.617 20.9325 18.5858 20.9325V19.5991V18.2658C18.6675 18.2658 18.7423 18.2205 18.7793 18.156L19.9353 18.8205ZM18.5858 19.5991V20.9325C18.0816 20.9325 17.5852 20.8002 17.1466 20.5489L17.8095 19.392L18.4724 18.2352C18.5082 18.2557 18.5476 18.2658 18.5858 18.2658V19.5991ZM17.8095 19.392L17.1407 20.5455C16.5421 20.1985 16.1064 19.6337 15.9267 18.9611L17.2148 18.6169L18.503 18.2727C18.5018 18.2682 18.4984 18.2601 18.492 18.2518C18.4856 18.2435 18.4797 18.2394 18.4782 18.2385L17.8095 19.392ZM17.2148 18.6169L15.9271 18.9626C15.7467 18.2904 15.8411 17.5815 16.1891 16.9805L17.343 17.6486L18.4969 18.3167C18.4988 18.3134 18.5021 18.3058 18.5035 18.295C18.5049 18.2842 18.5038 18.2756 18.5026 18.2712L17.2148 18.6169ZM17.343 17.6486V16.3152C16.6889 16.4867 16.1994 16.963 16.1957 16.9692C16.1945 16.9712 16.1927 16.9743 16.1921 16.9753C16.1918 16.9759 16.1912 16.9769 16.191 16.9772C16.1909 16.9774 16.1907 16.9778 16.1906 16.9779C16.1904 16.9782 16.1905 16.9781 16.191 16.9773C16.1919 16.9757 16.1934 16.9731 16.1956 16.9693C16.2 16.9617 16.2066 16.9503 16.2153 16.9353C16.2326 16.9052 16.2581 16.8611 16.2907 16.8047C16.3558 16.6919 16.449 16.5306 16.5614 16.3361C16.786 15.9471 17.087 15.4259 17.3925 14.8967C18.0045 13.8367 18.632 12.7497 18.7031 12.6257L19.8597 13.2891L21.0163 13.9524C20.9427 14.0808 20.3119 15.1735 19.7019 16.2301C19.3963 16.7593 19.0953 17.2806 18.8706 17.6697C18.7583 17.8642 18.665 18.0257 18.5998 18.1385C18.5672 18.1949 18.5416 18.2393 18.5241 18.2695C18.5154 18.2846 18.5086 18.2963 18.504 18.3043C18.5017 18.3083 18.4999 18.3115 18.4985 18.3139C18.4978 18.315 18.497 18.3164 18.4963 18.3177C18.496 18.3182 18.4951 18.3197 18.4941 18.3214C18.4934 18.3226 18.4916 18.3257 18.4903 18.3279C18.4866 18.3341 17.997 18.8105 17.343 18.9819V17.6486ZM19.8597 13.2891L18.6453 12.7385C18.66 12.7061 18.7065 12.6017 18.7493 12.5056L19.9676 13.0474L21.1859 13.5892C21.1453 13.6805 21.0937 13.7962 21.074 13.8397L19.8597 13.2891ZM19.9676 13.0474L18.7493 12.5056C18.7678 12.4639 18.7883 12.4106 18.8176 12.3281L20.0743 12.7736L21.331 13.2191C21.2948 13.3213 21.247 13.4518 21.1859 13.5892L19.9676 13.0474ZM20.0743 12.7736L18.8175 12.3284C19.7205 9.77893 21.9936 8.16665 24.6965 8.16665V9.49998V10.8333C23.1276 10.8333 21.8586 11.7297 21.3311 13.2188L20.0743 12.7736ZM24.6965 9.49998V8.16665C28.3062 8.16665 31.0601 11.3142 31.0601 14.9546H29.7268H28.3934C28.3934 12.5795 26.6342 10.8333 24.6965 10.8333V9.49998ZM29.7268 14.9546L31.0601 14.9545L31.0603 22.7289L29.727 22.7289L28.3937 22.729L28.3934 14.9546L29.7268 14.9546ZM29.727 22.7289H31.0603C31.0603 23.4601 30.7734 24.1545 30.2567 24.6722L29.313 23.7302L28.3694 22.7883C28.3799 22.7778 28.385 22.7688 28.3879 22.7618C28.3908 22.7548 28.3937 22.7445 28.3937 22.7289H29.727ZM29.313 23.7302L30.2558 24.6731C29.7383 25.1906 29.0435 25.478 28.3115 25.478V24.1447V22.8113C28.3272 22.8113 28.3374 22.8085 28.3442 22.8057C28.351 22.8029 28.3598 22.7978 28.3702 22.7874L29.313 23.7302ZM28.3115 24.1447L27.6127 23.0091L27.6128 23.0091L28.3116 24.1446L29.0104 25.2802L29.0103 25.2802L28.3115 24.1447ZM24.6965 10.2521V11.5855C23.4288 11.5855 22.4676 12.2636 22.0401 13.4704L20.7833 13.0251L19.5265 12.5799C20.3292 10.314 22.2936 8.91879 24.6965 8.91879V10.2521ZM20.7833 13.0251L22.039 13.4732C21.9969 13.5912 21.9423 13.7402 21.8732 13.8954L20.6551 13.3531L19.437 12.8108C19.4636 12.7512 19.4909 12.6796 19.5275 12.577L20.7833 13.0251ZM20.6551 13.3531L21.8729 13.8961C21.8118 14.033 21.7606 14.1487 21.7215 14.227C21.6972 14.2756 21.6579 14.3505 21.6008 14.4335C21.543 14.5176 21.4859 14.581 21.4813 14.5864L20.4772 13.7091L19.4731 12.8318C19.4763 12.8282 19.4753 12.8294 19.4737 12.8312C19.4716 12.8336 19.4665 12.8396 19.4597 12.8479C19.4526 12.8565 19.4437 12.8676 19.4338 12.8808C19.4237 12.8941 19.4134 12.9082 19.4031 12.9231C19.3823 12.9535 19.3662 12.9802 19.3547 13.0003C19.3441 13.0191 19.3375 13.0321 19.3361 13.035C19.3345 13.0381 19.3355 13.0363 19.34 13.0266C19.3444 13.0172 19.3506 13.0036 19.3595 12.9839C19.3684 12.9644 19.379 12.9408 19.392 12.9117C19.405 12.8826 19.4199 12.8492 19.4373 12.8101L20.6551 13.3531ZM20.4772 13.7091L19.6057 14.7182L19.6005 14.7137L20.472 13.7046L21.3435 12.6955L21.3487 12.7L20.4772 13.7091ZM20.472 13.7046L21.6501 14.329C21.4415 14.7227 20.8457 15.7538 19.1488 18.6918L17.9942 18.025L16.8397 17.3582C18.5604 14.3789 19.1153 13.4173 19.2939 13.0802L20.472 13.7046ZM17.9942 18.025L19.1483 18.6928C19.255 18.5084 19.2847 18.286 19.2298 18.0795L17.9412 18.422L16.6526 18.7644C16.5261 18.2885 16.5931 17.7842 16.8402 17.3572L17.9942 18.025ZM17.9412 18.422L19.2287 18.0754C19.1739 17.8716 19.039 17.6933 18.8515 17.5851L18.1849 18.7398L17.5182 19.8945C17.0899 19.6473 16.7812 19.2419 16.6538 18.7686L17.9412 18.422ZM18.1849 18.7398L18.849 17.5836C18.6972 17.4965 18.5496 17.497 18.4476 17.5245C18.3461 17.5518 18.2159 17.6259 18.1268 17.7811L19.2832 18.4448L20.4396 19.1085C19.8585 20.121 18.5305 20.476 17.5207 19.896L18.1849 18.7398ZM19.2832 18.4448L18.1286 17.778L19.5561 15.3065L20.7107 15.9734L21.8653 16.6403L20.4378 19.1117L19.2832 18.4448ZM20.7107 15.9734L19.5569 15.3051C19.9421 14.6402 20.7281 14.3075 21.4822 14.5116L21.1338 15.7986L20.7855 17.0856C21.2088 17.2002 21.6499 17.0121 21.8645 16.6417L20.7107 15.9734ZM21.1338 15.7986L21.4789 14.5107C22.2269 14.7111 22.7459 15.3889 22.7459 16.1619H21.4125H20.0792C20.0792 16.5946 20.3697 16.9742 20.7888 17.0865L21.1338 15.7986ZM21.4125 16.1619H22.7459V23.9314H21.4125H20.0792V16.1619H21.4125ZM21.4125 23.9314H22.7459C22.7459 23.7795 22.6896 23.6413 22.5972 23.5356C22.5049 23.4301 22.3422 23.3211 22.1167 23.3063L22.0291 24.6368L21.9416 25.9672C20.8191 25.8933 20.0792 24.9156 20.0792 23.9314H21.4125ZM22.0291 24.6368L22.0995 23.3053C21.942 23.297 21.7496 23.3547 21.6033 23.5006L22.5453 24.4443L23.4873 25.3879C23.0663 25.8081 22.5083 25.9973 21.9587 25.9682L22.0291 24.6368ZM22.5453 24.4443L21.6025 23.5015C21.476 23.628 21.4056 23.8014 21.4056 23.9752H22.739H24.0723C24.0723 24.5048 23.8644 25.0108 23.4881 25.3871L22.5453 24.4443ZM22.739 23.9752H21.4056V18.8938H22.739H24.0723V23.9752H22.739ZM22.739 18.8938H21.4056C21.4056 17.9496 22.1711 17.1842 23.1152 17.1842V18.5176V19.8509C23.6438 19.8509 24.0723 19.4224 24.0723 18.8938H22.739ZM23.1152 18.5176V17.1842C24.0589 17.1842 24.8248 17.9489 24.8248 18.8938H23.4915H22.1581C22.1581 19.4227 22.5872 19.8509 23.1152 19.8509V18.5176ZM23.4915 18.8938L24.8248 18.8939L24.8246 25.1302L23.4912 25.1302L22.1579 25.1301L22.1581 18.8938L23.4915 18.8938ZM23.4912 25.1302H24.8246C24.8246 24.7595 24.5252 24.4601 24.1544 24.4601V25.7934V27.1267C23.0524 27.1267 22.1579 26.2322 22.1579 25.1302H23.4912ZM24.1544 25.7934V24.4601C23.9809 24.4601 23.8084 24.53 23.6821 24.656L24.624 25.5997L25.5659 26.5435C25.1894 26.9192 24.6833 27.1267 24.1544 27.1267V25.7934ZM24.624 25.5997L23.6803 24.6578C23.5542 24.7841 23.4843 24.9567 23.4843 25.1302H24.8177H26.151C26.151 25.659 25.9435 26.1652 25.5677 26.5417L24.624 25.5997ZM24.8177 25.1302H23.4843V18.8938H24.8177H26.151V25.1302H24.8177ZM24.8177 18.8938H23.4843C23.4843 17.9502 24.2489 17.1842 25.1939 17.1842V18.5176V19.8509C25.7228 19.8509 26.151 19.4218 26.151 18.8938H24.8177ZM25.1939 18.5176V17.1842C26.1375 17.1842 26.9035 17.9489 26.9035 18.8938H25.5702H24.2368C24.2368 19.4227 24.6659 19.8509 25.1939 19.8509V18.5176ZM25.5702 18.8938L26.9035 18.8939L26.9033 23.9168L25.5699 23.9168L24.2366 23.9167L24.2368 18.8938L25.5702 18.8938ZM25.5699 23.9168H26.9033V23.9752H25.5699H24.2366V23.9168H25.5699ZM25.5699 23.9752H26.9033C26.9033 23.6036 26.6032 23.3048 26.2334 23.3048V24.6381V25.9715C25.1318 25.9715 24.2366 25.0776 24.2366 23.9752H25.5699ZM26.2334 24.6381V23.3048C26.0562 23.3048 25.8847 23.3769 25.7619 23.4992L26.7029 24.4438L27.644 25.3883C27.2695 25.7614 26.7653 25.9715 26.2334 25.9715V24.6381ZM26.7029 24.4438L25.761 23.5001C25.6335 23.6274 25.5632 23.8013 25.5632 23.9749H26.8966H28.2299C28.2299 24.5043 28.0221 25.0109 27.6448 25.3875L26.7029 24.4438ZM26.8966 23.9749H25.5632V18.8936H26.8966H28.2299V23.9749H26.8966ZM26.8966 18.8936H25.5632C25.5632 17.9499 26.3279 17.184 27.2728 17.184V18.5173V19.8506C27.8017 19.8506 28.2299 19.4216 28.2299 18.8936H26.8966ZM27.2728 18.5173V17.184C28.2165 17.184 28.9824 17.9486 28.9824 18.8936H27.6491H26.3157C26.3157 19.4224 26.7448 19.8506 27.2728 19.8506V18.5173ZM27.6491 18.8936L28.9824 18.8937L28.9819 22.7293L27.6486 22.7291L26.3153 22.7289L26.3157 18.8934L27.6491 18.8936ZM27.6486 22.7291H28.9819C28.9819 22.3592 28.6832 22.0592 28.3116 22.0592V23.3925V24.7259C27.2092 24.7259 26.3153 23.8307 26.3153 22.7291H27.6486ZM28.3116 23.3925V22.0592C28.1367 22.0592 27.9641 22.13 27.8387 22.2552L28.7806 23.1989L29.7226 24.1426C29.3474 24.517 28.8422 24.7259 28.3116 24.7259V23.3925ZM28.7806 23.1989L27.8378 22.2561C27.7109 22.383 27.6412 22.5563 27.6412 22.7291H28.9745H30.3079C30.3079 23.2572 30.1011 23.7641 29.7234 24.1417L28.7806 23.1989ZM28.9745 22.7291L27.6412 22.7291L27.6414 14.9547L28.9748 14.9548L30.3081 14.9548L30.3079 22.7291L28.9745 22.7291ZM28.9748 14.9548H27.6414C27.6414 12.9769 26.2033 11.5855 24.6965 11.5855V10.2522V8.91887C27.9079 8.91887 30.3081 11.7471 30.3081 14.9548H28.9748ZM24.6965 10.2522L23.4145 9.88591L23.4145 9.88583L24.6965 10.2521L25.9786 10.6184L25.9786 10.6185L24.6965 10.2522Z" fill="#34C759" mask="url(#path-1-inside-1_5_1235)"/>
<path d="M11.9632 26.7139L11.888 26.6738C11.8705 26.7054 11.8206 26.7939 11.7474 26.9258C11.7734 26.9388 11.7992 26.951 11.8255 26.9609C11.8704 26.8801 11.9166 26.7979 11.9632 26.7139Z" fill="#34C759" stroke="#34C759" stroke-width="1.33333"/>
<path d="M27.8259 28.5758L27.8278 28.5768C27.8302 28.5785 27.8322 28.5809 27.8347 28.5826C27.8315 28.5805 27.8288 28.5779 27.8259 28.5758Z" fill="#34C759" stroke="#34C759" stroke-width="1.33333"/>
</svg>
