<svg width="48" height="49" viewBox="0 0 48 49" fill="none" xmlns="http://www.w3.org/2000/svg">
<path d="M16.4999 9.23596C18.8587 9.23596 21.161 9.96175 23.0936 11.3141C25.0259 12.6663 26.4955 14.5799 27.3036 16.7955C28.1117 19.0115 28.2195 21.4228 27.6112 23.7018C27.0029 25.9807 25.7081 28.0173 23.9032 29.5358L23.2958 30.0475L24.0184 30.3746C26.9917 31.7202 29.5508 33.8373 31.4286 36.5065L31.4354 36.5162L31.4432 36.526C31.589 36.7128 31.6953 36.9277 31.7557 37.1569C31.8162 37.3861 31.8296 37.6255 31.7948 37.86C31.76 38.0944 31.6779 38.3193 31.5536 38.5211C31.4292 38.7229 31.265 38.8973 31.0712 39.0338C30.8773 39.1703 30.6576 39.266 30.4257 39.3151C30.1938 39.3641 29.954 39.3662 29.7216 39.3199C29.4892 39.2736 29.2685 39.1796 29.0731 39.0455C28.8778 38.9114 28.7115 38.7389 28.5848 38.5387L28.579 38.5289L28.5721 38.5192L28.3114 38.1598C26.984 36.3851 25.2724 34.9307 23.3026 33.9069C21.2014 32.8148 18.8679 32.2448 16.4999 32.2448C14.1319 32.2448 11.7983 32.8148 9.69714 33.9069C7.5961 34.999 5.78925 36.5812 4.42859 38.5192L4.42761 38.5201C4.26766 38.7499 4.05386 38.9378 3.80554 39.067C3.55736 39.1962 3.2816 39.2631 3.00183 39.2623H2.99792C2.63907 39.2634 2.28891 39.1517 1.99695 38.943L1.995 38.942L1.85828 38.8346C1.55451 38.5715 1.34853 38.2105 1.27917 37.8112C1.19996 37.3547 1.30489 36.8847 1.57117 36.5055C3.44896 33.8365 6.00823 31.7201 8.98132 30.3746L9.70398 30.0475L9.09656 29.5358C7.29172 28.0173 5.99686 25.9806 5.38855 23.7018C4.78027 21.4229 4.88805 19.0115 5.69617 16.7955C6.50434 14.5797 7.9746 12.6663 9.9071 11.3141C11.8397 9.96177 14.1411 9.23598 16.4999 9.23596ZM28.6649 9.68323H28.6659L28.6747 9.68127C29.6848 9.39373 30.7299 9.24791 31.7802 9.24963H31.7831C34.1431 9.24286 36.4479 9.96404 38.3837 11.3141C40.3196 12.6642 41.7923 14.5783 42.6014 16.7955C43.4105 19.0127 43.5164 21.4251 42.9052 23.7047C42.2939 25.9844 40.9953 28.0209 39.1854 29.5358L38.5751 30.0465L39.2997 30.3746C42.273 31.7202 44.832 33.8373 46.7098 36.5065L46.7118 36.5094C46.8452 36.6961 46.94 36.9078 46.9911 37.1315C47.0421 37.3551 47.0489 37.5871 47.0096 37.8131C46.9704 38.039 46.886 38.2546 46.7626 38.4479C46.6391 38.6413 46.4785 38.8083 46.2899 38.9391L46.2841 38.943C45.992 39.1517 45.642 39.2625 45.2831 39.2614C45.0026 39.2596 44.7262 39.1926 44.4774 39.0631C44.2906 38.9659 44.1238 38.8356 43.9833 38.6803L43.8514 38.5172C42.4881 36.5833 40.6809 35.0042 38.5809 33.9137C36.4806 32.823 34.1487 32.2523 31.7821 32.2496H31.7811C31.3171 32.2496 30.872 32.0659 30.5438 31.7379C30.2156 31.4097 30.0311 30.9638 30.0311 30.4996C30.0312 30.0357 30.2157 29.5904 30.5438 29.2623C30.872 28.9343 31.3171 28.7497 31.7811 28.7496C33.9029 28.7496 35.9381 27.9072 37.4384 26.4069C38.9386 24.9066 39.7811 22.8713 39.7811 20.7496C39.781 18.6282 38.9384 16.5936 37.4384 15.0934C35.9381 13.5931 33.9029 12.7496 31.7811 12.7496C31.05 12.7484 30.3221 12.8498 29.619 13.0504L29.6132 13.0524C29.3908 13.1187 29.1574 13.1396 28.9266 13.1149C28.6959 13.0901 28.4727 13.0197 28.2694 12.9078C28.0661 12.7959 27.8864 12.6453 27.7421 12.4635C27.5978 12.2817 27.4915 12.0726 27.4286 11.8492C27.3657 11.6258 27.3476 11.3921 27.3759 11.1617C27.4042 10.9314 27.4785 10.709 27.5936 10.5074C27.7087 10.3059 27.8627 10.1294 28.0468 9.98792C28.2307 9.84655 28.4407 9.74262 28.6649 9.68323ZM18.0604 12.9039C16.5086 12.5953 14.9001 12.7535 13.4384 13.359C11.9767 13.9645 10.7275 14.9899 9.84851 16.3053C8.96953 17.6208 8.49996 19.1675 8.49988 20.7496C8.49988 22.8712 9.34252 24.9066 10.8427 26.4069C12.3429 27.9071 14.3782 28.7496 16.4999 28.7496C18.082 28.7496 19.6287 28.2809 20.9442 27.402C22.2598 26.5229 23.286 25.273 23.8915 23.8112C24.4968 22.3495 24.6552 20.7408 24.3466 19.1891C24.0379 17.6374 23.2758 16.2121 22.1571 15.0934C21.0383 13.9746 19.6123 13.2126 18.0604 12.9039Z" fill="#34C759" stroke="#34C759"/>
</svg>
