<svg width="48" height="49" viewBox="0 0 48 49" fill="none" xmlns="http://www.w3.org/2000/svg">
<path d="M9.75 8.5H38.25C39.9076 8.5 41.4968 9.15895 42.6689 10.3311C43.841 11.5032 44.5 13.0924 44.5 14.75V34.25C44.5 35.9076 43.841 37.4968 42.6689 38.6689C41.4968 39.841 39.9076 40.5 38.25 40.5H9.75C8.0924 40.5 6.50316 39.841 5.33105 38.6689C4.15895 37.4968 3.5 35.9076 3.5 34.25V14.75C3.5 13.0924 4.15895 11.5032 5.33105 10.3311C6.50316 9.15895 8.0924 8.5 9.75 8.5ZM5.5 34.25C5.5 35.3772 5.94809 36.4579 6.74512 37.2549C7.54215 38.0519 8.62283 38.5 9.75 38.5H38.25C39.3772 38.5 40.4579 38.0519 41.2549 37.2549C42.0519 36.4579 42.5 35.3772 42.5 34.25V19.5H5.5V34.25ZM31.5 29.5H36C36.2652 29.5 36.5195 29.6054 36.707 29.793C36.8946 29.9805 37 30.2348 37 30.5C37 30.7652 36.8946 31.0195 36.707 31.207C36.5195 31.3946 36.2652 31.5 36 31.5H31.5C31.2348 31.5 30.9805 31.3946 30.793 31.207C30.6054 31.0195 30.5 30.7652 30.5 30.5C30.5 30.2348 30.6054 29.9805 30.793 29.793C30.9805 29.6054 31.2348 29.5 31.5 29.5ZM9.75 10.5C8.62283 10.5 7.54215 10.9481 6.74512 11.7451C5.94809 12.5421 5.5 13.6228 5.5 14.75V17.5H42.5V14.75C42.5 13.6228 42.0519 12.5421 41.2549 11.7451C40.4579 10.9481 39.3772 10.5 38.25 10.5H9.75Z" fill="#34C759" stroke="#34C759"/>
</svg>
